<?xml version="1.0" encoding="utf-8" standalone="no"?>
<!DOCTYPE svg PUBLIC "-//W3C//DTD SVG 1.1//EN"
  "http://www.w3.org/Graphics/SVG/1.1/DTD/svg11.dtd">
<svg xmlns:xlink="http://www.w3.org/1999/xlink" width="420.82625pt" height="310.86825pt" viewBox="0 0 420.82625 310.86825" xmlns="http://www.w3.org/2000/svg" version="1.1">
 <metadata>
  <rdf:RDF xmlns:dc="http://purl.org/dc/elements/1.1/" xmlns:cc="http://creativecommons.org/ns#" xmlns:rdf="http://www.w3.org/1999/02/22-rdf-syntax-ns#">
   <cc:Work>
    <dc:type rdf:resource="http://purl.org/dc/dcmitype/StillImage"/>
    <dc:date>2023-02-13T07:38:03.078373</dc:date>
    <dc:format>image/svg+xml</dc:format>
    <dc:creator>
     <cc:Agent>
      <dc:title>Matplotlib v3.6.3, https://matplotlib.org/</dc:title>
     </cc:Agent>
    </dc:creator>
   </cc:Work>
  </rdf:RDF>
 </metadata>
 <defs>
  <style type="text/css">*{stroke-linejoin: round; stroke-linecap: butt}</style>
 </defs>
 <g id="figure_1">
  <g id="patch_1">
   <path d="M 0 310.86825 
L 420.82625 310.86825 
L 420.82625 0 
L 0 0 
z
" style="fill: #ffffff"/>
  </g>
  <g id="axes_1">
   <g id="patch_2">
    <path d="M 56.50625 273.312 
L 413.62625 273.312 
L 413.62625 7.2 
L 56.50625 7.2 
z
" style="fill: #ffffff"/>
   </g>
   <g id="matplotlib.axis_1">
    <g id="xtick_1">
     <g id="line2d_1">
      <defs>
       <path id="m5e5c31a42b" d="M 0 0 
L 0 3.5 
" style="stroke: #000000; stroke-width: 0.8"/>
      </defs>
      <g>
       <use xlink:href="#m5e5c31a42b" x="72.738977" y="273.312" style="stroke: #000000; stroke-width: 0.8"/>
      </g>
     </g>
     <g id="text_1">
      <!-- 0 -->
      <g transform="translate(69.557727 287.910437) scale(0.1 -0.1)">
       <defs>
        <path id="DejaVuSans-30" d="M 2034 4250 
Q 1547 4250 1301 3770 
Q 1056 3291 1056 2328 
Q 1056 1369 1301 889 
Q 1547 409 2034 409 
Q 2525 409 2770 889 
Q 3016 1369 3016 2328 
Q 3016 3291 2770 3770 
Q 2525 4250 2034 4250 
z
M 2034 4750 
Q 2819 4750 3233 4129 
Q 3647 3509 3647 2328 
Q 3647 1150 3233 529 
Q 2819 -91 2034 -91 
Q 1250 -91 836 529 
Q 422 1150 422 2328 
Q 422 3509 836 4129 
Q 1250 4750 2034 4750 
z
" transform="scale(0.015625)"/>
       </defs>
       <use xlink:href="#DejaVuSans-30"/>
      </g>
     </g>
    </g>
    <g id="xtick_2">
     <g id="line2d_2">
      <g>
       <use xlink:href="#m5e5c31a42b" x="147.891362" y="273.312" style="stroke: #000000; stroke-width: 0.8"/>
      </g>
     </g>
     <g id="text_2">
      <!-- 20000 -->
      <g transform="translate(131.985112 287.910437) scale(0.1 -0.1)">
       <defs>
        <path id="DejaVuSans-32" d="M 1228 531 
L 3431 531 
L 3431 0 
L 469 0 
L 469 531 
Q 828 903 1448 1529 
Q 2069 2156 2228 2338 
Q 2531 2678 2651 2914 
Q 2772 3150 2772 3378 
Q 2772 3750 2511 3984 
Q 2250 4219 1831 4219 
Q 1534 4219 1204 4116 
Q 875 4013 500 3803 
L 500 4441 
Q 881 4594 1212 4672 
Q 1544 4750 1819 4750 
Q 2544 4750 2975 4387 
Q 3406 4025 3406 3419 
Q 3406 3131 3298 2873 
Q 3191 2616 2906 2266 
Q 2828 2175 2409 1742 
Q 1991 1309 1228 531 
z
" transform="scale(0.015625)"/>
       </defs>
       <use xlink:href="#DejaVuSans-32"/>
       <use xlink:href="#DejaVuSans-30" x="63.623047"/>
       <use xlink:href="#DejaVuSans-30" x="127.246094"/>
       <use xlink:href="#DejaVuSans-30" x="190.869141"/>
       <use xlink:href="#DejaVuSans-30" x="254.492188"/>
      </g>
     </g>
    </g>
    <g id="xtick_3">
     <g id="line2d_3">
      <g>
       <use xlink:href="#m5e5c31a42b" x="223.043747" y="273.312" style="stroke: #000000; stroke-width: 0.8"/>
      </g>
     </g>
     <g id="text_3">
      <!-- 40000 -->
      <g transform="translate(207.137497 287.910437) scale(0.1 -0.1)">
       <defs>
        <path id="DejaVuSans-34" d="M 2419 4116 
L 825 1625 
L 2419 1625 
L 2419 4116 
z
M 2253 4666 
L 3047 4666 
L 3047 1625 
L 3713 1625 
L 3713 1100 
L 3047 1100 
L 3047 0 
L 2419 0 
L 2419 1100 
L 313 1100 
L 313 1709 
L 2253 4666 
z
" transform="scale(0.015625)"/>
       </defs>
       <use xlink:href="#DejaVuSans-34"/>
       <use xlink:href="#DejaVuSans-30" x="63.623047"/>
       <use xlink:href="#DejaVuSans-30" x="127.246094"/>
       <use xlink:href="#DejaVuSans-30" x="190.869141"/>
       <use xlink:href="#DejaVuSans-30" x="254.492188"/>
      </g>
     </g>
    </g>
    <g id="xtick_4">
     <g id="line2d_4">
      <g>
       <use xlink:href="#m5e5c31a42b" x="298.196132" y="273.312" style="stroke: #000000; stroke-width: 0.8"/>
      </g>
     </g>
     <g id="text_4">
      <!-- 60000 -->
      <g transform="translate(282.289882 287.910437) scale(0.1 -0.1)">
       <defs>
        <path id="DejaVuSans-36" d="M 2113 2584 
Q 1688 2584 1439 2293 
Q 1191 2003 1191 1497 
Q 1191 994 1439 701 
Q 1688 409 2113 409 
Q 2538 409 2786 701 
Q 3034 994 3034 1497 
Q 3034 2003 2786 2293 
Q 2538 2584 2113 2584 
z
M 3366 4563 
L 3366 3988 
Q 3128 4100 2886 4159 
Q 2644 4219 2406 4219 
Q 1781 4219 1451 3797 
Q 1122 3375 1075 2522 
Q 1259 2794 1537 2939 
Q 1816 3084 2150 3084 
Q 2853 3084 3261 2657 
Q 3669 2231 3669 1497 
Q 3669 778 3244 343 
Q 2819 -91 2113 -91 
Q 1303 -91 875 529 
Q 447 1150 447 2328 
Q 447 3434 972 4092 
Q 1497 4750 2381 4750 
Q 2619 4750 2861 4703 
Q 3103 4656 3366 4563 
z
" transform="scale(0.015625)"/>
       </defs>
       <use xlink:href="#DejaVuSans-36"/>
       <use xlink:href="#DejaVuSans-30" x="63.623047"/>
       <use xlink:href="#DejaVuSans-30" x="127.246094"/>
       <use xlink:href="#DejaVuSans-30" x="190.869141"/>
       <use xlink:href="#DejaVuSans-30" x="254.492188"/>
      </g>
     </g>
    </g>
    <g id="xtick_5">
     <g id="line2d_5">
      <g>
       <use xlink:href="#m5e5c31a42b" x="373.348517" y="273.312" style="stroke: #000000; stroke-width: 0.8"/>
      </g>
     </g>
     <g id="text_5">
      <!-- 80000 -->
      <g transform="translate(357.442267 287.910437) scale(0.1 -0.1)">
       <defs>
        <path id="DejaVuSans-38" d="M 2034 2216 
Q 1584 2216 1326 1975 
Q 1069 1734 1069 1313 
Q 1069 891 1326 650 
Q 1584 409 2034 409 
Q 2484 409 2743 651 
Q 3003 894 3003 1313 
Q 3003 1734 2745 1975 
Q 2488 2216 2034 2216 
z
M 1403 2484 
Q 997 2584 770 2862 
Q 544 3141 544 3541 
Q 544 4100 942 4425 
Q 1341 4750 2034 4750 
Q 2731 4750 3128 4425 
Q 3525 4100 3525 3541 
Q 3525 3141 3298 2862 
Q 3072 2584 2669 2484 
Q 3125 2378 3379 2068 
Q 3634 1759 3634 1313 
Q 3634 634 3220 271 
Q 2806 -91 2034 -91 
Q 1263 -91 848 271 
Q 434 634 434 1313 
Q 434 1759 690 2068 
Q 947 2378 1403 2484 
z
M 1172 3481 
Q 1172 3119 1398 2916 
Q 1625 2713 2034 2713 
Q 2441 2713 2670 2916 
Q 2900 3119 2900 3481 
Q 2900 3844 2670 4047 
Q 2441 4250 2034 4250 
Q 1625 4250 1398 4047 
Q 1172 3844 1172 3481 
z
" transform="scale(0.015625)"/>
       </defs>
       <use xlink:href="#DejaVuSans-38"/>
       <use xlink:href="#DejaVuSans-30" x="63.623047"/>
       <use xlink:href="#DejaVuSans-30" x="127.246094"/>
       <use xlink:href="#DejaVuSans-30" x="190.869141"/>
       <use xlink:href="#DejaVuSans-30" x="254.492188"/>
      </g>
     </g>
    </g>
    <g id="text_6">
     <!-- Time (seconds) -->
     <g transform="translate(196.904531 301.588562) scale(0.1 -0.1)">
      <defs>
       <path id="DejaVuSans-54" d="M -19 4666 
L 3928 4666 
L 3928 4134 
L 2272 4134 
L 2272 0 
L 1638 0 
L 1638 4134 
L -19 4134 
L -19 4666 
z
" transform="scale(0.015625)"/>
       <path id="DejaVuSans-69" d="M 603 3500 
L 1178 3500 
L 1178 0 
L 603 0 
L 603 3500 
z
M 603 4863 
L 1178 4863 
L 1178 4134 
L 603 4134 
L 603 4863 
z
" transform="scale(0.015625)"/>
       <path id="DejaVuSans-6d" d="M 3328 2828 
Q 3544 3216 3844 3400 
Q 4144 3584 4550 3584 
Q 5097 3584 5394 3201 
Q 5691 2819 5691 2113 
L 5691 0 
L 5113 0 
L 5113 2094 
Q 5113 2597 4934 2840 
Q 4756 3084 4391 3084 
Q 3944 3084 3684 2787 
Q 3425 2491 3425 1978 
L 3425 0 
L 2847 0 
L 2847 2094 
Q 2847 2600 2669 2842 
Q 2491 3084 2119 3084 
Q 1678 3084 1418 2786 
Q 1159 2488 1159 1978 
L 1159 0 
L 581 0 
L 581 3500 
L 1159 3500 
L 1159 2956 
Q 1356 3278 1631 3431 
Q 1906 3584 2284 3584 
Q 2666 3584 2933 3390 
Q 3200 3197 3328 2828 
z
" transform="scale(0.015625)"/>
       <path id="DejaVuSans-65" d="M 3597 1894 
L 3597 1613 
L 953 1613 
Q 991 1019 1311 708 
Q 1631 397 2203 397 
Q 2534 397 2845 478 
Q 3156 559 3463 722 
L 3463 178 
Q 3153 47 2828 -22 
Q 2503 -91 2169 -91 
Q 1331 -91 842 396 
Q 353 884 353 1716 
Q 353 2575 817 3079 
Q 1281 3584 2069 3584 
Q 2775 3584 3186 3129 
Q 3597 2675 3597 1894 
z
M 3022 2063 
Q 3016 2534 2758 2815 
Q 2500 3097 2075 3097 
Q 1594 3097 1305 2825 
Q 1016 2553 972 2059 
L 3022 2063 
z
" transform="scale(0.015625)"/>
       <path id="DejaVuSans-20" transform="scale(0.015625)"/>
       <path id="DejaVuSans-28" d="M 1984 4856 
Q 1566 4138 1362 3434 
Q 1159 2731 1159 2009 
Q 1159 1288 1364 580 
Q 1569 -128 1984 -844 
L 1484 -844 
Q 1016 -109 783 600 
Q 550 1309 550 2009 
Q 550 2706 781 3412 
Q 1013 4119 1484 4856 
L 1984 4856 
z
" transform="scale(0.015625)"/>
       <path id="DejaVuSans-73" d="M 2834 3397 
L 2834 2853 
Q 2591 2978 2328 3040 
Q 2066 3103 1784 3103 
Q 1356 3103 1142 2972 
Q 928 2841 928 2578 
Q 928 2378 1081 2264 
Q 1234 2150 1697 2047 
L 1894 2003 
Q 2506 1872 2764 1633 
Q 3022 1394 3022 966 
Q 3022 478 2636 193 
Q 2250 -91 1575 -91 
Q 1294 -91 989 -36 
Q 684 19 347 128 
L 347 722 
Q 666 556 975 473 
Q 1284 391 1588 391 
Q 1994 391 2212 530 
Q 2431 669 2431 922 
Q 2431 1156 2273 1281 
Q 2116 1406 1581 1522 
L 1381 1569 
Q 847 1681 609 1914 
Q 372 2147 372 2553 
Q 372 3047 722 3315 
Q 1072 3584 1716 3584 
Q 2034 3584 2315 3537 
Q 2597 3491 2834 3397 
z
" transform="scale(0.015625)"/>
       <path id="DejaVuSans-63" d="M 3122 3366 
L 3122 2828 
Q 2878 2963 2633 3030 
Q 2388 3097 2138 3097 
Q 1578 3097 1268 2742 
Q 959 2388 959 1747 
Q 959 1106 1268 751 
Q 1578 397 2138 397 
Q 2388 397 2633 464 
Q 2878 531 3122 666 
L 3122 134 
Q 2881 22 2623 -34 
Q 2366 -91 2075 -91 
Q 1284 -91 818 406 
Q 353 903 353 1747 
Q 353 2603 823 3093 
Q 1294 3584 2113 3584 
Q 2378 3584 2631 3529 
Q 2884 3475 3122 3366 
z
" transform="scale(0.015625)"/>
       <path id="DejaVuSans-6f" d="M 1959 3097 
Q 1497 3097 1228 2736 
Q 959 2375 959 1747 
Q 959 1119 1226 758 
Q 1494 397 1959 397 
Q 2419 397 2687 759 
Q 2956 1122 2956 1747 
Q 2956 2369 2687 2733 
Q 2419 3097 1959 3097 
z
M 1959 3584 
Q 2709 3584 3137 3096 
Q 3566 2609 3566 1747 
Q 3566 888 3137 398 
Q 2709 -91 1959 -91 
Q 1206 -91 779 398 
Q 353 888 353 1747 
Q 353 2609 779 3096 
Q 1206 3584 1959 3584 
z
" transform="scale(0.015625)"/>
       <path id="DejaVuSans-6e" d="M 3513 2113 
L 3513 0 
L 2938 0 
L 2938 2094 
Q 2938 2591 2744 2837 
Q 2550 3084 2163 3084 
Q 1697 3084 1428 2787 
Q 1159 2491 1159 1978 
L 1159 0 
L 581 0 
L 581 3500 
L 1159 3500 
L 1159 2956 
Q 1366 3272 1645 3428 
Q 1925 3584 2291 3584 
Q 2894 3584 3203 3211 
Q 3513 2838 3513 2113 
z
" transform="scale(0.015625)"/>
       <path id="DejaVuSans-64" d="M 2906 2969 
L 2906 4863 
L 3481 4863 
L 3481 0 
L 2906 0 
L 2906 525 
Q 2725 213 2448 61 
Q 2172 -91 1784 -91 
Q 1150 -91 751 415 
Q 353 922 353 1747 
Q 353 2572 751 3078 
Q 1150 3584 1784 3584 
Q 2172 3584 2448 3432 
Q 2725 3281 2906 2969 
z
M 947 1747 
Q 947 1113 1208 752 
Q 1469 391 1925 391 
Q 2381 391 2643 752 
Q 2906 1113 2906 1747 
Q 2906 2381 2643 2742 
Q 2381 3103 1925 3103 
Q 1469 3103 1208 2742 
Q 947 2381 947 1747 
z
" transform="scale(0.015625)"/>
       <path id="DejaVuSans-29" d="M 513 4856 
L 1013 4856 
Q 1481 4119 1714 3412 
Q 1947 2706 1947 2009 
Q 1947 1309 1714 600 
Q 1481 -109 1013 -844 
L 513 -844 
Q 928 -128 1133 580 
Q 1338 1288 1338 2009 
Q 1338 2731 1133 3434 
Q 928 4138 513 4856 
z
" transform="scale(0.015625)"/>
      </defs>
      <use xlink:href="#DejaVuSans-54"/>
      <use xlink:href="#DejaVuSans-69" x="57.958984"/>
      <use xlink:href="#DejaVuSans-6d" x="85.742188"/>
      <use xlink:href="#DejaVuSans-65" x="183.154297"/>
      <use xlink:href="#DejaVuSans-20" x="244.677734"/>
      <use xlink:href="#DejaVuSans-28" x="276.464844"/>
      <use xlink:href="#DejaVuSans-73" x="315.478516"/>
      <use xlink:href="#DejaVuSans-65" x="367.578125"/>
      <use xlink:href="#DejaVuSans-63" x="429.101562"/>
      <use xlink:href="#DejaVuSans-6f" x="484.082031"/>
      <use xlink:href="#DejaVuSans-6e" x="545.263672"/>
      <use xlink:href="#DejaVuSans-64" x="608.642578"/>
      <use xlink:href="#DejaVuSans-73" x="672.119141"/>
      <use xlink:href="#DejaVuSans-29" x="724.21875"/>
     </g>
    </g>
   </g>
   <g id="matplotlib.axis_2">
    <g id="ytick_1">
     <g id="line2d_6">
      <defs>
       <path id="m6ae0783783" d="M 0 0 
L -3.5 0 
" style="stroke: #000000; stroke-width: 0.8"/>
      </defs>
      <g>
       <use xlink:href="#m6ae0783783" x="56.50625" y="261.216" style="stroke: #000000; stroke-width: 0.8"/>
      </g>
     </g>
     <g id="text_7">
      <!-- 0.000 -->
      <g transform="translate(20.878125 265.015219) scale(0.1 -0.1)">
       <defs>
        <path id="DejaVuSans-2e" d="M 684 794 
L 1344 794 
L 1344 0 
L 684 0 
L 684 794 
z
" transform="scale(0.015625)"/>
       </defs>
       <use xlink:href="#DejaVuSans-30"/>
       <use xlink:href="#DejaVuSans-2e" x="63.623047"/>
       <use xlink:href="#DejaVuSans-30" x="95.410156"/>
       <use xlink:href="#DejaVuSans-30" x="159.033203"/>
       <use xlink:href="#DejaVuSans-30" x="222.65625"/>
      </g>
     </g>
    </g>
    <g id="ytick_2">
     <g id="line2d_7">
      <g>
       <use xlink:href="#m6ae0783783" x="56.50625" y="227.631047" style="stroke: #000000; stroke-width: 0.8"/>
      </g>
     </g>
     <g id="text_8">
      <!-- 0.001 -->
      <g transform="translate(20.878125 231.430266) scale(0.1 -0.1)">
       <defs>
        <path id="DejaVuSans-31" d="M 794 531 
L 1825 531 
L 1825 4091 
L 703 3866 
L 703 4441 
L 1819 4666 
L 2450 4666 
L 2450 531 
L 3481 531 
L 3481 0 
L 794 0 
L 794 531 
z
" transform="scale(0.015625)"/>
       </defs>
       <use xlink:href="#DejaVuSans-30"/>
       <use xlink:href="#DejaVuSans-2e" x="63.623047"/>
       <use xlink:href="#DejaVuSans-30" x="95.410156"/>
       <use xlink:href="#DejaVuSans-30" x="159.033203"/>
       <use xlink:href="#DejaVuSans-31" x="222.65625"/>
      </g>
     </g>
    </g>
    <g id="ytick_3">
     <g id="line2d_8">
      <g>
       <use xlink:href="#m6ae0783783" x="56.50625" y="194.046094" style="stroke: #000000; stroke-width: 0.8"/>
      </g>
     </g>
     <g id="text_9">
      <!-- 0.002 -->
      <g transform="translate(20.878125 197.845313) scale(0.1 -0.1)">
       <use xlink:href="#DejaVuSans-30"/>
       <use xlink:href="#DejaVuSans-2e" x="63.623047"/>
       <use xlink:href="#DejaVuSans-30" x="95.410156"/>
       <use xlink:href="#DejaVuSans-30" x="159.033203"/>
       <use xlink:href="#DejaVuSans-32" x="222.65625"/>
      </g>
     </g>
    </g>
    <g id="ytick_4">
     <g id="line2d_9">
      <g>
       <use xlink:href="#m6ae0783783" x="56.50625" y="160.461141" style="stroke: #000000; stroke-width: 0.8"/>
      </g>
     </g>
     <g id="text_10">
      <!-- 0.003 -->
      <g transform="translate(20.878125 164.26036) scale(0.1 -0.1)">
       <defs>
        <path id="DejaVuSans-33" d="M 2597 2516 
Q 3050 2419 3304 2112 
Q 3559 1806 3559 1356 
Q 3559 666 3084 287 
Q 2609 -91 1734 -91 
Q 1441 -91 1130 -33 
Q 819 25 488 141 
L 488 750 
Q 750 597 1062 519 
Q 1375 441 1716 441 
Q 2309 441 2620 675 
Q 2931 909 2931 1356 
Q 2931 1769 2642 2001 
Q 2353 2234 1838 2234 
L 1294 2234 
L 1294 2753 
L 1863 2753 
Q 2328 2753 2575 2939 
Q 2822 3125 2822 3475 
Q 2822 3834 2567 4026 
Q 2313 4219 1838 4219 
Q 1578 4219 1281 4162 
Q 984 4106 628 3988 
L 628 4550 
Q 988 4650 1302 4700 
Q 1616 4750 1894 4750 
Q 2613 4750 3031 4423 
Q 3450 4097 3450 3541 
Q 3450 3153 3228 2886 
Q 3006 2619 2597 2516 
z
" transform="scale(0.015625)"/>
       </defs>
       <use xlink:href="#DejaVuSans-30"/>
       <use xlink:href="#DejaVuSans-2e" x="63.623047"/>
       <use xlink:href="#DejaVuSans-30" x="95.410156"/>
       <use xlink:href="#DejaVuSans-30" x="159.033203"/>
       <use xlink:href="#DejaVuSans-33" x="222.65625"/>
      </g>
     </g>
    </g>
    <g id="ytick_5">
     <g id="line2d_10">
      <g>
       <use xlink:href="#m6ae0783783" x="56.50625" y="126.876188" style="stroke: #000000; stroke-width: 0.8"/>
      </g>
     </g>
     <g id="text_11">
      <!-- 0.004 -->
      <g transform="translate(20.878125 130.675407) scale(0.1 -0.1)">
       <use xlink:href="#DejaVuSans-30"/>
       <use xlink:href="#DejaVuSans-2e" x="63.623047"/>
       <use xlink:href="#DejaVuSans-30" x="95.410156"/>
       <use xlink:href="#DejaVuSans-30" x="159.033203"/>
       <use xlink:href="#DejaVuSans-34" x="222.65625"/>
      </g>
     </g>
    </g>
    <g id="ytick_6">
     <g id="line2d_11">
      <g>
       <use xlink:href="#m6ae0783783" x="56.50625" y="93.291235" style="stroke: #000000; stroke-width: 0.8"/>
      </g>
     </g>
     <g id="text_12">
      <!-- 0.005 -->
      <g transform="translate(20.878125 97.090454) scale(0.1 -0.1)">
       <defs>
        <path id="DejaVuSans-35" d="M 691 4666 
L 3169 4666 
L 3169 4134 
L 1269 4134 
L 1269 2991 
Q 1406 3038 1543 3061 
Q 1681 3084 1819 3084 
Q 2600 3084 3056 2656 
Q 3513 2228 3513 1497 
Q 3513 744 3044 326 
Q 2575 -91 1722 -91 
Q 1428 -91 1123 -41 
Q 819 9 494 109 
L 494 744 
Q 775 591 1075 516 
Q 1375 441 1709 441 
Q 2250 441 2565 725 
Q 2881 1009 2881 1497 
Q 2881 1984 2565 2268 
Q 2250 2553 1709 2553 
Q 1456 2553 1204 2497 
Q 953 2441 691 2322 
L 691 4666 
z
" transform="scale(0.015625)"/>
       </defs>
       <use xlink:href="#DejaVuSans-30"/>
       <use xlink:href="#DejaVuSans-2e" x="63.623047"/>
       <use xlink:href="#DejaVuSans-30" x="95.410156"/>
       <use xlink:href="#DejaVuSans-30" x="159.033203"/>
       <use xlink:href="#DejaVuSans-35" x="222.65625"/>
      </g>
     </g>
    </g>
    <g id="ytick_7">
     <g id="line2d_12">
      <g>
       <use xlink:href="#m6ae0783783" x="56.50625" y="59.706282" style="stroke: #000000; stroke-width: 0.8"/>
      </g>
     </g>
     <g id="text_13">
      <!-- 0.006 -->
      <g transform="translate(20.878125 63.505501) scale(0.1 -0.1)">
       <use xlink:href="#DejaVuSans-30"/>
       <use xlink:href="#DejaVuSans-2e" x="63.623047"/>
       <use xlink:href="#DejaVuSans-30" x="95.410156"/>
       <use xlink:href="#DejaVuSans-30" x="159.033203"/>
       <use xlink:href="#DejaVuSans-36" x="222.65625"/>
      </g>
     </g>
    </g>
    <g id="ytick_8">
     <g id="line2d_13">
      <g>
       <use xlink:href="#m6ae0783783" x="56.50625" y="26.121329" style="stroke: #000000; stroke-width: 0.8"/>
      </g>
     </g>
     <g id="text_14">
      <!-- 0.007 -->
      <g transform="translate(20.878125 29.920548) scale(0.1 -0.1)">
       <defs>
        <path id="DejaVuSans-37" d="M 525 4666 
L 3525 4666 
L 3525 4397 
L 1831 0 
L 1172 0 
L 2766 4134 
L 525 4134 
L 525 4666 
z
" transform="scale(0.015625)"/>
       </defs>
       <use xlink:href="#DejaVuSans-30"/>
       <use xlink:href="#DejaVuSans-2e" x="63.623047"/>
       <use xlink:href="#DejaVuSans-30" x="95.410156"/>
       <use xlink:href="#DejaVuSans-30" x="159.033203"/>
       <use xlink:href="#DejaVuSans-37" x="222.65625"/>
      </g>
     </g>
    </g>
    <g id="text_15">
     <!-- Water (gallons) -->
     <g transform="translate(14.798437 178.377094) rotate(-90) scale(0.1 -0.1)">
      <defs>
       <path id="DejaVuSans-57" d="M 213 4666 
L 850 4666 
L 1831 722 
L 2809 4666 
L 3519 4666 
L 4500 722 
L 5478 4666 
L 6119 4666 
L 4947 0 
L 4153 0 
L 3169 4050 
L 2175 0 
L 1381 0 
L 213 4666 
z
" transform="scale(0.015625)"/>
       <path id="DejaVuSans-61" d="M 2194 1759 
Q 1497 1759 1228 1600 
Q 959 1441 959 1056 
Q 959 750 1161 570 
Q 1363 391 1709 391 
Q 2188 391 2477 730 
Q 2766 1069 2766 1631 
L 2766 1759 
L 2194 1759 
z
M 3341 1997 
L 3341 0 
L 2766 0 
L 2766 531 
Q 2569 213 2275 61 
Q 1981 -91 1556 -91 
Q 1019 -91 701 211 
Q 384 513 384 1019 
Q 384 1609 779 1909 
Q 1175 2209 1959 2209 
L 2766 2209 
L 2766 2266 
Q 2766 2663 2505 2880 
Q 2244 3097 1772 3097 
Q 1472 3097 1187 3025 
Q 903 2953 641 2809 
L 641 3341 
Q 956 3463 1253 3523 
Q 1550 3584 1831 3584 
Q 2591 3584 2966 3190 
Q 3341 2797 3341 1997 
z
" transform="scale(0.015625)"/>
       <path id="DejaVuSans-74" d="M 1172 4494 
L 1172 3500 
L 2356 3500 
L 2356 3053 
L 1172 3053 
L 1172 1153 
Q 1172 725 1289 603 
Q 1406 481 1766 481 
L 2356 481 
L 2356 0 
L 1766 0 
Q 1100 0 847 248 
Q 594 497 594 1153 
L 594 3053 
L 172 3053 
L 172 3500 
L 594 3500 
L 594 4494 
L 1172 4494 
z
" transform="scale(0.015625)"/>
       <path id="DejaVuSans-72" d="M 2631 2963 
Q 2534 3019 2420 3045 
Q 2306 3072 2169 3072 
Q 1681 3072 1420 2755 
Q 1159 2438 1159 1844 
L 1159 0 
L 581 0 
L 581 3500 
L 1159 3500 
L 1159 2956 
Q 1341 3275 1631 3429 
Q 1922 3584 2338 3584 
Q 2397 3584 2469 3576 
Q 2541 3569 2628 3553 
L 2631 2963 
z
" transform="scale(0.015625)"/>
       <path id="DejaVuSans-67" d="M 2906 1791 
Q 2906 2416 2648 2759 
Q 2391 3103 1925 3103 
Q 1463 3103 1205 2759 
Q 947 2416 947 1791 
Q 947 1169 1205 825 
Q 1463 481 1925 481 
Q 2391 481 2648 825 
Q 2906 1169 2906 1791 
z
M 3481 434 
Q 3481 -459 3084 -895 
Q 2688 -1331 1869 -1331 
Q 1566 -1331 1297 -1286 
Q 1028 -1241 775 -1147 
L 775 -588 
Q 1028 -725 1275 -790 
Q 1522 -856 1778 -856 
Q 2344 -856 2625 -561 
Q 2906 -266 2906 331 
L 2906 616 
Q 2728 306 2450 153 
Q 2172 0 1784 0 
Q 1141 0 747 490 
Q 353 981 353 1791 
Q 353 2603 747 3093 
Q 1141 3584 1784 3584 
Q 2172 3584 2450 3431 
Q 2728 3278 2906 2969 
L 2906 3500 
L 3481 3500 
L 3481 434 
z
" transform="scale(0.015625)"/>
       <path id="DejaVuSans-6c" d="M 603 4863 
L 1178 4863 
L 1178 0 
L 603 0 
L 603 4863 
z
" transform="scale(0.015625)"/>
      </defs>
      <use xlink:href="#DejaVuSans-57"/>
      <use xlink:href="#DejaVuSans-61" x="92.501953"/>
      <use xlink:href="#DejaVuSans-74" x="153.78125"/>
      <use xlink:href="#DejaVuSans-65" x="192.990234"/>
      <use xlink:href="#DejaVuSans-72" x="254.513672"/>
      <use xlink:href="#DejaVuSans-20" x="295.626953"/>
      <use xlink:href="#DejaVuSans-28" x="327.414062"/>
      <use xlink:href="#DejaVuSans-67" x="366.427734"/>
      <use xlink:href="#DejaVuSans-61" x="429.904297"/>
      <use xlink:href="#DejaVuSans-6c" x="491.183594"/>
      <use xlink:href="#DejaVuSans-6c" x="518.966797"/>
      <use xlink:href="#DejaVuSans-6f" x="546.75"/>
      <use xlink:href="#DejaVuSans-6e" x="607.931641"/>
      <use xlink:href="#DejaVuSans-73" x="671.310547"/>
      <use xlink:href="#DejaVuSans-29" x="723.410156"/>
     </g>
    </g>
   </g>
   <g id="line2d_14">
    <path d="M 72.738977 261.216 
L 73.61826 261.216 
L 73.730989 215.80168 
L 73.885051 215.80168 
L 73.99778 261.216 
L 75.602283 261.216 
L 75.730042 192.348188 
L 75.823983 192.348188 
L 75.936711 202.79684 
L 76.008106 202.79684 
L 76.026894 194.027436 
L 76.030652 237.650558 
L 76.102047 237.650558 
L 76.184714 237.650558 
L 76.304958 261.216 
L 76.549203 261.216 
L 76.613083 213.879875 
L 76.661932 241.736727 
L 76.973814 241.736727 
L 77.045209 261.216 
L 77.048967 217.611536 
L 77.082785 237.594583 
L 77.086543 237.594583 
L 77.199271 261.216 
L 77.428486 261.216 
L 77.541215 260.469668 
L 77.650186 260.469668 
L 77.762914 261.216 
L 77.856855 261.216 
L 77.969583 228.302746 
L 78.146191 228.302746 
L 78.25892 261.216 
L 78.285223 261.216 
L 78.304011 253.845969 
L 78.394194 258.118721 
L 78.465589 258.118721 
L 78.484377 257.838846 
L 78.57456 258.118721 
L 78.664743 258.118721 
L 78.713592 261.216 
L 78.739895 237.911774 
L 78.751168 237.911774 
L 78.800017 237.911774 
L 78.912746 261.216 
L 78.916503 261.216 
L 78.935291 243.957066 
L 79.025474 261.216 
L 79.029232 261.216 
L 79.115657 254.27511 
L 79.138203 261.216 
L 79.164506 261.216 
L 79.250931 253.192928 
L 79.273477 261.216 
L 79.4576 261.216 
L 79.544026 242.874884 
L 79.566571 261.216 
L 79.592875 261.216 
L 79.634209 251.756238 
L 79.701846 260.469668 
L 79.792029 260.469668 
L 79.885969 261.216 
L 79.904757 240.990395 
L 79.99494 261.216 
L 80.066335 261.216 
L 80.179063 238.079699 
L 80.220397 238.079699 
L 80.333126 261.216 
L 80.494703 261.216 
L 80.607432 244.199624 
L 80.765252 244.199624 
L 80.78404 211.416978 
L 80.810343 261.216 
L 80.874223 261.216 
L 80.923072 261.216 
L 81.035801 255.879724 
L 81.189863 255.879724 
L 81.193621 261.216 
L 81.197378 234.385354 
L 81.283803 234.385354 
L 81.685869 234.385354 
L 81.798597 261.216 
L 83.854015 261.216 
L 83.872803 255.338633 
L 83.962986 261.216 
L 84.304929 261.216 
L 84.428931 237.389342 
L 84.436446 237.389342 
L 84.560447 261.216 
L 84.846026 261.216 
L 84.864815 241.139661 
L 84.954997 261.216 
L 85.432215 261.216 
L 85.544944 252.334646 
L 85.947009 252.334646 
L 86.059738 261.216 
L 87.754424 261.216 
L 87.863395 260.488326 
L 87.976123 261.216 
L 88.182792 261.216 
L 88.295521 236.960201 
L 88.427038 236.960201 
L 88.539766 261.216 
L 90.730458 261.216 
L 90.749246 260.637592 
L 90.839429 261.216 
L 90.978461 261.216 
L 90.997249 260.618934 
L 91.087432 261.216 
L 92.398841 261.216 
L 92.507812 212.088677 
L 92.620541 261.216 
L 93.120304 261.216 
L 93.139092 260.618934 
L 93.229275 261.216 
L 93.571218 261.216 
L 93.635098 254.16316 
L 93.680189 261.216 
L 93.999587 261.216 
L 94.086012 238.50884 
L 94.108558 261.216 
L 100.267296 261.216 
L 100.286084 222.481354 
L 100.376267 261.216 
L 106.196819 261.216 
L 106.215607 252.913053 
L 106.30579 261.216 
L 106.647733 261.216 
L 106.689067 248.602984 
L 106.756704 261.216 
L 109.961954 261.216 
L 110.074682 241.736727 
L 110.161107 241.736727 
L 110.273836 261.216 
L 111.449971 261.216 
L 111.468759 260.171135 
L 111.558942 261.216 
L 113.140899 261.216 
L 113.253628 239.964188 
L 113.56551 239.964188 
L 113.678239 261.216 
L 115.98166 261.216 
L 116.000448 253.566094 
L 116.090631 261.216 
L 116.410028 261.216 
L 116.428816 256.831298 
L 116.518999 261.216 
L 118.461688 261.216 
L 118.548114 236.904226 
L 118.570659 261.216 
L 119.904614 261.216 
L 120.017343 247.184953 
L 120.058676 247.184953 
L 120.171405 261.216 
L 120.964263 261.216 
L 121.076991 249.927724 
L 121.095779 249.927724 
L 121.208508 261.216 
L 123.263926 261.216 
L 123.282714 257.223122 
L 123.372897 261.216 
L 124.391211 261.216 
L 124.41 246.830445 
L 124.500182 261.216 
L 127.02906 261.216 
L 127.141789 238.117016 
L 127.318397 238.117016 
L 127.3447 261.216 
L 127.348458 237.29605 
L 127.427368 237.29605 
L 127.773069 237.29605 
L 127.88204 223.843411 
L 127.998526 261.216 
L 129.215995 261.216 
L 129.328723 239.348464 
L 129.46024 239.348464 
L 129.572968 261.216 
L 131.425475 261.216 
L 131.538203 237.501292 
L 131.782449 237.501292 
L 131.895177 261.216 
L 133.634955 261.216 
L 133.747683 230.168577 
L 134.104657 230.168577 
L 134.217386 261.216 
L 135.821889 261.216 
L 135.942133 214.887423 
L 136.021043 214.887423 
L 136.133772 230.821618 
L 136.156317 230.821618 
L 136.205166 261.216 
L 136.208924 228.078846 
L 136.265288 228.078846 
L 136.652323 228.078846 
L 136.765052 261.216 
L 138.392101 261.216 
L 138.504829 233.284514 
L 138.591255 233.284514 
L 138.703983 261.216 
L 139.835027 261.216 
L 139.947755 260.469668 
L 140.128121 260.469668 
L 140.169455 212.704401 
L 140.237092 260.469668 
L 140.372366 260.469668 
L 140.485095 261.216 
L 140.579035 261.216 
L 140.703037 206.155335 
L 140.778189 206.155335 
L 140.894675 232.463549 
L 140.9811 232.463549 
L 141.093829 261.216 
L 141.120132 261.216 
L 141.232861 242.128552 
L 141.319286 242.128552 
L 141.432015 261.216 
L 141.548501 261.216 
L 141.567289 255.711799 
L 141.657472 261.216 
L 141.66123 261.216 
L 141.680018 227.631047 
L 141.7702 261.216 
L 142.315055 261.216 
L 142.427784 225.933141 
L 142.811061 225.933141 
L 142.92379 200.744426 
L 143.171792 200.744426 
L 143.213126 184.474382 
L 143.216884 209.663097 
L 143.280763 208.935423 
L 143.348401 208.935423 
L 143.352158 209.663097 
L 143.370946 161.561981 
L 143.442341 261.216 
L 143.457372 261.216 
L 143.667798 261.216 
L 143.709132 260.488326 
L 143.776769 261.216 
L 143.780527 261.216 
L 143.893255 239.385781 
L 143.957135 239.385781 
L 144.069863 261.216 
L 144.073621 261.216 
L 144.18635 246.737154 
L 144.50199 246.737154 
L 144.565869 237.874458 
L 144.569627 252.353304 
L 144.607203 252.353304 
L 144.610961 252.353304 
L 144.637264 261.216 
L 144.641022 225.16815 
L 144.708659 225.16815 
L 145.674367 225.16815 
L 145.787095 204.270846 
L 145.828429 204.270846 
L 145.941158 225.16815 
L 146.688924 225.16815 
L 146.801653 203.823047 
L 146.865532 203.823047 
L 146.978261 239.870897 
L 147.045898 239.870897 
L 147.158626 261.216 
L 147.568207 261.216 
L 147.586995 232.985981 
L 147.680936 236.941542 
L 147.880089 236.941542 
L 147.992818 261.216 
L 147.996576 261.216 
L 148.015364 229.235661 
L 148.105547 261.216 
L 148.109304 261.216 
L 148.222033 217.835436 
L 148.808221 217.835436 
L 148.92095 217.107762 
L 148.962284 217.107762 
L 149.075012 217.835436 
L 149.777687 217.835436 
L 149.890416 193.225129 
L 150.067024 193.225129 
L 150.179752 217.835436 
L 150.269935 217.835436 
L 150.382664 261.216 
L 151.355887 261.216 
L 151.468616 246.849103 
L 151.513707 246.849103 
L 151.626436 205.912777 
L 151.645224 205.912777 
L 151.757952 220.279674 
L 151.806802 220.279674 
L 151.91953 200.054069 
L 151.987167 200.054069 
L 152.099896 171.786734 
L 152.14123 171.786734 
L 152.23517 192.012339 
L 152.238928 168.913354 
L 152.250201 168.913354 
L 152.276504 168.913354 
L 152.39299 220.279674 
L 152.888996 220.279674 
L 153.001724 210.428088 
L 153.08815 210.428088 
L 153.200878 220.279674 
L 153.317364 220.279674 
L 153.336153 211.211737 
L 153.426335 220.279674 
L 153.723187 220.279674 
L 153.787067 163.875611 
L 153.832158 204.811937 
L 153.959917 261.216 
L 154.196647 261.216 
L 154.309376 215.652414 
L 154.418347 215.652414 
L 154.538591 261.216 
L 154.625016 261.216 
L 154.643804 249.367975 
L 154.733987 261.216 
L 154.873019 261.216 
L 154.985747 231.2321 
L 155.07593 231.2321 
L 155.188659 201.285517 
L 155.229993 201.285517 
L 155.342721 231.2321 
L 155.504299 231.2321 
L 155.526845 230.485768 
L 155.568178 203.711097 
L 155.571936 260.469668 
L 155.632058 260.469668 
L 155.974001 260.469668 
L 156.08673 261.216 
L 156.135579 261.216 
L 156.24455 247.87531 
L 156.248307 261.216 
L 156.297157 220.746132 
L 156.346006 220.746132 
L 156.357278 220.746132 
L 156.383582 261.216 
L 156.470007 239.348464 
L 156.541402 239.348464 
L 156.627827 154.397191 
L 156.65413 176.264727 
L 156.672918 176.264727 
L 156.785647 194.904376 
L 156.920921 194.904376 
L 157.014862 226.231674 
L 157.03365 216.846545 
L 157.146378 226.231674 
L 158.07451 226.231674 
L 158.183481 213.394759 
L 158.29621 226.231674 
L 158.345059 226.231674 
L 158.457788 202.050508 
L 158.525425 202.050508 
L 158.61185 158.072878 
L 158.645669 170.704552 
L 158.792216 170.704552 
L 158.904944 194.885718 
L 158.92749 194.885718 
L 158.953793 261.216 
L 159.043976 250.935273 
L 159.130401 250.935273 
L 159.24313 261.216 
L 159.314525 261.216 
L 159.434769 226.007774 
L 159.468587 226.007774 
L 159.581316 261.216 
L 159.742893 261.216 
L 159.761681 255.282658 
L 159.851864 261.216 
L 160.441811 261.216 
L 160.554539 238.900665 
L 160.595873 238.900665 
L 160.622176 261.216 
L 160.625934 232.109041 
L 160.704844 232.109041 
L 161.182062 232.109041 
L 161.29479 261.216 
L 161.636733 261.216 
L 161.75322 219.831875 
L 161.880979 219.831875 
L 161.993707 237.482633 
L 162.065102 237.482633 
L 162.151527 223.07842 
L 162.174073 237.482633 
L 162.493471 237.482633 
L 162.512259 188.46726 
L 162.606199 215.969605 
L 162.921839 215.969605 
L 163.008264 198.934571 
L 163.012022 220.447599 
L 163.03081 220.447599 
L 163.395299 220.447599 
L 163.414087 196.303749 
L 163.440391 231.978433 
L 163.50427 231.978433 
L 163.639545 231.978433 
L 163.752273 249.013467 
L 163.823668 249.013467 
L 163.842456 248.360426 
L 163.932639 249.013467 
L 164.252036 249.013467 
L 164.338462 219.272125 
L 164.361007 249.013467 
L 165.217745 249.013467 
L 165.330473 261.216 
L 165.649871 261.216 
L 165.71375 247.726044 
L 165.758842 261.216 
L 165.920419 261.216 
L 165.939207 228.713229 
L 166.02939 261.216 
L 166.100785 261.216 
L 166.164665 224.048652 
L 166.217271 241.04637 
L 166.254848 241.04637 
L 166.367576 261.216 
L 166.529154 261.216 
L 166.64564 205.838144 
L 166.66067 205.838144 
L 166.777157 261.216 
L 166.957522 261.216 
L 167.089039 238.714082 
L 167.201768 261.216 
L 167.408437 261.216 
L 167.521165 240.897103 
L 167.562499 240.897103 
L 167.675228 261.216 
L 167.836805 261.216 
L 167.949534 232.836715 
L 167.968322 232.836715 
L 168.08105 261.216 
L 168.084808 261.216 
L 168.103596 241.699411 
L 168.193779 261.216 
L 168.265174 261.216 
L 168.329053 200.408577 
L 168.385418 209.495172 
L 168.39669 209.495172 
L 168.52445 250.021016 
L 168.577056 250.021016 
L 168.689785 261.216 
L 168.738634 261.216 
L 168.779968 219.66395 
L 168.851362 242.968176 
L 168.960333 242.968176 
L 169.073062 261.216 
L 169.167002 261.216 
L 169.185791 257.279097 
L 169.275973 261.216 
L 169.324822 261.216 
L 169.388702 255.618508 
L 169.433793 261.216 
L 169.572825 261.216 
L 169.659251 246.77447 
L 169.681796 261.216 
L 170.361925 261.216 
L 170.482169 191.433931 
L 170.515988 191.433931 
L 170.519745 235.038395 
L 170.624959 203.78573 
L 170.651262 203.78573 
L 170.745203 261.216 
L 170.763991 250.207599 
L 170.857931 250.207599 
L 170.944356 228.097505 
L 170.966902 250.207599 
L 171.038297 250.207599 
L 171.147268 235.747411 
L 171.263754 261.216 
L 171.308845 261.216 
L 171.436604 243.154759 
L 171.489211 243.154759 
L 171.553091 215.111323 
L 171.598182 218.749693 
L 171.710911 246.793129 
L 171.804851 246.793129 
L 171.921337 211.081129 
L 171.936368 211.081129 
L 172.049096 225.504 
L 172.094188 225.504 
L 172.120491 238.434207 
L 172.203159 225.970458 
L 172.345948 225.970458 
L 172.364736 219.999799 
L 172.368494 242.781592 
L 172.443646 242.781592 
L 172.571405 242.781592 
L 172.635285 210.204188 
L 172.684134 224.048652 
L 172.702922 224.048652 
L 172.815651 236.512401 
L 172.838196 236.512401 
L 172.950925 261.216 
L 173.02232 261.216 
L 173.131291 243.527925 
L 173.135048 245.188514 
L 173.157594 245.188514 
L 173.198928 220.447599 
L 173.266565 245.188514 
L 173.315414 245.188514 
L 173.405597 227.071298 
L 173.492022 205.912777 
L 173.514568 221.940263 
L 173.537114 221.940263 
L 173.585963 243.098784 
L 173.58972 209.364564 
L 173.646085 227.481781 
L 173.920391 227.481781 
L 174.033119 251.96148 
L 174.194697 251.96148 
L 174.236031 231.903799 
L 174.307426 241.15832 
L 174.375063 241.15832 
L 174.487791 233.377806 
L 174.532883 233.377806 
L 174.574217 220.130408 
L 174.577974 247.968602 
L 174.638096 247.968602 
L 174.732037 247.968602 
L 174.780886 261.216 
L 174.829735 228.899812 
L 174.83725 228.899812 
L 174.844765 228.899812 
L 175.047677 261.216 
L 175.141617 261.216 
L 175.160405 258.56652 
L 175.250588 261.216 
L 175.412166 261.216 
L 175.430954 245.56168 
L 175.521137 261.216 
L 175.86308 261.216 
L 175.904414 244.834006 
L 175.972051 261.216 
L 176.088537 261.216 
L 176.197508 249.498583 
L 176.310237 261.216 
L 176.359086 261.216 
L 176.471814 254.517668 
L 176.49436 254.517668 
L 176.513148 254.405718 
L 176.539451 254.517668 
L 176.625877 234.590596 
L 176.648422 254.517668 
L 176.761151 254.517668 
L 176.813758 253.864627 
L 176.87388 261.216 
L 176.990366 261.216 
L 177.106852 211.099787 
L 177.121882 211.099787 
L 177.234611 231.026859 
L 177.238369 231.026859 
L 177.351097 211.976727 
L 177.369885 211.976727 
L 177.486371 261.216 
L 177.576554 261.216 
L 177.689283 242.688301 
L 177.779466 242.688301 
L 177.798254 223.880727 
L 177.888437 242.408426 
L 178.023711 242.408426 
L 178.117651 261.216 
L 178.132682 247.035687 
L 178.523474 247.035687 
L 178.564808 214.682182 
L 178.632445 238.023724 
L 178.658749 238.023724 
L 178.722628 223.209028 
L 178.76772 223.955361 
L 178.887963 246.401304 
L 178.92554 246.401304 
L 178.974389 261.216 
L 178.978146 238.154332 
L 179.034511 238.154332 
L 179.109663 238.154332 
L 179.128451 237.370683 
L 179.1773 260.432351 
L 179.203603 213.71195 
L 179.233664 213.71195 
L 179.263725 213.71195 
L 179.267483 216.002708 
L 179.271241 201.214495 
L 179.312574 201.214495 
L 179.376454 155.910922 
L 179.421545 168.442082 
L 179.425303 222.430796 
L 179.530516 169.958821 
L 179.538032 169.958821 
L 179.55682 169.218508 
L 179.673306 234.582771 
L 179.718397 234.582771 
L 179.842399 167.900389 
L 179.849914 167.900389 
L 179.9664 218.133367 
L 180.052825 218.133367 
L 180.056583 234.582771 
L 180.161796 223.550295 
L 180.165554 223.550295 
L 180.278283 235.323085 
L 180.530043 235.323085 
L 180.646529 210.026031 
L 180.732954 210.026031 
L 180.845683 191.265404 
L 180.999745 191.265404 
L 181.07114 235.323085 
L 181.116232 223.496125 
L 181.138777 223.496125 
L 181.251506 182.724715 
L 181.29284 182.724715 
L 181.341689 213.799824 
L 181.390538 154.50252 
L 181.398053 154.50252 
L 181.405568 154.50252 
L 181.409326 189.351423 
L 181.514539 162.989041 
L 181.563388 162.989041 
L 181.612237 184.56647 
L 181.661086 121.675937 
L 181.664844 121.675937 
L 181.676117 121.675937 
L 181.822664 218.711172 
L 181.837695 218.711172 
L 181.901574 211.109417 
L 181.905332 241.787285 
L 181.935393 241.787285 
L 181.972969 241.787285 
L 181.991757 215.226282 
L 182.063152 249.389041 
L 182.08194 249.389041 
L 182.085697 249.389041 
L 182.202184 215.587411 
L 182.23976 215.587411 
L 182.367519 240.216376 
L 182.514066 240.216376 
L 182.63431 186.679072 
L 182.690674 186.679072 
L 182.762069 207.877317 
L 182.780857 152.137129 
L 182.87104 204.753555 
L 182.919889 260.493743 
L 182.980011 209.971862 
L 183.010072 209.971862 
L 183.175407 158.258257 
L 183.18668 158.258257 
L 183.194195 146.738257 
L 183.336985 195.671172 
L 183.460986 195.671172 
L 183.524866 129.945781 
L 183.569957 195.671172 
L 183.592503 195.671172 
L 183.705231 210.694119 
L 183.889355 210.694119 
L 183.930688 168.676815 
L 184.002083 179.619009 
L 184.111054 179.619009 
L 184.238813 210.694119 
L 184.250086 210.694119 
L 184.362815 155.098382 
L 184.516877 155.098382 
L 184.629606 210.694119 
L 184.674697 210.694119 
L 184.787426 261.216 
L 185.01664 261.216 
L 185.129369 239.963586 
L 185.354826 239.963586 
L 185.467555 217.230545 
L 185.55398 217.230545 
L 185.666709 239.963586 
L 185.986106 239.963586 
L 186.098835 213.691486 
L 186.117623 207.028665 
L 186.207806 213.691486 
L 186.252897 213.691486 
L 186.256655 239.963586 
L 186.361868 215.009605 
L 186.414475 215.009605 
L 186.482112 216.129103 
L 186.534719 178.264777 
L 186.591083 178.264777 
L 186.703811 189.441705 
L 186.748903 189.441705 
L 186.752661 227.306031 
L 186.778964 151.739887 
L 186.854116 151.739887 
L 186.865389 151.739887 
L 186.978118 143.325592 
L 186.996906 143.325592 
L 187.109634 164.397442 
L 187.13218 164.397442 
L 187.158483 189.008351 
L 187.207332 125.377505 
L 187.237393 146.629918 
L 187.293758 146.629918 
L 187.312546 134.261266 
L 187.402729 146.629918 
L 187.425274 146.629918 
L 187.541761 240.071925 
L 187.628186 240.071925 
L 187.740914 261.216 
L 187.947583 261.216 
L 188.034009 194.858633 
L 188.060312 227.360201 
L 188.330861 227.360201 
L 188.45862 181.33437 
L 188.466135 181.33437 
L 188.575106 140.725467 
L 188.578863 160.948665 
L 188.597652 160.948665 
L 188.71038 178.914809 
L 188.845654 178.914809 
L 188.871958 217.393053 
L 188.958383 206.053618 
L 189.02602 206.053618 
L 189.142506 255.835185 
L 189.319114 255.835185 
L 189.390509 261.216 
L 189.349175 239.205216 
L 189.428085 255.401831 
L 189.454389 255.401831 
L 189.480692 261.216 
L 189.567117 260.475687 
L 189.593421 260.475687 
L 189.709907 198.469918 
L 189.747483 198.469918 
L 189.773786 199.210232 
L 189.777544 182.977505 
L 189.882757 182.977505 
L 189.995486 229.238069 
L 190.066881 229.238069 
L 190.179609 188.737505 
L 190.333672 188.737505 
L 190.4464 229.238069 
L 190.653069 229.238069 
L 190.716949 207.768978 
L 190.76204 229.238069 
L 191.081438 229.238069 
L 191.194166 227.179636 
L 191.2355 227.179636 
L 191.348229 259.157567 
L 191.554898 259.157567 
L 191.641323 233.788288 
L 191.667626 235.846721 
L 191.735264 235.846721 
L 191.776597 176.260514 
L 191.844235 235.846721 
L 192.0246 235.846721 
L 192.137329 261.216 
L 192.141087 261.216 
L 192.204966 200.961705 
L 192.253815 215.948539 
L 192.452969 215.948539 
L 192.501818 223.730859 
L 192.505576 208.581517 
L 192.558182 208.581517 
L 192.678426 208.581517 
L 192.791155 261.216 
L 193.561467 261.216 
L 193.625346 252.566972 
L 193.670438 261.216 
L 193.696741 261.216 
L 193.783166 228.894997 
L 193.809469 232.741016 
L 194.012381 232.741016 
L 194.125109 221.780765 
L 194.143898 220.372364 
L 194.147655 232.741016 
L 194.166443 232.741016 
L 194.279172 261.216 
L 194.440749 261.216 
L 194.482083 249.226533 
L 194.54972 250.309918 
L 194.662449 261.216 
L 195.004392 261.216 
L 195.02318 257.514433 
L 195.113363 261.216 
L 195.342578 261.216 
L 195.455307 226.818508 
L 195.477852 226.818508 
L 195.519186 176.025781 
L 195.590581 199.679699 
L 195.722098 199.679699 
L 195.834826 226.818508 
L 195.928767 226.818508 
L 196.052768 186.606846 
L 196.109132 186.606846 
L 196.127921 183.60948 
L 196.218103 186.606846 
L 196.244407 186.606846 
L 196.285741 150.150922 
L 196.289498 194.750295 
L 196.353378 194.750295 
L 196.469864 194.750295 
L 196.533743 176.116063 
L 196.560047 231.206219 
L 196.57132 231.206219 
L 196.65023 231.206219 
L 196.766716 186.769354 
L 196.781746 186.769354 
L 196.875687 213.61926 
L 196.879444 161.057003 
L 196.88696 161.057003 
L 196.898232 161.057003 
L 197.010961 147.659135 
L 197.056052 147.659135 
L 197.074841 127.47205 
L 197.146235 193.432176 
L 197.157508 193.432176 
L 197.191327 193.432176 
L 197.210115 193.305781 
L 197.258964 193.432176 
L 197.326601 211.019135 
L 197.367935 161.52647 
L 197.480663 211.940013 
L 197.506967 211.940013 
L 197.570846 194.353053 
L 197.574604 213.61926 
L 197.61218 213.61926 
L 197.615938 213.61926 
L 197.619695 231.206219 
L 197.69109 205.674433 
L 197.724909 205.674433 
L 197.845153 205.674433 
L 197.931578 194.768351 
L 197.957881 198.036564 
L 197.976669 198.036564 
L 198.048064 231.206219 
L 198.089398 222.936376 
L 198.111944 222.936376 
L 198.224672 231.206219 
L 198.38625 231.206219 
L 198.502736 154.24973 
L 198.521524 154.24973 
L 198.562858 100.044339 
L 198.630495 154.24973 
L 198.720678 154.24973 
L 198.833406 231.206219 
L 198.949893 231.206219 
L 199.085167 166.979511 
L 199.194138 166.979511 
L 199.306866 176.78415 
L 199.329412 176.78415 
L 199.378261 206.793931 
L 199.438383 183.916439 
L 199.49099 183.916439 
L 199.513535 184.458132 
L 199.622506 19.296 
L 199.738993 139.389292 
L 199.780326 139.389292 
L 199.874267 159.395812 
L 199.878025 136.825279 
L 199.889297 136.825279 
L 200.054633 136.825279 
L 200.141058 124.546909 
L 200.163604 136.825279 
L 200.167361 136.825279 
L 200.276332 128.356815 
L 200.389061 159.395812 
L 200.501789 159.395812 
L 200.614518 181.930232 
L 200.640821 181.930232 
L 200.749792 145.943774 
L 200.866278 223.766972 
L 200.956461 223.766972 
L 201.020341 206.59531 
L 201.065432 223.766972 
L 201.22701 223.766972 
L 201.290889 195.978132 
L 201.335981 223.766972 
L 201.407376 223.766972 
L 201.493801 204.482708 
L 201.516347 223.766972 
L 201.587741 223.766972 
L 201.606529 221.943273 
L 201.696712 223.766972 
L 201.813198 223.766972 
L 201.854532 174.599323 
L 201.925927 201.322834 
L 202.012352 201.322834 
L 202.01611 238.771862 
L 202.087505 166.311423 
L 202.117566 166.311423 
L 202.128838 166.311423 
L 202.241567 145.528476 
L 202.327992 145.528476 
L 202.444478 235.973116 
L 202.448236 216.598571 
L 202.485812 216.598571 
L 202.493328 208.455122 
L 202.598541 235.973116 
L 202.737573 235.973116 
L 202.778907 214.160953 
L 202.846544 235.973116 
L 202.895393 235.973116 
L 202.914181 209.249605 
L 202.96303 261.216 
L 203.000606 261.216 
L 203.323761 261.216 
L 203.342549 253.794809 
L 203.432732 261.216 
L 203.59431 261.216 
L 203.707039 246.373618 
L 203.75213 246.373618 
L 203.838555 216.038821 
L 203.861101 230.881204 
L 203.97383 261.216 
L 204.045224 261.216 
L 204.154195 241.245592 
L 204.248136 261.216 
L 204.251893 227.16158 
L 204.259409 227.16158 
L 204.28947 227.16158 
L 204.360864 261.216 
L 204.398441 240.252489 
L 204.473593 240.252489 
L 204.514927 223.87531 
L 204.586321 232.416 
L 204.695292 232.416 
L 204.819294 261.216 
L 204.992144 261.216 
L 205.033478 245.109668 
L 205.101115 254.318445 
L 205.240147 254.318445 
L 205.304027 203.254871 
L 205.352876 210.152426 
L 205.420513 210.152426 
L 205.484392 200.239448 
L 205.48815 251.303022 
L 205.514453 251.303022 
L 205.533242 251.303022 
L 205.64597 238.699636 
L 205.687304 238.699636 
L 205.800032 248.612614 
L 205.845124 248.612614 
L 205.848882 261.216 
L 205.957852 256.954683 
L 205.96161 256.954683 
L 206.078096 229.526972 
L 206.115672 229.526972 
L 206.228401 252.079448 
L 206.250947 252.079448 
L 206.299796 261.216 
L 206.359918 252.566972 
L 206.389979 252.566972 
L 206.506465 192.890483 
L 206.521495 192.890483 
L 206.615436 201.539511 
L 206.619193 180.142646 
L 206.626709 180.142646 
L 206.634224 180.142646 
L 206.728164 205.204966 
L 206.731922 179.239824 
L 206.743195 179.239824 
L 206.746953 179.239824 
L 206.840893 226.601831 
L 206.859681 210.423273 
L 206.949864 210.423273 
L 207.021259 226.601831 
L 207.047562 175.592426 
L 207.05132 175.592426 
L 207.088896 175.592426 
L 207.107684 160.948665 
L 207.201624 163.404339 
L 207.242958 163.404339 
L 207.370717 226.601831 
L 207.404536 226.601831 
L 207.490961 185.613743 
L 207.513507 226.601831 
L 207.517264 226.601831 
L 207.626235 189.225028 
L 207.633751 195.147536 
L 207.648781 195.147536 
L 207.652539 213.61926 
L 207.701388 171.042207 
L 207.753994 184.042834 
L 207.76151 184.042834 
L 207.85545 231.639574 
L 207.874238 212.897003 
L 207.923087 212.897003 
L 207.968179 231.639574 
L 208.039574 191.554307 
L 208.054604 191.554307 
L 208.148545 219.88484 
L 208.17109 213.727599 
L 208.257515 213.727599 
L 208.351456 231.639574 
L 208.287576 198.596313 
L 208.366486 218.494495 
L 208.370244 218.494495 
L 208.396547 231.639574 
L 208.445396 204.500765 
L 208.475457 207.137003 
L 208.576913 207.137003 
L 208.685884 154.014997 
L 208.689642 154.791423 
L 208.734733 154.791423 
L 208.821158 139.551799 
L 208.843704 154.592803 
L 208.847462 154.592803 
L 208.888796 138.847599 
L 208.937645 185.108163 
L 208.948917 185.108163 
L 208.956433 185.108163 
L 209.050373 194.334997 
L 209.009039 184.11506 
L 209.069161 189.586157 
L 209.163102 194.334997 
L 209.166859 183.970608 
L 209.174375 183.970608 
L 209.208193 183.970608 
L 209.320922 149.934245 
L 209.456196 149.934245 
L 209.520076 121.766219 
L 209.546379 155.838696 
L 209.561409 155.838696 
L 209.565167 155.838696 
L 209.59147 194.334997 
L 209.677896 167.214245 
L 209.704199 167.214245 
L 209.745533 147.78553 
L 209.81317 167.214245 
L 209.862019 230.538132 
L 209.888322 124.023273 
L 209.925898 187.365216 
L 209.929656 188.466658 
L 209.933414 163.80158 
L 209.997293 181.58716 
L 210.113779 158.384652 
L 210.173901 158.384652 
L 210.290387 261.216 
L 210.358025 261.216 
L 210.421904 253.126721 
L 210.466996 261.216 
L 210.470753 261.216 
L 210.579724 175.122959 
L 210.590997 207.028665 
L 210.624816 207.028665 
L 210.737544 231.946533 
L 210.899122 231.946533 
L 211.008093 183.194182 
L 211.015608 195.364213 
L 211.07573 195.364213 
L 211.192216 231.946533 
L 211.395128 231.946533 
L 211.436461 206.974495 
L 211.504099 231.946533 
L 211.552948 231.946533 
L 211.665676 183.790044 
L 211.842284 183.790044 
L 211.955013 194.587787 
L 212.071499 194.587787 
L 212.112833 172.197818 
L 212.18047 194.587787 
L 212.293199 194.587787 
L 212.364593 223.857254 
L 212.405927 211.506658 
L 212.499868 223.857254 
L 212.503625 211.326094 
L 212.514898 211.326094 
L 212.541201 211.326094 
L 212.65393 223.857254 
L 212.901933 223.857254 
L 212.973328 261.216 
L 213.010904 228.353304 
L 213.104844 228.353304 
L 213.108602 261.216 
L 213.213815 228.714433 
L 213.330301 228.714433 
L 213.44303 235.792552 
L 213.627153 235.792552 
L 213.736124 167.557317 
L 213.739882 209.827411 
L 213.939036 209.827411 
L 214.010431 235.792552 
L 214.048007 212.499762 
L 214.100613 212.499762 
L 214.213342 173.317317 
L 214.254676 173.317317 
L 214.404981 235.792552 
L 214.528982 235.792552 
L 214.641711 209.62879 
L 214.686802 209.62879 
L 214.70559 194.100263 
L 214.709348 220.264025 
L 214.792015 220.264025 
L 214.818319 220.264025 
L 214.931047 235.792552 
L 215.047533 235.792552 
L 215.246687 151.162082 
L 215.269233 153.527473 
L 215.385719 214.847097 
L 215.427053 214.847097 
L 215.543539 261.216 
L 215.926816 261.216 
L 215.990696 220.769605 
L 216.039545 240.071925 
L 216.152274 217.41111 
L 216.216153 217.41111 
L 216.265002 240.071925 
L 216.26876 193.775248 
L 216.321366 193.775248 
L 216.355185 193.775248 
L 216.373973 111.112928 
L 216.464156 167.376752 
L 216.59943 167.376752 
L 216.715916 261.216 
L 217.031556 261.216 
L 217.050345 246.825028 
L 217.140527 261.216 
L 217.369742 261.216 
L 217.478713 213.384527 
L 217.482471 215.262395 
L 217.775565 215.262395 
L 217.816899 190.759824 
L 217.865748 261.216 
L 217.877021 261.216 
L 217.888294 261.216 
L 217.997265 227.504652 
L 218.001022 250.418257 
L 218.01981 250.418257 
L 218.132539 261.216 
L 218.136296 261.216 
L 218.249025 235.214746 
L 218.339208 235.214746 
L 218.451936 209.953806 
L 218.560907 209.953806 
L 218.673636 235.95506 
L 218.854002 235.95506 
L 218.96673 261.216 
L 219.015579 261.216 
L 219.128308 253.885091 
L 219.214733 253.885091 
L 219.327462 261.216 
L 219.466494 261.216 
L 219.507828 252.404464 
L 219.575465 261.216 
L 219.894862 261.216 
L 219.91365 260.511799 
L 220.003833 261.216 
L 220.233048 261.216 
L 220.349534 211.14553 
L 220.481051 211.14553 
L 220.499839 206.523085 
L 220.590022 211.14553 
L 220.612568 211.14553 
L 220.725296 237.182897 
L 220.751599 237.182897 
L 220.864328 220.047348 
L 220.883116 220.047348 
L 220.995845 237.182897 
L 221.179968 237.182897 
L 221.292697 211.055248 
L 221.446759 211.055248 
L 221.518154 261.216 
L 221.559488 229.057505 
L 221.630882 261.216 
L 221.63464 210.964966 
L 221.653428 210.964966 
L 221.672216 210.964966 
L 221.788702 261.216 
L 221.878885 261.216 
L 221.897673 253.650357 
L 221.987856 261.216 
L 221.991614 261.216 
L 222.115615 156.253994 
L 222.145676 156.253994 
L 222.277193 224.218382 
L 222.3298 224.218382 
L 222.438771 191.355687 
L 222.442528 197.224025 
L 222.48762 197.224025 
L 222.551499 182.273304 
L 222.555257 209.267661 
L 222.600348 189.261141 
L 222.709319 189.261141 
L 222.758168 204.211862 
L 222.81829 191.969605 
L 222.848351 191.969605 
L 222.912231 167.900389 
L 222.938534 224.218382 
L 222.953564 201.033931 
L 222.957322 201.033931 
L 223.070051 224.218382 
L 223.27672 224.218382 
L 223.363145 210.838571 
L 223.389448 211.560828 
L 223.430782 211.560828 
L 223.543511 224.218382 
L 223.836605 224.218382 
L 223.949333 261.216 
L 224.06582 261.216 
L 224.178548 239.494119 
L 224.242428 239.494119 
L 224.355156 261.216 
L 224.494188 261.216 
L 224.558068 215.605467 
L 224.606917 236.532865 
L 224.625705 236.532865 
L 224.6971 261.216 
L 224.738433 254.390671 
L 224.764737 254.390671 
L 224.783525 218.350044 
L 224.832374 261.216 
L 224.873708 261.216 
L 224.922557 261.216 
L 225.035285 251.66415 
L 225.076619 251.66415 
L 225.189348 261.216 
L 225.373471 261.216 
L 225.392259 245.922207 
L 225.482442 261.216 
L 225.914568 261.216 
L 225.933356 241.119197 
L 226.023539 261.216 
L 226.771306 261.216 
L 226.812639 240.162207 
L 226.880276 261.216 
L 227.041854 261.216 
L 227.165856 240.216376 
L 227.177128 240.216376 
L 227.218462 208.744025 
L 227.289857 209.267661 
L 227.376282 209.267661 
L 227.406343 187.59995 
L 227.496526 240.740013 
L 227.650588 240.740013 
L 227.763317 226.565718 
L 227.830954 226.565718 
L 227.894834 176.350796 
L 227.939925 219.704276 
L 227.966228 219.704276 
L 228.078957 180.882959 
L 228.097745 172.775624 
L 228.124048 195.057254 
L 228.180413 195.057254 
L 228.187928 195.057254 
L 228.300657 233.878571 
L 228.304414 240.740013 
L 228.330717 209.159323 
L 228.402112 220.480702 
L 228.529871 220.480702 
L 228.548659 190.83205 
L 228.638842 211.091361 
L 228.755328 254.896251 
L 229.382851 254.896251 
L 229.454246 261.216 
L 229.458003 226.385154 
L 229.476791 226.385154 
L 229.612066 226.385154 
L 229.675945 212.6081 
L 229.721037 224.561455 
L 229.724794 224.561455 
L 229.743582 173.533994 
L 229.833765 224.561455 
L 229.860069 224.561455 
L 229.878857 198.849103 
L 229.969039 200.672803 
L 230.040434 226.385154 
L 230.081768 221.347411 
L 230.089283 198.451862 
L 230.194497 226.385154 
L 230.513894 226.385154 
L 230.63038 193.10716 
L 230.69426 193.10716 
L 230.75814 162.465404 
L 230.806989 178.535624 
L 230.91596 178.535624 
L 230.968566 178.445342 
L 231.028688 195.743398 
L 231.393177 195.743398 
L 231.509663 140.147661 
L 231.528451 140.147661 
L 231.54724 121.080075 
L 231.573543 195.743398 
L 231.62615 195.743398 
L 231.708817 195.743398 
L 231.750151 151.198194 
L 231.817788 195.743398 
L 231.821546 195.743398 
L 231.844091 221.347411 
L 231.94179 181.460765 
L 231.953062 181.460765 
L 232.073306 226.385154 
L 232.137186 226.385154 
L 232.201065 216.851361 
L 232.227369 261.216 
L 232.231126 261.216 
L 232.27246 261.216 
L 232.452826 189.766721 
L 232.516705 189.766721 
L 232.5881 219.758445 
L 232.591858 184.945655 
L 232.629434 212.10252 
L 232.65198 212.10252 
L 232.700829 232.199323 
L 232.749678 188.286094 
L 232.757193 188.286094 
L 232.8098 188.286094 
L 232.926286 244.170734 
L 233.084106 244.170734 
L 233.147985 178.932865 
L 233.196834 180.467661 
L 233.28326 180.467661 
L 233.395988 261.216 
L 233.557566 261.216 
L 233.643991 249.786282 
L 233.666537 261.216 
L 234.572123 261.216 
L 234.613457 239.331611 
L 234.681094 261.216 
L 234.707397 261.216 
L 234.816368 230.989542 
L 234.929097 261.216 
L 235.000492 261.216 
L 235.041825 252.891987 
L 235.109463 261.216 
L 235.158312 261.216 
L 235.1771 249.118194 
L 235.267283 261.216 
L 235.42886 261.216 
L 235.447648 242.16647 
L 235.537831 261.216 
L 235.879775 261.216 
L 235.898563 260.818759 
L 235.988746 261.216 
L 236.150323 261.216 
L 236.263052 237.850984 
L 236.308143 237.850984 
L 236.43966 181.009354 
L 236.552388 204.37437 
L 236.736512 204.37437 
L 236.7553 201.59368 
L 236.845483 204.37437 
L 237.187426 204.37437 
L 237.251306 184.259511 
L 237.296397 204.37437 
L 237.48052 204.37437 
L 237.593249 173.750671 
L 237.615795 173.750671 
L 237.634583 118.570232 
L 237.724766 154.610859 
L 237.837494 154.610859 
L 237.950223 211.452489 
L 238.044163 211.452489 
L 238.108043 201.377003 
L 238.153134 211.452489 
L 238.201983 211.452489 
L 238.314712 190.398696 
L 238.404895 190.398696 
L 238.49132 161.363962 
L 238.513866 190.398696 
L 238.540169 190.398696 
L 238.558957 186.570734 
L 238.64914 190.398696 
L 238.652898 190.398696 
L 238.769384 98.617881 
L 238.833263 98.617881 
L 238.874597 70.738759 
L 238.878355 111.636564 
L 238.942234 111.636564 
L 239.036175 111.636564 
L 239.1226 75.397317 
L 239.145146 95.078821 
L 239.190237 124.330232 
L 239.284178 261.216 
L 239.310481 253.000326 
L 239.325511 253.000326 
L 239.333027 249.94879 
L 239.43824 261.216 
L 239.712546 261.216 
L 239.798971 161.562583 
L 239.83279 207.913429 
L 240.140915 207.913429 
L 240.182249 164.794683 
L 240.186006 218.097254 
L 240.272431 196.158696 
L 240.392675 261.216 
L 240.434009 261.216 
L 240.546738 245.831925 
L 240.569283 245.831925 
L 240.655709 194.696125 
L 240.678254 220.932113 
L 240.682012 236.316188 
L 240.68577 208.942646 
L 240.790983 233.842458 
L 240.907469 233.842458 
L 240.926257 194.82252 
L 240.952561 261.216 
L 241.01644 227.992176 
L 241.020198 261.216 
L 241.114138 174.599323 
L 241.117896 174.599323 
L 241.129169 174.599323 
L 241.245655 231.946533 
L 241.290746 231.946533 
L 241.377172 179.528727 
L 241.399717 231.946533 
L 241.403475 231.946533 
L 241.4899 160.587536 
L 241.512446 185.108163 
L 241.625174 232.289605 
L 241.737903 232.289605 
L 241.850632 261.216 
L 241.944572 261.216 
L 241.96336 260.782646 
L 242.053543 261.216 
L 242.192575 261.216 
L 242.301546 230.339511 
L 242.305303 248.305655 
L 242.372941 248.305655 
L 242.485669 226.981016 
L 242.575852 226.981016 
L 242.696096 158.836063 
L 242.729914 158.836063 
L 242.801309 204.591047 
L 242.805067 145.040953 
L 242.842643 178.896752 
L 242.891492 178.896752 
L 243.011736 120.881455 
L 243.023009 120.881455 
L 243.143253 229.021392 
L 243.158283 229.021392 
L 243.229678 261.216 
L 243.255981 222.557191 
L 243.267254 222.557191 
L 243.455135 222.557191 
L 243.473923 209.863524 
L 243.564106 222.557191 
L 243.680592 222.557191 
L 243.721926 201.196439 
L 243.789563 222.557191 
L 243.8572 222.557191 
L 243.883504 235.611987 
L 243.887261 220.534871 
L 243.966171 220.534871 
L 244.108961 220.534871 
L 244.217932 176.423022 
L 244.225447 191.500138 
L 244.311872 191.500138 
L 244.375752 173.461768 
L 244.379509 196.122583 
L 244.420843 196.122583 
L 244.443389 196.122583 
L 244.537329 235.611987 
L 244.556117 232.632677 
L 244.559875 232.632677 
L 244.601209 191.770984 
L 244.676361 208.61763 
L 244.691392 208.61763 
L 244.762786 235.611987 
L 244.80412 222.214119 
L 244.916849 222.214119 
L 244.965698 235.611987 
L 245.014547 184.11506 
L 245.055881 184.11506 
L 245.078426 198.722708 
L 245.18364 172.197818 
L 245.187397 172.197818 
L 245.300126 184.169229 
L 245.322672 184.169229 
L 245.394067 235.611987 
L 245.4354 206.59531 
L 245.548129 216.219386 
L 245.796132 216.219386 
L 245.890072 235.611987 
L 245.848738 207.877317 
L 245.90886 234.63694 
L 246.021589 235.611987 
L 246.179409 235.611987 
L 246.292138 261.216 
L 246.724264 261.216 
L 246.788143 240.252489 
L 246.833235 261.216 
L 247.039904 261.216 
L 247.081238 253.542019 
L 247.148875 261.216 
L 247.152632 261.216 
L 247.272876 223.387787 
L 247.287907 223.387787 
L 247.400635 200.997818 
L 247.419423 200.997818 
L 247.468272 216.526345 
L 247.494576 178.10227 
L 247.524637 178.10227 
L 247.532152 178.10227 
L 247.648638 231.043712 
L 247.735063 231.043712 
L 247.847792 261.216 
L 247.919187 261.216 
L 247.96052 246.825028 
L 248.028158 261.216 
L 248.212281 261.216 
L 248.32501 255.853241 
L 248.370101 255.853241 
L 248.388889 241.697003 
L 248.460284 261.216 
L 248.479072 261.216 
L 248.64065 261.216 
L 248.659438 245.45274 
L 248.74962 261.216 
L 248.821015 261.216 
L 248.933744 241.281705 
L 249.177989 241.281705 
L 249.290718 261.216 
L 249.42975 261.216 
L 249.549993 202.821517 
L 249.561266 202.821517 
L 249.673995 216.418006 
L 249.677752 216.418006 
L 249.696541 173.317317 
L 249.767935 234.799448 
L 249.786723 234.799448 
L 249.835572 234.799448 
L 249.876906 191.500138 
L 249.880664 261.216 
L 249.940786 261.216 
L 249.993392 261.216 
L 250.185031 172.378382 
L 250.237638 172.378382 
L 250.350366 221.257129 
L 250.37667 221.257129 
L 250.395458 220.932113 
L 250.485641 221.257129 
L 250.511944 221.257129 
L 250.624672 198.253241 
L 250.823826 198.253241 
L 250.831342 196.628163 
L 250.936555 221.257129 
L 250.940313 221.257129 
L 250.959101 211.199699 
L 250.962858 251.158571 
L 251.041768 245.777755 
L 251.071829 245.777755 
L 251.184558 261.216 
L 251.255953 261.216 
L 251.342378 242.509542 
L 251.364923 261.216 
L 251.368681 261.216 
L 251.477652 232.325718 
L 251.590381 261.216 
L 251.594138 261.216 
L 251.706867 233.210483 
L 251.725655 233.210483 
L 251.819595 241.480326 
L 251.823353 219.577881 
L 251.827111 219.577881 
L 251.838384 219.577881 
L 251.842141 239.313555 
L 251.89099 201.160326 
L 251.947354 215.316564 
L 251.973658 215.316564 
L 252.04881 203.941016 
L 252.093902 240.758069 
L 252.108932 240.758069 
L 252.221661 261.216 
L 252.450875 261.216 
L 252.559846 185.776251 
L 252.563604 218.711172 
L 253.285067 218.711172 
L 253.303855 187.040201 
L 253.394038 218.711172 
L 253.713436 218.711172 
L 253.754769 202.171486 
L 253.822406 218.711172 
L 254.096713 218.711172 
L 254.209441 196.158696 
L 254.431141 196.158696 
L 254.551385 261.216 
L 255.517093 261.216 
L 255.535881 248.341768 
L 255.626064 261.216 
L 255.787641 261.216 
L 255.90037 221.546031 
L 255.968007 221.546031 
L 255.986795 202.315937 
L 256.05819 242.509542 
L 256.07322 242.509542 
L 256.212252 242.509542 
L 256.283647 261.216 
L 256.324981 250.869668 
L 256.396376 250.869668 
L 256.482801 240.776125 
L 256.486559 251.122458 
L 256.505347 251.122458 
L 256.527892 251.122458 
L 256.640621 261.216 
L 256.734561 261.216 
L 256.843532 209.538508 
L 256.84729 242.148414 
L 256.866078 242.148414 
L 256.914927 261.216 
L 256.918685 210.585781 
L 256.967534 210.585781 
L 257.159172 210.585781 
L 257.271901 261.216 
L 257.275659 261.216 
L 257.316992 228.479699 
L 257.38463 261.216 
L 257.613844 261.216 
L 257.632632 235.431423 
L 257.722815 239.313555 
L 257.835544 261.216 
L 258.042213 261.216 
L 258.061001 203.922959 
L 258.151184 246.427787 
L 258.154941 246.427787 
L 258.17373 234.871674 
L 258.177487 261.216 
L 258.260155 261.216 
L 258.312761 261.216 
L 258.399187 241.895624 
L 258.421732 261.216 
L 258.58331 261.216 
L 258.692281 248.088978 
L 258.80501 261.216 
L 259.011679 261.216 
L 259.12065 242.979009 
L 259.233378 261.216 
L 259.440047 261.216 
L 259.620413 240.667787 
L 259.890962 240.667787 
L 259.977387 193.179386 
L 260.00369 213.727599 
L 260.022478 213.727599 
L 260.135207 237.959323 
L 260.184056 237.959323 
L 260.247935 223.947536 
L 260.293027 237.959323 
L 260.315573 237.959323 
L 260.428301 261.216 
L 260.63497 261.216 
L 260.751456 241.20948 
L 260.789033 241.20948 
L 260.882973 261.216 
L 260.995702 210.694119 
L 261.063339 210.694119 
L 261.127218 197.874056 
L 261.130976 248.395937 
L 261.161037 248.395937 
L 261.221159 248.395937 
L 261.239947 244.206846 
L 261.33013 248.395937 
L 261.446616 248.395937 
L 261.510495 222.503022 
L 261.559345 239.18716 
L 261.578133 239.18716 
L 261.630739 232.722959 
L 261.694619 261.216 
L 262.05535 261.216 
L 262.074138 254.173994 
L 262.164321 261.216 
L 262.393536 261.216 
L 262.510022 231.784025 
L 262.660327 231.784025 
L 262.773056 261.216 
L 262.979725 261.216 
L 263.092453 238.988539 
L 263.250273 238.988539 
L 263.269061 232.253492 
L 263.359244 235.39531 
L 263.430639 261.216 
L 263.47573 243.159574 
L 263.562156 243.159574 
L 263.674884 261.216 
L 263.678642 261.216 
L 263.69743 257.821392 
L 263.787613 261.216 
L 264.10701 261.216 
L 264.17089 235.810608 
L 264.215981 261.216 
L 264.332468 261.216 
L 264.441438 256.322708 
L 264.554167 261.216 
L 264.873565 261.216 
L 264.892353 257.893618 
L 264.982536 261.216 
L 265.324479 261.216 
L 265.437208 250.869668 
L 265.568724 250.869668 
L 265.681453 261.216 
L 265.752848 261.216 
L 265.771636 257.008853 
L 265.861819 261.216 
L 265.955759 261.216 
L 266.019639 203.236815 
L 266.083518 209.303774 
L 266.113579 209.303774 
L 266.132367 203.056251 
L 266.181216 256.268539 
L 266.196247 256.268539 
L 266.312733 256.268539 
L 266.425461 261.216 
L 266.451765 261.216 
L 266.493099 232.488226 
L 266.560736 261.216 
L 266.564493 261.216 
L 266.583281 258.128351 
L 266.673464 261.216 
L 266.699768 261.216 
L 266.786193 233.860514 
L 266.816254 242.545655 
L 266.902679 242.545655 
L 267.019165 204.771611 
L 267.034196 204.771611 
L 267.150682 246.138884 
L 267.331048 246.138884 
L 267.349836 241.588665 
L 267.398685 261.216 
L 267.428746 261.216 
L 268.503425 261.216 
L 268.616153 241.227536 
L 268.680033 241.227536 
L 268.792762 261.216 
L 268.954339 261.216 
L 268.995673 199.101893 
L 269.067068 246.500013 
L 269.089613 246.500013 
L 269.108402 237.905154 
L 269.198584 246.500013 
L 269.266222 246.500013 
L 269.37895 261.216 
L 269.427799 261.216 
L 269.548043 249.154307 
L 269.653256 249.154307 
L 269.739682 213.962332 
L 269.765985 226.024025 
L 269.987684 226.024025 
L 270.100413 261.216 
L 270.397265 261.216 
L 270.416053 233.192426 
L 270.509994 242.870671 
L 270.600176 242.870671 
L 270.64151 237.814871 
L 270.709147 242.870671 
L 270.731693 242.870671 
L 270.844422 261.216 
L 271.276548 261.216 
L 271.362973 241.498382 
L 271.385519 261.216 
L 272.020556 261.216 
L 272.039345 261.071549 
L 272.129527 261.216 
L 272.178377 261.216 
L 272.291105 239.909417 
L 272.471471 239.909417 
L 272.490259 230.953429 
L 272.580442 239.909417 
L 272.648079 239.909417 
L 272.760807 261.216 
L 272.764565 261.216 
L 272.884809 219.704276 
L 272.963719 219.704276 
L 273.076448 236.695373 
L 273.256813 236.695373 
L 273.305662 261.216 
L 273.365784 240.433053 
L 273.373299 240.433053 
L 273.392088 211.362207 
L 273.48227 232.145154 
L 273.594999 261.216 
L 273.824214 261.216 
L 273.888093 191.319574 
L 273.936942 232.072928 
L 274.252582 232.072928 
L 274.297674 243.936 
L 274.361553 208.852364 
L 274.474282 243.936 
L 274.496828 243.936 
L 274.609556 261.216 
L 274.748588 261.216 
L 274.861317 249.280702 
L 274.928954 249.280702 
L 275.041682 216.616627 
L 275.06047 216.616627 
L 275.10932 241.949793 
L 275.135623 196.646219 
L 275.165684 196.646219 
L 275.173199 196.646219 
L 275.199502 211.795561 
L 275.20326 188.538884 
L 275.285928 207.805091 
L 275.398656 215.099887 
L 275.443748 215.099887 
L 275.447505 237.959323 
L 275.5189 198.235185 
L 275.552719 205.060514 
L 275.579022 205.060514 
L 275.627871 237.959323 
L 275.691751 223.550295 
L 275.736842 223.550295 
L 275.849571 237.959323 
L 275.875874 237.959323 
L 275.917208 224.272552 
L 275.920965 247.529229 
L 275.981087 247.529229 
L 276.120119 247.529229 
L 276.232848 261.216 
L 277.814805 261.216 
L 277.878685 243.809605 
L 277.923776 261.216 
L 277.972625 261.216 
L 278.036505 247.493116 
L 278.081596 261.216 
L 278.085354 261.216 
L 278.126688 254.354558 
L 278.194325 261.216 
L 278.243174 261.216 
L 278.355903 242.726219 
L 278.442328 242.726219 
L 278.555056 261.216 
L 278.671543 261.216 
L 278.690331 251.266909 
L 278.780514 261.216 
L 278.829363 261.216 
L 278.942091 260.277066 
L 278.983425 260.277066 
L 279.096154 261.216 
L 279.122457 261.216 
L 279.141245 251.537755 
L 279.231428 261.216 
L 279.550825 261.216 
L 279.667312 231.314558 
L 279.772525 231.314558 
L 279.892769 261.216 
L 279.934103 261.216 
L 279.997982 233.950796 
L 280.046831 235.6481 
L 280.133256 235.6481 
L 280.245985 261.216 
L 280.362471 261.216 
L 280.471442 249.118194 
L 280.565383 261.216 
L 280.584171 256.71995 
L 280.787082 256.71995 
L 280.899811 261.216 
L 281.940671 261.216 
L 282.0534 249.045969 
L 282.36904 249.045969 
L 282.432919 238.609354 
L 282.436677 261.216 
L 282.481768 240.64973 
L 282.523102 240.64973 
L 282.635831 261.216 
L 282.729771 261.216 
L 282.748559 251.736376 
L 282.838742 261.216 
L 282.8425 261.216 
L 282.951471 242.094245 
L 283.064199 261.216 
L 283.518871 261.216 
L 283.6316 249.19042 
L 283.830754 249.19042 
L 283.857057 261.216 
L 283.943482 254.69763 
L 283.988574 254.69763 
L 284.101302 261.216 
L 284.217789 261.216 
L 284.34179 236.15368 
L 284.371851 236.15368 
L 284.398154 242.220639 
L 284.379366 230.700639 
L 284.477064 231.982646 
L 284.48458 231.982646 
L 284.57852 255.167097 
L 284.597308 242.599824 
L 284.646157 242.599824 
L 284.664945 241.119197 
L 284.691249 255.167097 
L 284.725067 255.167097 
L 284.73634 255.167097 
L 284.755128 228.100514 
L 284.803977 261.216 
L 284.845311 261.216 
L 285.164709 261.216 
L 285.277437 253.722583 
L 285.341317 253.722583 
L 285.454045 261.216 
L 285.593077 261.216 
L 285.705806 243.972113 
L 285.724594 243.972113 
L 285.837322 261.216 
L 286.607634 261.216 
L 286.720363 221.726596 
L 286.829334 221.726596 
L 286.942063 261.216 
L 287.374189 261.216 
L 287.486917 235.70227 
L 287.528251 235.70227 
L 287.64098 261.216 
L 287.73492 261.216 
L 287.753708 248.016752 
L 287.843891 259.121455 
L 287.934074 259.121455 
L 288.046803 261.216 
L 288.749477 261.216 
L 288.858448 196.104527 
L 288.865964 216.201329 
L 288.948631 216.201329 
L 289.06136 238.464903 
L 289.083906 238.464903 
L 289.087663 261.216 
L 289.196634 257.767223 
L 289.448395 257.767223 
L 289.512274 245.940263 
L 289.557366 257.767223 
L 289.647548 257.767223 
L 289.760277 261.216 
L 289.9444 261.216 
L 290.00828 257.008853 
L 290.053371 261.216 
L 290.485497 261.216 
L 290.598226 260.493743 
L 290.617014 209.213492 
L 290.707197 260.493743 
L 290.842471 260.493743 
L 290.936412 261.216 
L 291.056656 222.41274 
L 291.158111 222.41274 
L 291.27084 236.948163 
L 291.36478 236.948163 
L 291.387326 261.216 
L 291.481267 199.318571 
L 291.496297 199.318571 
L 291.609026 221.943273 
L 291.721754 221.943273 
L 291.725512 261.216 
L 291.751815 204.266031 
L 291.830725 223.92948 
L 291.969757 223.92948 
L 292.063698 261.216 
L 292.082486 241.588665 
L 292.131335 261.216 
L 292.157638 222.051611 
L 292.187699 222.051611 
L 292.240306 222.051611 
L 292.356792 261.216 
L 292.424429 261.216 
L 292.589764 249.118194 
L 292.758857 249.118194 
L 292.871586 261.216 
L 292.94298 261.216 
L 293.055709 244.387411 
L 293.074497 244.387411 
L 293.168438 261.216 
L 293.172195 236.045342 
L 293.183468 236.045342 
L 293.236075 236.045342 
L 293.299954 224.489229 
L 293.345046 236.045342 
L 293.371349 236.045342 
L 293.484078 231.079824 
L 293.502866 231.079824 
L 293.615594 261.216 
L 293.664443 261.216 
L 293.683231 243.502646 
L 293.773414 261.216 
L 293.822263 261.216 
L 293.934992 256.846345 
L 293.95378 256.846345 
L 294.066509 261.216 
L 294.070266 261.216 
L 294.1116 252.404464 
L 294.179237 261.216 
L 294.566272 261.216 
L 294.607606 212.319197 
L 294.675243 261.216 
L 294.836821 261.216 
L 294.9007 244.69437 
L 294.945792 261.216 
L 295.377918 261.216 
L 295.490646 234.582771 
L 295.513192 234.582771 
L 295.53198 227.522708 
L 295.622163 234.582771 
L 295.693558 234.582771 
L 295.734892 194.56973 
L 295.802529 221.202959 
L 295.915257 261.216 
L 296.798298 261.216 
L 296.911026 218.386157 
L 296.978664 218.386157 
L 297.09515 202.622897 
L 297.132726 202.622897 
L 297.245455 261.216 
L 297.474669 261.216 
L 297.516003 239.060765 
L 297.58364 261.216 
L 297.812855 261.216 
L 297.933099 187.004088 
L 297.989463 187.004088 
L 298.102192 213.348414 
L 298.192375 213.348414 
L 298.286315 261.216 
L 298.305103 260.096502 
L 298.376498 261.216 
L 298.414074 260.349292 
L 298.417832 260.349292 
L 298.53056 261.216 
L 299.052869 261.216 
L 299.139295 221.347411 
L 299.16184 250.309918 
L 299.252023 250.309918 
L 299.364752 261.216 
L 299.526329 261.216 
L 299.650331 250.978006 
L 299.657846 250.978006 
L 299.774332 261.216 
L 299.954698 261.216 
L 300.074942 211.885843 
L 300.10876 211.885843 
L 300.221489 233.770232 
L 300.26658 233.770232 
L 300.379309 261.216 
L 300.405612 261.216 
L 300.529614 238.952426 
L 300.537129 238.952426 
L 300.653615 261.216 
L 300.833981 261.216 
L 300.875315 252.693367 
L 300.942952 261.216 
L 301.262349 261.216 
L 301.326229 213.077567 
L 301.375078 239.566345 
L 301.438958 239.566345 
L 301.551686 261.216 
L 301.713264 261.216 
L 301.799689 178.427285 
L 301.822235 229.599197 
L 301.934963 250.093241 
L 301.957509 250.093241 
L 302.070238 261.216 
L 302.164178 261.216 
L 302.284422 219.054245 
L 302.318241 219.054245 
L 302.430969 232.849354 
L 302.434727 232.849354 
L 302.453515 217.122207 
L 302.457272 245.488853 
L 302.543698 238.537129 
L 302.596304 230.104777 
L 302.656426 245.488853 
L 303.043461 245.488853 
L 303.152432 221.473806 
L 303.272676 261.216 
L 303.359101 261.216 
L 303.475587 216.381893 
L 303.490618 216.381893 
L 303.603346 233.102144 
L 303.761166 233.102144 
L 303.873895 261.216 
L 304.170747 261.216 
L 304.234626 241.15531 
L 304.279718 261.216 
L 304.41875 261.216 
L 304.531478 238.248226 
L 304.554024 238.248226 
L 304.572812 237.905154 
L 304.621661 261.216 
L 304.681783 238.121831 
L 304.708086 238.121831 
L 304.944816 261.216 
L 305.072575 261.216 
L 305.181546 208.852364 
L 305.185304 239.349668 
L 305.20785 239.349668 
L 305.294275 220.697379 
L 305.316821 239.349668 
L 305.384458 239.349668 
L 305.497186 261.216 
L 305.500944 261.216 
L 305.542278 229.924213 
L 305.609915 253.036439 
L 305.632461 253.036439 
L 305.703855 261.216 
L 305.707613 241.4081 
L 305.737674 241.4081 
L 305.951858 241.4081 
L 305.970646 215.172113 
L 305.974404 251.519699 
L 306.060829 251.519699 
L 306.064587 251.519699 
L 306.128466 241.841455 
L 306.132224 261.216 
L 306.177315 243.502646 
L 306.196104 243.502646 
L 306.308832 261.216 
L 306.380227 261.216 
L 306.489198 248.070922 
L 306.583138 261.216 
L 306.586896 233.17437 
L 306.594411 233.17437 
L 306.669564 233.17437 
L 306.78605 261.216 
L 306.808596 261.216 
L 306.921324 230.953429 
L 307.011507 230.953429 
L 307.030295 225.825404 
L 307.056598 261.216 
L 307.097932 261.216 
L 307.349693 261.216 
L 307.481209 177.614746 
L 307.515028 179.510671 
L 307.530058 179.510671 
L 307.642787 178.788414 
L 307.751758 178.788414 
L 307.872002 193.450232 
L 307.89079 193.450232 
L 307.932124 136.482207 
L 308.003518 161.237567 
L 308.093701 161.237567 
L 308.112489 157.355436 
L 308.161338 194.172489 
L 308.172611 194.172489 
L 308.319158 194.172489 
L 308.337947 155.441455 
L 308.428129 194.172489 
L 308.52207 194.172489 
L 308.563404 170.428288 
L 308.567161 237.471799 
L 308.61601 237.471799 
L 308.676132 237.471799 
L 308.747527 248.973743 
L 308.77383 213.673429 
L 308.777588 213.673429 
L 308.811407 213.673429 
L 308.927893 241.227536 
L 308.950438 241.227536 
L 309.081955 217.880577 
L 309.194684 261.216 
L 309.198441 261.216 
L 309.217229 209.863524 
L 309.31117 230.014495 
L 309.401353 230.014495 
L 309.442687 205.945279 
L 309.491536 245.759699 
L 309.506566 245.759699 
L 309.581719 245.759699 
L 309.701962 188.069417 
L 309.713235 188.069417 
L 309.825964 209.646846 
L 309.829721 209.646846 
L 309.871055 170.590796 
L 309.938692 205.620263 
L 309.961238 205.620263 
L 310.055179 223.441956 
L 310.058936 185.108163 
L 310.066451 185.108163 
L 310.077724 185.108163 
L 310.119058 145.889605 
L 310.145361 191.626533 
L 310.186695 191.626533 
L 310.231787 191.626533 
L 310.348273 238.898257 
L 310.367061 238.898257 
L 310.41591 261.216 
L 310.419668 205.927223 
L 310.472274 205.927223 
L 310.483547 205.927223 
L 310.524881 184.81926 
L 310.592518 205.927223 
L 310.73155 205.927223 
L 310.750338 180.503774 
L 310.840521 182.489981 
L 310.934461 205.927223 
L 310.938219 172.739511 
L 310.949492 172.739511 
L 311.088524 172.739511 
L 311.114827 192.511298 
L 311.163676 152.498257 
L 311.193737 152.498257 
L 311.227556 152.498257 
L 311.246344 146.864652 
L 311.295193 159.648602 
L 311.332769 159.648602 
L 311.36283 159.648602 
L 311.404164 149.04948 
L 311.475559 214.937379 
L 311.516892 188.773618 
L 311.588287 241.4081 
L 311.629621 212.265028 
L 311.655924 212.265028 
L 311.674712 188.827787 
L 311.746107 232.072928 
L 311.761138 232.072928 
L 311.813744 232.072928 
L 311.832532 227.865781 
L 311.83629 239.259386 
L 311.9152 239.259386 
L 311.926473 239.259386 
L 311.945261 199.408853 
L 312.039201 221.365467 
L 312.05799 221.365467 
L 312.15193 245.181893 
L 312.155688 213.240075 
L 312.166961 213.240075 
L 312.21581 213.240075 
L 312.336053 261.216 
L 312.354842 261.216 
L 312.418721 241.245592 
L 312.463812 254.679574 
L 312.535207 261.216 
L 312.538965 246.102771 
L 312.569026 246.102771 
L 312.621632 246.102771 
L 312.734361 261.216 
L 312.986122 261.216 
L 313.102608 220.932113 
L 313.185275 220.932113 
L 313.298004 236.081455 
L 313.41449 236.081455 
L 313.523461 210.513555 
L 313.63619 235.6481 
L 313.775222 235.6481 
L 313.839101 203.272928 
L 313.865404 247.457003 
L 313.880435 247.457003 
L 314.087104 247.457003 
L 314.199833 261.216 
L 314.20359 261.216 
L 314.222378 260.927097 
L 314.226136 261.216 
L 314.290015 235.214746 
L 314.338864 253.560075 
L 314.357653 253.560075 
L 314.470381 261.216 
L 314.496684 261.216 
L 314.628201 166.27531 
L 314.631959 166.27531 
L 314.75596 137.294746 
L 314.763475 137.294746 
L 314.879962 174.816 
L 314.988933 174.816 
L 315.064085 166.437818 
L 315.101661 181.460765 
L 315.127965 181.460765 
L 315.244451 150.223147 
L 315.259481 150.223147 
L 315.375967 181.460765 
L 315.394755 162.519574 
L 315.484938 181.460765 
L 315.62397 181.460765 
L 315.732941 132.202834 
L 315.736699 153.419135 
L 315.759245 153.419135 
L 315.84567 108.783649 
L 315.871973 128.844339 
L 315.890761 128.844339 
L 316.007247 181.460765 
L 316.187613 181.460765 
L 316.326645 128.176251 
L 316.341676 128.176251 
L 316.469435 228.010232 
L 316.522041 228.010232 
L 316.63477 261.216 
L 316.683619 261.216 
L 316.796347 255.70879 
L 316.860227 255.70879 
L 316.972956 261.216 
L 317.111987 261.216 
L 317.224716 240.126094 
L 317.314899 240.126094 
L 317.431385 202.442332 
L 317.468961 202.442332 
L 317.562902 223.532238 
L 317.58169 217.013868 
L 317.701934 236.875937 
L 317.923633 236.875937 
L 318.043877 197.368476 
L 318.190424 197.368476 
L 318.30691 249.497379 
L 318.348244 249.497379 
L 318.352002 261.216 
L 318.460973 258.092238 
L 318.506064 258.092238 
L 318.513579 253.614245 
L 318.618793 261.216 
L 318.802916 261.216 
L 318.889341 246.770859 
L 318.911887 261.216 
L 318.93819 261.216 
L 319.050919 221.040451 
L 319.137344 221.040451 
L 319.250073 230.772865 
L 319.366559 230.772865 
L 319.407893 196.014245 
L 319.479288 207.209229 
L 319.498076 207.209229 
L 319.610804 230.772865 
L 319.794928 230.772865 
L 319.836261 156.795687 
L 319.907656 177.325843 
L 319.930202 177.325843 
L 320.04293 99.647097 
L 320.151901 99.647097 
L 320.245842 153.094119 
L 320.26463 125.937254 
L 320.332267 125.937254 
L 320.444996 153.094119 
L 320.493845 153.094119 
L 320.606573 139.407348 
L 320.647907 139.407348 
L 320.674211 153.094119 
L 320.700514 122.344025 
L 320.753121 122.344025 
L 320.922213 122.344025 
L 321.031184 81.717066 
L 321.125125 133.448727 
L 321.143913 95.078821 
L 321.147671 95.078821 
L 321.189004 64.166219 
L 321.192762 114.471423 
L 321.252884 114.471423 
L 321.324279 114.471423 
L 321.440765 174.075687 
L 321.553493 174.075687 
L 321.639919 98.816502 
L 321.643676 176.495248 
L 321.662464 176.495248 
L 321.820284 176.495248 
L 321.963074 261.216 
L 321.981862 261.216 
L 322.113379 200.817254 
L 322.117136 200.817254 
L 322.15847 181.894119 
L 322.226107 200.817254 
L 322.248653 200.817254 
L 322.361382 211.9039 
L 322.383927 211.9039 
L 322.477868 261.216 
L 322.481625 210.369103 
L 322.492898 210.369103 
L 322.545505 210.369103 
L 322.564293 200.961705 
L 322.654476 210.369103 
L 322.767204 210.369103 
L 322.879933 261.216 
L 322.906236 261.216 
L 323.018965 231.242332 
L 323.150482 231.242332 
L 323.154239 261.216 
L 323.26321 245.940263 
L 323.443576 245.940263 
L 323.556304 261.216 
L 323.672791 261.216 
L 323.73667 250.978006 
L 323.781762 261.216 
L 323.875702 261.216 
L 323.962127 245.543022 
L 323.984673 261.216 
L 324.168796 261.216 
L 324.292798 196.176752 
L 324.36795 196.176752 
L 324.488194 257.388038 
L 324.52577 257.388038 
L 324.638499 261.216 
L 324.754985 261.216 
L 324.818865 215.099887 
L 324.867714 239.548288 
L 324.980442 239.548288 
L 325.021776 216.544401 
L 325.089413 239.548288 
L 325.134505 239.548288 
L 325.138262 261.216 
L 325.209657 225.373994 
L 325.243476 245.091611 
L 325.634268 245.091611 
L 325.653056 244.405467 
L 325.656814 260.529856 
L 325.660571 260.529856 
L 325.765785 260.529856 
L 325.878513 261.216 
L 325.994999 261.216 
L 326.036333 230.339511 
L 326.10397 261.216 
L 326.648825 261.216 
L 326.761554 243.556815 
L 326.89307 243.556815 
L 327.005799 261.216 
L 327.054648 261.216 
L 327.167377 244.748539 
L 327.298893 244.748539 
L 327.411622 261.216 
L 327.821202 261.216 
L 327.83999 234.925843 
L 327.933931 235.250859 
L 328.024114 235.250859 
L 328.065448 207.750922 
L 328.133085 234.673053 
L 328.227025 235.250859 
L 328.343511 169.886596 
L 328.358542 169.886596 
L 328.452482 195.851737 
L 328.47127 191.951549 
L 328.647879 261.216 
L 328.745577 261.216 
L 328.862063 247.655624 
L 328.903397 247.655624 
L 328.922185 231.422897 
L 328.948488 261.216 
L 329.00861 261.216 
L 329.016125 261.216 
L 329.034913 256.340765 
L 329.125096 261.216 
L 329.173945 261.216 
L 329.297947 246.445843 
L 329.331765 246.445843 
L 329.350553 241.931737 
L 329.354311 256.954683 
L 329.440736 247.005592 
L 329.553465 256.954683 
L 329.647405 261.216 
L 329.760134 239.223273 
L 329.78268 239.223273 
L 329.891651 222.683586 
L 330.008137 261.216 
L 330.211048 261.216 
L 330.323777 229.38252 
L 330.410202 229.38252 
L 330.504142 261.216 
L 330.417717 225.680953 
L 330.519173 238.880201 
L 330.522931 238.880201 
L 330.57178 239.277442 
L 330.590568 203.056251 
L 330.684508 212.517818 
L 330.752145 212.517818 
L 330.793479 211.777505 
L 330.88742 260.475687 
L 330.906208 236.009229 
L 330.932511 236.009229 
L 331.041482 201.503398 
L 331.048997 202.243712 
L 331.090331 202.243712 
L 331.176756 191.861266 
L 331.180514 216.327724 
L 331.199302 200.58252 
L 331.319546 226.710169 
L 331.36088 226.710169 
L 331.379668 199.444966 
L 331.405971 245.940263 
L 331.469851 237.110671 
L 331.541245 259.283962 
L 331.545003 209.105154 
L 331.571306 211.037191 
L 331.608883 211.037191 
L 331.650216 205.204966 
L 331.653974 255.383774 
L 331.687793 255.383774 
L 331.789248 255.383774 
L 331.830582 238.93437 
L 331.856885 261.216 
L 331.898219 261.197944 
L 332.014705 261.216 
L 332.059797 261.216 
L 332.146222 212.012238 
L 332.172525 228.371361 
L 332.461862 228.371361 
L 332.488165 261.216 
L 332.491923 218.548665 
L 332.570833 239.43995 
L 332.574591 239.43995 
L 332.668531 261.216 
L 332.672289 221.636313 
L 332.679804 221.636313 
L 332.691077 221.636313 
L 332.803805 192.836313 
L 332.890231 192.836313 
L 333.006717 261.216 
L 333.187083 261.216 
L 333.296054 248.486219 
L 333.371206 224.832301 
L 333.408782 261.216 
L 333.615451 261.216 
L 333.72818 244.387411 
L 333.769514 244.387411 
L 333.795817 261.216 
L 333.799575 217.086094 
L 333.878485 240.234433 
L 333.972425 240.234433 
L 334.066366 261.216 
L 334.085154 260.45763 
L 334.156548 260.45763 
L 334.175336 241.552552 
L 334.269277 244.495749 
L 334.35946 244.495749 
L 334.378248 229.057505 
L 334.472188 230.502019 
L 334.490977 230.502019 
L 334.607463 254.228163 
L 334.6751 254.228163 
L 334.693888 243.141517 
L 334.742737 261.216 
L 334.780313 261.216 
L 334.787828 261.216 
L 334.91183 197.639323 
L 334.919345 197.639323 
L 335.032074 212.86089 
L 335.099711 212.86089 
L 335.216197 261.216 
L 335.531837 261.216 
L 335.550625 260.818759 
L 335.640808 261.216 
L 335.982751 261.216 
L 336.046631 255.112928 
L 336.091722 261.216 
L 336.636577 261.216 
L 336.677911 221.997442 
L 336.749306 259.554809 
L 336.862034 259.554809 
L 336.880822 246.301392 
L 336.971005 259.554809 
L 336.993551 259.554809 
L 337.064946 261.216 
L 337.10628 208.545404 
L 337.177674 232.777129 
L 337.245311 232.777129 
L 337.2641 194.100263 
L 337.35804 213.745655 
L 337.51586 213.745655 
L 337.534648 184.349793 
L 337.560951 231.693743 
L 337.621073 231.693743 
L 337.624831 231.693743 
L 337.718771 242.184527 
L 337.73756 240.469166 
L 337.760105 240.469166 
L 337.872834 261.216 
L 337.921683 261.216 
L 338.008108 239.674683 
L 338.034411 252.16973 
L 338.075745 252.16973 
L 338.188474 261.216 
L 338.30496 261.216 
L 338.323748 209.249605 
L 338.413931 261.216 
L 338.598054 261.216 
L 338.710783 211.885843 
L 338.752117 211.885843 
L 338.864845 252.819762 
L 338.913694 252.819762 
L 338.932482 249.316815 
L 338.93624 257.713053 
L 339.018908 257.713053 
L 339.112848 257.713053 
L 339.139152 261.216 
L 339.142909 233.842458 
L 339.195516 233.842458 
L 339.203031 233.842458 
L 339.31576 261.216 
L 339.319517 261.216 
L 339.432246 233.806345 
L 339.499883 233.806345 
L 339.563762 231.946533 
L 339.608854 233.806345 
L 339.702794 233.806345 
L 339.766674 198.957442 
L 339.792977 240.884464 
L 339.811765 240.884464 
L 339.928252 240.884464 
L 340.014677 213.095624 
L 340.037223 233.42716 
L 340.217588 233.42716 
L 340.221346 261.216 
L 340.326559 244.261016 
L 340.330317 244.261016 
L 340.443045 261.216 
L 340.559532 261.216 
L 340.676018 217.736125 
L 340.713594 217.736125 
L 340.83008 261.216 
L 340.9879 261.216 
L 341.108144 236.40647 
L 341.213357 236.40647 
L 341.254691 235.070295 
L 341.36742 261.216 
L 341.438814 261.216 
L 341.547785 232.235436 
L 341.551543 252.440577 
L 341.592877 252.440577 
L 341.641726 261.216 
L 341.701848 254.589292 
L 341.867183 254.589292 
L 341.983669 212.933116 
L 342.021245 212.933116 
L 342.141489 261.216 
L 342.227915 261.216 
L 342.246703 226.421266 
L 342.336885 261.216 
L 342.363189 261.216 
L 342.475917 231.928476 
L 342.746466 231.928476 
L 342.810346 186.08321 
L 342.859195 205.403586 
L 342.990711 205.403586 
L 343.10344 231.928476 
L 343.219926 231.928476 
L 343.332655 200.149166 
L 343.351443 200.149166 
L 343.422837 231.928476 
L 343.464171 217.465279 
L 343.531808 217.465279 
L 343.644537 231.928476 
L 343.693386 231.928476 
L 343.817387 211.326094 
L 343.982723 211.326094 
L 344.099209 261.216 
L 344.189392 261.216 
L 344.20818 250.418257 
L 344.298363 261.216 
L 344.61776 261.216 
L 344.636548 237.471799 
L 344.726731 261.216 
L 344.955946 261.216 
L 345.064917 217.591674 
L 345.068675 220.065404 
L 345.113766 220.065404 
L 345.177646 170.861643 
L 345.203949 226.637944 
L 345.222737 226.637944 
L 345.267829 226.637944 
L 345.380557 235.39531 
L 345.429406 235.39531 
L 345.538377 195.617003 
L 345.542135 221.437693 
L 345.560923 215.226282 
L 345.609772 261.216 
L 345.62856 261.216 
L 345.699955 261.216 
L 345.718743 260.367348 
L 345.808926 261.216 
L 345.812683 261.216 
L 345.831471 241.065028 
L 345.921654 261.216 
L 345.925412 261.216 
L 346.071959 204.572991 
L 346.124566 204.572991 
L 346.132081 176.78415 
L 346.271113 261.216 
L 346.308689 261.216 
L 346.350023 245.940263 
L 346.41766 261.216 
L 346.421418 261.216 
L 346.541661 226.619887 
L 346.556692 226.619887 
L 346.665663 198.86716 
L 346.737058 261.216 
L 346.778391 247.131987 
L 346.958757 247.131987 
L 346.988818 244.622144 
L 347.071486 261.216 
L 347.187972 261.216 
L 347.20676 249.587661 
L 347.296943 261.216 
L 347.368338 261.216 
L 347.481066 234.474433 
L 347.860586 234.474433 
L 347.973314 261.216 
L 348.653443 261.216 
L 348.717323 254.282332 
L 348.762414 261.216 
L 348.878901 261.216 
L 348.897689 252.205843 
L 348.987872 261.216 
L 349.104358 261.216 
L 349.217086 245.976376 
L 349.303512 245.976376 
L 349.307269 261.216 
L 349.378664 226.818508 
L 349.408725 234.745279 
L 349.532726 234.745279 
L 349.596606 202.008978 
L 349.641697 228.479699 
L 349.754426 233.42716 
L 349.758184 233.42716 
L 349.776972 230.44785 
L 349.867154 233.42716 
L 349.8897 233.42716 
L 350.002429 261.216 
L 350.028732 261.216 
L 350.070066 246.391674 
L 350.137703 261.216 
L 350.772741 261.216 
L 350.885469 237.905154 
L 351.039532 237.905154 
L 351.15226 261.216 
L 351.201109 261.216 
L 351.219897 249.894621 
L 351.31008 261.216 
L 351.516749 261.216 
L 351.629478 243.105404 
L 351.652024 243.105404 
L 351.772267 206.288351 
L 351.809844 206.288351 
L 351.873723 198.469918 
L 351.900026 219.37926 
L 351.911299 219.37926 
L 351.967664 219.37926 
L 351.986452 196.935122 
L 351.990209 237.489856 
L 352.072877 237.489856 
L 352.080392 237.489856 
L 352.09918 231.603461 
L 352.125484 261.216 
L 352.174333 261.216 
L 352.937129 261.216 
L 352.955917 257.279699 
L 353.0461 261.216 
L 353.094949 261.216 
L 353.207678 250.490483 
L 353.226466 250.490483 
L 353.339195 261.216 
L 353.455681 261.216 
L 353.497015 242.491486 
L 353.564652 261.216 
L 353.748775 261.216 
L 353.857746 228.949166 
L 353.861504 240.14415 
L 353.884049 240.14415 
L 353.902838 214.865154 
L 353.99302 240.14415 
L 354.038112 240.14415 
L 354.15084 261.216 
L 354.177144 261.216 
L 354.29363 217.627787 
L 354.312418 217.627787 
L 354.376298 195.003085 
L 354.421389 201.828414 
L 354.447692 217.627787 
L 354.45145 195.472552 
L 354.534118 213.61926 
L 354.673149 261.216 
L 354.680665 240.414997 
L 354.695695 240.414997 
L 354.78212 212.373367 
L 354.808424 233.17437 
L 354.849758 233.17437 
L 354.898607 248.883461 
L 354.958729 235.666157 
L 354.966244 235.666157 
L 354.985032 230.989542 
L 355.075215 235.666157 
L 355.191701 261.216 
L 355.233035 240.559448 
L 355.315702 241.137254 
L 355.458492 241.137254 
L 355.57122 261.216 
L 355.62007 261.216 
L 355.72904 244.044339 
L 355.732798 252.946157 
L 355.755344 252.946157 
L 355.796678 199.553304 
L 355.868072 222.809981 
L 355.931952 222.809981 
L 355.962013 217.790295 
L 356.059711 261.216 
L 356.070984 261.216 
L 356.089772 260.764589 
L 356.179955 261.216 
L 356.228804 261.216 
L 356.341532 223.496125 
L 356.360321 223.496125 
L 356.386624 239.421893 
L 356.390381 216.724966 
L 356.469291 216.724966 
L 356.657172 216.724966 
L 356.675961 183.970608 
L 356.766143 205.764715 
L 356.886387 261.216 
L 357.243361 261.216 
L 357.35609 240.342771 
L 357.397423 240.342771 
L 357.510152 261.216 
L 357.739367 261.216 
L 357.758155 258.038069 
L 357.848338 261.216 
L 358.596104 261.216 
L 358.708833 237.995436 
L 358.862895 237.995436 
L 358.866653 261.216 
L 358.915502 236.424527 
L 358.971866 236.424527 
L 359.088352 236.424527 
L 359.159747 239.223273 
L 359.272475 135.290483 
L 359.295021 135.290483 
L 359.358901 115.211737 
L 359.362658 157.28321 
L 359.400235 157.28321 
L 359.471629 157.28321 
L 359.584358 181.894119 
L 359.72339 181.894119 
L 359.742178 176.657755 
L 359.832361 181.894119 
L 360.151758 181.894119 
L 360.215638 154.990044 
L 360.260729 181.894119 
L 360.373458 181.894119 
L 360.486186 261.216 
L 360.580127 261.216 
L 360.692856 254.354558 
L 360.783038 254.354558 
L 360.801826 224.651737 
L 360.895767 231.513179 
L 361.076133 231.513179 
L 361.140012 203.778508 
L 361.14377 233.481329 
L 361.185104 233.481329 
L 361.320378 233.481329 
L 361.369227 261.216 
L 361.429349 242.92484 
L 361.549593 242.92484 
L 361.613472 226.132364 
L 361.639776 261.216 
L 361.654806 261.216 
L 361.707413 261.216 
L 361.820141 220.715436 
L 361.93287 220.715436 
L 361.974204 195.021141 
L 362.041841 219.975122 
L 362.132024 219.975122 
L 362.203418 260.475687 
L 362.240995 231.170107 
L 362.24851 231.170107 
L 362.289844 219.993179 
L 362.357481 231.170107 
L 362.361238 231.91042 
L 362.364996 217.934746 
L 362.398815 217.934746 
L 362.402572 217.934746 
L 362.515301 231.91042 
L 362.541604 231.91042 
L 362.560392 157.427661 
L 362.650575 219.12647 
L 362.673121 219.12647 
L 362.676878 231.91042 
L 362.680636 210.694119 
L 362.778334 210.694119 
L 362.789607 210.694119 
L 362.830941 178.030044 
L 362.834698 231.91042 
L 362.89482 231.91042 
L 362.992519 231.91042 
L 363.105247 205.981392 
L 363.19543 205.981392 
L 363.311916 128.447097 
L 363.35325 128.447097 
L 363.372038 67.416376 
L 363.420887 146.142395 
L 363.462221 146.142395 
L 363.507312 146.142395 
L 363.620041 170.879699 
L 363.66889 170.879699 
L 363.687678 138.323962 
L 363.781619 146.539636 
L 363.868044 146.539636 
L 363.980772 170.879699 
L 363.98453 170.879699 
L 364.070955 154.719197 
L 364.093501 170.879699 
L 364.228775 170.879699 
L 364.232533 200.185279 
L 364.337746 183.212238 
L 364.345261 183.212238 
L 364.36405 157.084589 
L 364.454232 174.05763 
L 364.52187 174.05763 
L 364.570719 200.185279 
L 364.634598 189.965342 
L 364.77363 189.965342 
L 364.792418 148.652238 
L 364.863813 196.212865 
L 364.882601 196.212865 
L 364.950238 196.212865 
L 365.062967 261.216 
L 365.472547 261.216 
L 365.585276 238.519072 
L 365.607822 238.519072 
L 365.671701 226.981016 
L 365.716792 238.519072 
L 365.761884 238.519072 
L 365.874612 261.216 
L 365.900916 261.216 
L 366.013644 247.059762 
L 366.032432 247.059762 
L 366.058736 261.216 
L 366.062493 237.471799 
L 366.137646 237.471799 
L 366.25789 237.471799 
L 366.370618 261.216 
L 366.644924 261.216 
L 366.663713 256.412991 
L 366.757653 258.561705 
L 366.911715 258.561705 
L 367.024444 261.216 
L 367.095839 261.216 
L 367.114627 221.961329 
L 367.208567 229.165843 
L 367.253659 229.165843 
L 367.366387 172.2881 
L 367.407721 172.2881 
L 367.52045 204.338257 
L 367.542995 204.338257 
L 367.655724 261.216 
L 367.682027 261.216 
L 367.700815 236.948163 
L 367.790998 261.216 
L 368.448582 261.216 
L 368.56131 193.396063 
L 369.279016 193.396063 
L 369.282773 261.216 
L 369.391744 250.021016 
L 369.41429 250.021016 
L 369.527018 261.216 
L 369.553322 261.216 
L 369.662293 252.007223 
L 369.775021 261.216 
L 370.635516 261.216 
L 370.748245 237.652364 
L 370.838427 237.652364 
L 370.857216 236.749542 
L 370.924853 237.652364 
L 371.037581 261.216 
L 371.537345 261.216 
L 371.653831 170.626909 
L 371.762802 170.626909 
L 371.804136 169.886596 
L 371.916864 217.501392 
L 371.961956 217.501392 
L 372.074684 261.216 
L 372.213716 261.216 
L 372.322687 245.218006 
L 372.435416 261.216 
L 372.66463 261.216 
L 372.777359 219.993179 
L 372.818693 219.993179 
L 372.844996 261.216 
L 372.927664 233.93274 
L 373.292153 233.93274 
L 373.404881 261.216 
L 374.535925 261.216 
L 374.648653 244.405467 
L 374.783928 244.405467 
L 374.892899 219.433429 
L 375.005627 244.405467 
L 375.054476 244.405467 
L 375.167205 217.790295 
L 375.234842 217.790295 
L 375.25363 211.235812 
L 375.257388 244.405467 
L 375.328782 244.405467 
L 375.663211 244.405467 
L 375.681999 236.40647 
L 375.730848 261.216 
L 375.764666 261.216 
L 375.956305 261.216 
L 376.069033 210.278821 
L 376.114125 210.278821 
L 376.155459 188.376376 
L 376.159216 227.251862 
L 376.219338 227.251862 
L 376.223096 227.251862 
L 376.339582 261.216 
L 376.384674 261.216 
L 376.471099 235.088351 
L 376.493644 261.216 
L 376.610131 261.216 
L 376.628919 256.286596 
L 376.719102 261.216 
L 376.813042 261.216 
L 376.922013 236.334245 
L 376.929528 244.062395 
L 377.079833 244.062395 
L 377.192562 261.216 
L 377.263956 261.216 
L 377.327836 229.075561 
L 377.376685 242.780389 
L 377.530747 242.780389 
L 377.643476 261.216 
L 377.692325 261.216 
L 377.808811 215.38879 
L 377.846387 215.38879 
L 377.959116 240.378884 
L 378.075602 240.378884 
L 378.184573 199.914433 
L 378.192088 215.334621 
L 378.207119 215.334621 
L 378.301059 261.216 
L 378.319847 239.837191 
L 378.342393 239.837191 
L 378.455122 261.216 
L 378.503971 261.216 
L 378.669306 238.898257 
L 378.703125 238.898257 
L 378.751974 261.216 
L 378.812096 247.67368 
L 378.973673 247.67368 
L 379.086402 261.216 
L 379.180342 261.216 
L 379.304344 214.88321 
L 379.450891 214.88321 
L 379.492225 165.787787 
L 379.559862 176.729981 
L 379.608711 212.120577 
L 379.67259 193.739135 
L 379.695136 193.739135 
L 379.819138 261.216 
L 379.901805 261.216 
L 380.014534 246.626408 
L 380.059625 246.626408 
L 380.078413 237.128727 
L 380.149808 261.216 
L 380.164838 261.216 
L 380.397811 261.216 
L 380.518055 187.527724 
L 380.529328 187.527724 
L 380.649571 238.103774 
L 380.687148 238.103774 
L 380.799876 261.216 
L 380.871271 261.216 
L 380.912605 258.724213 
L 380.980242 261.216 
L 381.322185 261.216 
L 381.453702 174.689605 
L 381.521339 193.486345 
L 381.525097 193.486345 
L 381.637825 140.960201 
L 381.7731 140.960201 
L 381.814433 109.776752 
L 381.863282 193.486345 
L 381.874555 193.486345 
L 381.976011 193.486345 
L 381.994799 192.547411 
L 382.084982 193.486345 
L 382.19771 261.216 
L 382.201468 261.216 
L 382.310439 239.584401 
L 382.423168 261.216 
L 382.426925 261.216 
L 382.517108 260.45763 
L 382.629837 205.204966 
L 382.693716 189.026408 
L 382.742565 189.784777 
L 382.787657 189.784777 
L 382.828991 180.756564 
L 382.896628 189.784777 
L 383.031902 189.784777 
L 383.103297 205.963335 
L 383.140873 190.109793 
L 383.216025 190.109793 
L 383.279905 171.060263 
L 383.324996 190.109793 
L 383.482816 190.109793 
L 383.50912 205.963335 
L 383.535423 163.476564 
L 383.584272 163.476564 
L 383.595545 163.476564 
L 383.66694 174.617379 
L 383.670697 153.491361 
L 383.700758 153.491361 
L 383.843548 153.491361 
L 383.937488 229.870044 
L 383.956276 204.338257 
L 384.001368 204.338257 
L 384.095308 229.870044 
L 384.008883 200.907536 
L 384.110339 207.064777 
L 384.181733 207.064777 
L 384.29822 261.216 
L 384.388403 261.216 
L 384.501131 245.543022 
L 384.519919 245.543022 
L 384.632648 261.216 
L 384.816771 261.216 
L 384.925742 253.505906 
L 385.038471 261.216 
L 385.064774 261.216 
L 385.083562 250.671047 
L 385.173745 261.216 
L 385.200048 261.216 
L 385.218836 257.857505 
L 385.309019 261.216 
L 385.493143 261.216 
L 385.579568 241.805342 
L 385.602114 261.216 
L 385.921511 261.216 
L 385.985391 250.508539 
L 386.030482 261.216 
L 387.589894 261.216 
L 387.702623 257.586658 
L 387.721411 257.586658 
L 387.792806 261.216 
L 387.796563 247.998696 
L 387.819109 247.998696 
L 388.037051 247.998696 
L 388.044566 235.341141 
L 388.149779 261.216 
L 388.221174 261.216 
L 388.333903 234.582771 
L 388.378994 234.582771 
L 388.442874 190.976502 
L 388.487965 217.60973 
L 388.510511 217.60973 
L 388.623239 261.216 
L 389.123003 261.216 
L 389.235731 253.23506 
L 389.277065 253.23506 
L 389.280823 261.216 
L 389.352218 203.36321 
L 389.36349 203.36321 
L 389.389794 203.36321 
L 389.502522 258.74227 
L 389.525068 258.74227 
L 389.551371 261.216 
L 389.555129 247.601455 
L 389.619009 247.601455 
L 389.682888 247.601455 
L 389.795617 261.216 
L 390.475746 261.216 
L 390.494534 207.909216 
L 390.588474 236.997517 
L 390.6749 236.997517 
L 390.678657 261.216 
L 390.78387 242.016602 
L 390.83272 242.016602 
L 390.945448 261.216 
L 392.685226 261.216 
L 392.797954 223.936702 
L 392.88438 223.936702 
L 392.955774 261.216 
L 392.993351 227.854947 
L 393.312748 227.854947 
L 393.339052 261.216 
L 393.410446 222.518671 
L 393.421719 222.518671 
L 393.741117 222.518671 
L 393.853845 241.960627 
L 393.857603 241.960627 
L 393.970332 222.518671 
L 393.98912 222.518671 
L 394.101848 241.960627 
L 394.237123 241.960627 
L 394.349851 261.216 
L 396.021992 261.216 
L 396.13472 213.282809 
L 396.288783 213.282809 
L 396.401511 261.216 
L 396.743455 261.216 
L 396.852426 244.778031 
L 396.965154 261.216 
L 397.149277 261.216 
L 397.262006 230.728326 
L 397.325886 230.728326 
L 397.393523 261.216 
L 397.393523 261.216 
" clip-path="url(#p548e79daf1)" style="fill: none; stroke: #014636; stroke-width: 1.5; stroke-linecap: square"/>
   </g>
   <g id="patch_3">
    <path d="M 56.50625 273.312 
L 56.50625 7.2 
" style="fill: none; stroke: #000000; stroke-width: 0.8; stroke-linejoin: miter; stroke-linecap: square"/>
   </g>
   <g id="patch_4">
    <path d="M 413.62625 273.312 
L 413.62625 7.2 
" style="fill: none; stroke: #000000; stroke-width: 0.8; stroke-linejoin: miter; stroke-linecap: square"/>
   </g>
   <g id="patch_5">
    <path d="M 56.50625 273.312 
L 413.62625 273.312 
" style="fill: none; stroke: #000000; stroke-width: 0.8; stroke-linejoin: miter; stroke-linecap: square"/>
   </g>
   <g id="patch_6">
    <path d="M 56.50625 7.2 
L 413.62625 7.2 
" style="fill: none; stroke: #000000; stroke-width: 0.8; stroke-linejoin: miter; stroke-linecap: square"/>
   </g>
  </g>
 </g>
 <defs>
  <clipPath id="p548e79daf1">
   <rect x="56.50625" y="7.2" width="357.12" height="266.112"/>
  </clipPath>
 </defs>
</svg>
