<?xml version="1.0" encoding="utf-8" standalone="no"?>
<!DOCTYPE svg PUBLIC "-//W3C//DTD SVG 1.1//EN"
  "http://www.w3.org/Graphics/SVG/1.1/DTD/svg11.dtd">
<svg xmlns:xlink="http://www.w3.org/1999/xlink" width="420.82625pt" height="310.86825pt" viewBox="0 0 420.82625 310.86825" xmlns="http://www.w3.org/2000/svg" version="1.1">
 <metadata>
  <rdf:RDF xmlns:dc="http://purl.org/dc/elements/1.1/" xmlns:cc="http://creativecommons.org/ns#" xmlns:rdf="http://www.w3.org/1999/02/22-rdf-syntax-ns#">
   <cc:Work>
    <dc:type rdf:resource="http://purl.org/dc/dcmitype/StillImage"/>
    <dc:date>2023-02-13T06:56:17.568917</dc:date>
    <dc:format>image/svg+xml</dc:format>
    <dc:creator>
     <cc:Agent>
      <dc:title>Matplotlib v3.6.3, https://matplotlib.org/</dc:title>
     </cc:Agent>
    </dc:creator>
   </cc:Work>
  </rdf:RDF>
 </metadata>
 <defs>
  <style type="text/css">*{stroke-linejoin: round; stroke-linecap: butt}</style>
 </defs>
 <g id="figure_1">
  <g id="patch_1">
   <path d="M 0 310.86825 
L 420.82625 310.86825 
L 420.82625 0 
L 0 0 
z
" style="fill: #ffffff"/>
  </g>
  <g id="axes_1">
   <g id="patch_2">
    <path d="M 56.50625 273.312 
L 413.62625 273.312 
L 413.62625 7.2 
L 56.50625 7.2 
z
" style="fill: #ffffff"/>
   </g>
   <g id="matplotlib.axis_1">
    <g id="xtick_1">
     <g id="line2d_1">
      <defs>
       <path id="m1361342a2e" d="M 0 0 
L 0 3.5 
" style="stroke: #000000; stroke-width: 0.8"/>
      </defs>
      <g>
       <use xlink:href="#m1361342a2e" x="72.738977" y="273.312" style="stroke: #000000; stroke-width: 0.8"/>
      </g>
     </g>
     <g id="text_1">
      <!-- 0 -->
      <g transform="translate(69.557727 287.910437) scale(0.1 -0.1)">
       <defs>
        <path id="DejaVuSans-30" d="M 2034 4250 
Q 1547 4250 1301 3770 
Q 1056 3291 1056 2328 
Q 1056 1369 1301 889 
Q 1547 409 2034 409 
Q 2525 409 2770 889 
Q 3016 1369 3016 2328 
Q 3016 3291 2770 3770 
Q 2525 4250 2034 4250 
z
M 2034 4750 
Q 2819 4750 3233 4129 
Q 3647 3509 3647 2328 
Q 3647 1150 3233 529 
Q 2819 -91 2034 -91 
Q 1250 -91 836 529 
Q 422 1150 422 2328 
Q 422 3509 836 4129 
Q 1250 4750 2034 4750 
z
" transform="scale(0.015625)"/>
       </defs>
       <use xlink:href="#DejaVuSans-30"/>
      </g>
     </g>
    </g>
    <g id="xtick_2">
     <g id="line2d_2">
      <g>
       <use xlink:href="#m1361342a2e" x="147.891362" y="273.312" style="stroke: #000000; stroke-width: 0.8"/>
      </g>
     </g>
     <g id="text_2">
      <!-- 20000 -->
      <g transform="translate(131.985112 287.910437) scale(0.1 -0.1)">
       <defs>
        <path id="DejaVuSans-32" d="M 1228 531 
L 3431 531 
L 3431 0 
L 469 0 
L 469 531 
Q 828 903 1448 1529 
Q 2069 2156 2228 2338 
Q 2531 2678 2651 2914 
Q 2772 3150 2772 3378 
Q 2772 3750 2511 3984 
Q 2250 4219 1831 4219 
Q 1534 4219 1204 4116 
Q 875 4013 500 3803 
L 500 4441 
Q 881 4594 1212 4672 
Q 1544 4750 1819 4750 
Q 2544 4750 2975 4387 
Q 3406 4025 3406 3419 
Q 3406 3131 3298 2873 
Q 3191 2616 2906 2266 
Q 2828 2175 2409 1742 
Q 1991 1309 1228 531 
z
" transform="scale(0.015625)"/>
       </defs>
       <use xlink:href="#DejaVuSans-32"/>
       <use xlink:href="#DejaVuSans-30" x="63.623047"/>
       <use xlink:href="#DejaVuSans-30" x="127.246094"/>
       <use xlink:href="#DejaVuSans-30" x="190.869141"/>
       <use xlink:href="#DejaVuSans-30" x="254.492188"/>
      </g>
     </g>
    </g>
    <g id="xtick_3">
     <g id="line2d_3">
      <g>
       <use xlink:href="#m1361342a2e" x="223.043747" y="273.312" style="stroke: #000000; stroke-width: 0.8"/>
      </g>
     </g>
     <g id="text_3">
      <!-- 40000 -->
      <g transform="translate(207.137497 287.910437) scale(0.1 -0.1)">
       <defs>
        <path id="DejaVuSans-34" d="M 2419 4116 
L 825 1625 
L 2419 1625 
L 2419 4116 
z
M 2253 4666 
L 3047 4666 
L 3047 1625 
L 3713 1625 
L 3713 1100 
L 3047 1100 
L 3047 0 
L 2419 0 
L 2419 1100 
L 313 1100 
L 313 1709 
L 2253 4666 
z
" transform="scale(0.015625)"/>
       </defs>
       <use xlink:href="#DejaVuSans-34"/>
       <use xlink:href="#DejaVuSans-30" x="63.623047"/>
       <use xlink:href="#DejaVuSans-30" x="127.246094"/>
       <use xlink:href="#DejaVuSans-30" x="190.869141"/>
       <use xlink:href="#DejaVuSans-30" x="254.492188"/>
      </g>
     </g>
    </g>
    <g id="xtick_4">
     <g id="line2d_4">
      <g>
       <use xlink:href="#m1361342a2e" x="298.196132" y="273.312" style="stroke: #000000; stroke-width: 0.8"/>
      </g>
     </g>
     <g id="text_4">
      <!-- 60000 -->
      <g transform="translate(282.289882 287.910437) scale(0.1 -0.1)">
       <defs>
        <path id="DejaVuSans-36" d="M 2113 2584 
Q 1688 2584 1439 2293 
Q 1191 2003 1191 1497 
Q 1191 994 1439 701 
Q 1688 409 2113 409 
Q 2538 409 2786 701 
Q 3034 994 3034 1497 
Q 3034 2003 2786 2293 
Q 2538 2584 2113 2584 
z
M 3366 4563 
L 3366 3988 
Q 3128 4100 2886 4159 
Q 2644 4219 2406 4219 
Q 1781 4219 1451 3797 
Q 1122 3375 1075 2522 
Q 1259 2794 1537 2939 
Q 1816 3084 2150 3084 
Q 2853 3084 3261 2657 
Q 3669 2231 3669 1497 
Q 3669 778 3244 343 
Q 2819 -91 2113 -91 
Q 1303 -91 875 529 
Q 447 1150 447 2328 
Q 447 3434 972 4092 
Q 1497 4750 2381 4750 
Q 2619 4750 2861 4703 
Q 3103 4656 3366 4563 
z
" transform="scale(0.015625)"/>
       </defs>
       <use xlink:href="#DejaVuSans-36"/>
       <use xlink:href="#DejaVuSans-30" x="63.623047"/>
       <use xlink:href="#DejaVuSans-30" x="127.246094"/>
       <use xlink:href="#DejaVuSans-30" x="190.869141"/>
       <use xlink:href="#DejaVuSans-30" x="254.492188"/>
      </g>
     </g>
    </g>
    <g id="xtick_5">
     <g id="line2d_5">
      <g>
       <use xlink:href="#m1361342a2e" x="373.348517" y="273.312" style="stroke: #000000; stroke-width: 0.8"/>
      </g>
     </g>
     <g id="text_5">
      <!-- 80000 -->
      <g transform="translate(357.442267 287.910437) scale(0.1 -0.1)">
       <defs>
        <path id="DejaVuSans-38" d="M 2034 2216 
Q 1584 2216 1326 1975 
Q 1069 1734 1069 1313 
Q 1069 891 1326 650 
Q 1584 409 2034 409 
Q 2484 409 2743 651 
Q 3003 894 3003 1313 
Q 3003 1734 2745 1975 
Q 2488 2216 2034 2216 
z
M 1403 2484 
Q 997 2584 770 2862 
Q 544 3141 544 3541 
Q 544 4100 942 4425 
Q 1341 4750 2034 4750 
Q 2731 4750 3128 4425 
Q 3525 4100 3525 3541 
Q 3525 3141 3298 2862 
Q 3072 2584 2669 2484 
Q 3125 2378 3379 2068 
Q 3634 1759 3634 1313 
Q 3634 634 3220 271 
Q 2806 -91 2034 -91 
Q 1263 -91 848 271 
Q 434 634 434 1313 
Q 434 1759 690 2068 
Q 947 2378 1403 2484 
z
M 1172 3481 
Q 1172 3119 1398 2916 
Q 1625 2713 2034 2713 
Q 2441 2713 2670 2916 
Q 2900 3119 2900 3481 
Q 2900 3844 2670 4047 
Q 2441 4250 2034 4250 
Q 1625 4250 1398 4047 
Q 1172 3844 1172 3481 
z
" transform="scale(0.015625)"/>
       </defs>
       <use xlink:href="#DejaVuSans-38"/>
       <use xlink:href="#DejaVuSans-30" x="63.623047"/>
       <use xlink:href="#DejaVuSans-30" x="127.246094"/>
       <use xlink:href="#DejaVuSans-30" x="190.869141"/>
       <use xlink:href="#DejaVuSans-30" x="254.492188"/>
      </g>
     </g>
    </g>
    <g id="text_6">
     <!-- Time (seconds) -->
     <g transform="translate(196.904531 301.588562) scale(0.1 -0.1)">
      <defs>
       <path id="DejaVuSans-54" d="M -19 4666 
L 3928 4666 
L 3928 4134 
L 2272 4134 
L 2272 0 
L 1638 0 
L 1638 4134 
L -19 4134 
L -19 4666 
z
" transform="scale(0.015625)"/>
       <path id="DejaVuSans-69" d="M 603 3500 
L 1178 3500 
L 1178 0 
L 603 0 
L 603 3500 
z
M 603 4863 
L 1178 4863 
L 1178 4134 
L 603 4134 
L 603 4863 
z
" transform="scale(0.015625)"/>
       <path id="DejaVuSans-6d" d="M 3328 2828 
Q 3544 3216 3844 3400 
Q 4144 3584 4550 3584 
Q 5097 3584 5394 3201 
Q 5691 2819 5691 2113 
L 5691 0 
L 5113 0 
L 5113 2094 
Q 5113 2597 4934 2840 
Q 4756 3084 4391 3084 
Q 3944 3084 3684 2787 
Q 3425 2491 3425 1978 
L 3425 0 
L 2847 0 
L 2847 2094 
Q 2847 2600 2669 2842 
Q 2491 3084 2119 3084 
Q 1678 3084 1418 2786 
Q 1159 2488 1159 1978 
L 1159 0 
L 581 0 
L 581 3500 
L 1159 3500 
L 1159 2956 
Q 1356 3278 1631 3431 
Q 1906 3584 2284 3584 
Q 2666 3584 2933 3390 
Q 3200 3197 3328 2828 
z
" transform="scale(0.015625)"/>
       <path id="DejaVuSans-65" d="M 3597 1894 
L 3597 1613 
L 953 1613 
Q 991 1019 1311 708 
Q 1631 397 2203 397 
Q 2534 397 2845 478 
Q 3156 559 3463 722 
L 3463 178 
Q 3153 47 2828 -22 
Q 2503 -91 2169 -91 
Q 1331 -91 842 396 
Q 353 884 353 1716 
Q 353 2575 817 3079 
Q 1281 3584 2069 3584 
Q 2775 3584 3186 3129 
Q 3597 2675 3597 1894 
z
M 3022 2063 
Q 3016 2534 2758 2815 
Q 2500 3097 2075 3097 
Q 1594 3097 1305 2825 
Q 1016 2553 972 2059 
L 3022 2063 
z
" transform="scale(0.015625)"/>
       <path id="DejaVuSans-20" transform="scale(0.015625)"/>
       <path id="DejaVuSans-28" d="M 1984 4856 
Q 1566 4138 1362 3434 
Q 1159 2731 1159 2009 
Q 1159 1288 1364 580 
Q 1569 -128 1984 -844 
L 1484 -844 
Q 1016 -109 783 600 
Q 550 1309 550 2009 
Q 550 2706 781 3412 
Q 1013 4119 1484 4856 
L 1984 4856 
z
" transform="scale(0.015625)"/>
       <path id="DejaVuSans-73" d="M 2834 3397 
L 2834 2853 
Q 2591 2978 2328 3040 
Q 2066 3103 1784 3103 
Q 1356 3103 1142 2972 
Q 928 2841 928 2578 
Q 928 2378 1081 2264 
Q 1234 2150 1697 2047 
L 1894 2003 
Q 2506 1872 2764 1633 
Q 3022 1394 3022 966 
Q 3022 478 2636 193 
Q 2250 -91 1575 -91 
Q 1294 -91 989 -36 
Q 684 19 347 128 
L 347 722 
Q 666 556 975 473 
Q 1284 391 1588 391 
Q 1994 391 2212 530 
Q 2431 669 2431 922 
Q 2431 1156 2273 1281 
Q 2116 1406 1581 1522 
L 1381 1569 
Q 847 1681 609 1914 
Q 372 2147 372 2553 
Q 372 3047 722 3315 
Q 1072 3584 1716 3584 
Q 2034 3584 2315 3537 
Q 2597 3491 2834 3397 
z
" transform="scale(0.015625)"/>
       <path id="DejaVuSans-63" d="M 3122 3366 
L 3122 2828 
Q 2878 2963 2633 3030 
Q 2388 3097 2138 3097 
Q 1578 3097 1268 2742 
Q 959 2388 959 1747 
Q 959 1106 1268 751 
Q 1578 397 2138 397 
Q 2388 397 2633 464 
Q 2878 531 3122 666 
L 3122 134 
Q 2881 22 2623 -34 
Q 2366 -91 2075 -91 
Q 1284 -91 818 406 
Q 353 903 353 1747 
Q 353 2603 823 3093 
Q 1294 3584 2113 3584 
Q 2378 3584 2631 3529 
Q 2884 3475 3122 3366 
z
" transform="scale(0.015625)"/>
       <path id="DejaVuSans-6f" d="M 1959 3097 
Q 1497 3097 1228 2736 
Q 959 2375 959 1747 
Q 959 1119 1226 758 
Q 1494 397 1959 397 
Q 2419 397 2687 759 
Q 2956 1122 2956 1747 
Q 2956 2369 2687 2733 
Q 2419 3097 1959 3097 
z
M 1959 3584 
Q 2709 3584 3137 3096 
Q 3566 2609 3566 1747 
Q 3566 888 3137 398 
Q 2709 -91 1959 -91 
Q 1206 -91 779 398 
Q 353 888 353 1747 
Q 353 2609 779 3096 
Q 1206 3584 1959 3584 
z
" transform="scale(0.015625)"/>
       <path id="DejaVuSans-6e" d="M 3513 2113 
L 3513 0 
L 2938 0 
L 2938 2094 
Q 2938 2591 2744 2837 
Q 2550 3084 2163 3084 
Q 1697 3084 1428 2787 
Q 1159 2491 1159 1978 
L 1159 0 
L 581 0 
L 581 3500 
L 1159 3500 
L 1159 2956 
Q 1366 3272 1645 3428 
Q 1925 3584 2291 3584 
Q 2894 3584 3203 3211 
Q 3513 2838 3513 2113 
z
" transform="scale(0.015625)"/>
       <path id="DejaVuSans-64" d="M 2906 2969 
L 2906 4863 
L 3481 4863 
L 3481 0 
L 2906 0 
L 2906 525 
Q 2725 213 2448 61 
Q 2172 -91 1784 -91 
Q 1150 -91 751 415 
Q 353 922 353 1747 
Q 353 2572 751 3078 
Q 1150 3584 1784 3584 
Q 2172 3584 2448 3432 
Q 2725 3281 2906 2969 
z
M 947 1747 
Q 947 1113 1208 752 
Q 1469 391 1925 391 
Q 2381 391 2643 752 
Q 2906 1113 2906 1747 
Q 2906 2381 2643 2742 
Q 2381 3103 1925 3103 
Q 1469 3103 1208 2742 
Q 947 2381 947 1747 
z
" transform="scale(0.015625)"/>
       <path id="DejaVuSans-29" d="M 513 4856 
L 1013 4856 
Q 1481 4119 1714 3412 
Q 1947 2706 1947 2009 
Q 1947 1309 1714 600 
Q 1481 -109 1013 -844 
L 513 -844 
Q 928 -128 1133 580 
Q 1338 1288 1338 2009 
Q 1338 2731 1133 3434 
Q 928 4138 513 4856 
z
" transform="scale(0.015625)"/>
      </defs>
      <use xlink:href="#DejaVuSans-54"/>
      <use xlink:href="#DejaVuSans-69" x="57.958984"/>
      <use xlink:href="#DejaVuSans-6d" x="85.742188"/>
      <use xlink:href="#DejaVuSans-65" x="183.154297"/>
      <use xlink:href="#DejaVuSans-20" x="244.677734"/>
      <use xlink:href="#DejaVuSans-28" x="276.464844"/>
      <use xlink:href="#DejaVuSans-73" x="315.478516"/>
      <use xlink:href="#DejaVuSans-65" x="367.578125"/>
      <use xlink:href="#DejaVuSans-63" x="429.101562"/>
      <use xlink:href="#DejaVuSans-6f" x="484.082031"/>
      <use xlink:href="#DejaVuSans-6e" x="545.263672"/>
      <use xlink:href="#DejaVuSans-64" x="608.642578"/>
      <use xlink:href="#DejaVuSans-73" x="672.119141"/>
      <use xlink:href="#DejaVuSans-29" x="724.21875"/>
     </g>
    </g>
   </g>
   <g id="matplotlib.axis_2">
    <g id="ytick_1">
     <g id="line2d_6">
      <defs>
       <path id="m6b47687318" d="M 0 0 
L -3.5 0 
" style="stroke: #000000; stroke-width: 0.8"/>
      </defs>
      <g>
       <use xlink:href="#m6b47687318" x="56.50625" y="261.216" style="stroke: #000000; stroke-width: 0.8"/>
      </g>
     </g>
     <g id="text_7">
      <!-- 0.000 -->
      <g transform="translate(20.878125 265.015219) scale(0.1 -0.1)">
       <defs>
        <path id="DejaVuSans-2e" d="M 684 794 
L 1344 794 
L 1344 0 
L 684 0 
L 684 794 
z
" transform="scale(0.015625)"/>
       </defs>
       <use xlink:href="#DejaVuSans-30"/>
       <use xlink:href="#DejaVuSans-2e" x="63.623047"/>
       <use xlink:href="#DejaVuSans-30" x="95.410156"/>
       <use xlink:href="#DejaVuSans-30" x="159.033203"/>
       <use xlink:href="#DejaVuSans-30" x="222.65625"/>
      </g>
     </g>
    </g>
    <g id="ytick_2">
     <g id="line2d_7">
      <g>
       <use xlink:href="#m6b47687318" x="56.50625" y="215.75518" style="stroke: #000000; stroke-width: 0.8"/>
      </g>
     </g>
     <g id="text_8">
      <!-- 0.001 -->
      <g transform="translate(20.878125 219.554398) scale(0.1 -0.1)">
       <defs>
        <path id="DejaVuSans-31" d="M 794 531 
L 1825 531 
L 1825 4091 
L 703 3866 
L 703 4441 
L 1819 4666 
L 2450 4666 
L 2450 531 
L 3481 531 
L 3481 0 
L 794 0 
L 794 531 
z
" transform="scale(0.015625)"/>
       </defs>
       <use xlink:href="#DejaVuSans-30"/>
       <use xlink:href="#DejaVuSans-2e" x="63.623047"/>
       <use xlink:href="#DejaVuSans-30" x="95.410156"/>
       <use xlink:href="#DejaVuSans-30" x="159.033203"/>
       <use xlink:href="#DejaVuSans-31" x="222.65625"/>
      </g>
     </g>
    </g>
    <g id="ytick_3">
     <g id="line2d_8">
      <g>
       <use xlink:href="#m6b47687318" x="56.50625" y="170.294359" style="stroke: #000000; stroke-width: 0.8"/>
      </g>
     </g>
     <g id="text_9">
      <!-- 0.002 -->
      <g transform="translate(20.878125 174.093578) scale(0.1 -0.1)">
       <use xlink:href="#DejaVuSans-30"/>
       <use xlink:href="#DejaVuSans-2e" x="63.623047"/>
       <use xlink:href="#DejaVuSans-30" x="95.410156"/>
       <use xlink:href="#DejaVuSans-30" x="159.033203"/>
       <use xlink:href="#DejaVuSans-32" x="222.65625"/>
      </g>
     </g>
    </g>
    <g id="ytick_4">
     <g id="line2d_9">
      <g>
       <use xlink:href="#m6b47687318" x="56.50625" y="124.833539" style="stroke: #000000; stroke-width: 0.8"/>
      </g>
     </g>
     <g id="text_10">
      <!-- 0.003 -->
      <g transform="translate(20.878125 128.632758) scale(0.1 -0.1)">
       <defs>
        <path id="DejaVuSans-33" d="M 2597 2516 
Q 3050 2419 3304 2112 
Q 3559 1806 3559 1356 
Q 3559 666 3084 287 
Q 2609 -91 1734 -91 
Q 1441 -91 1130 -33 
Q 819 25 488 141 
L 488 750 
Q 750 597 1062 519 
Q 1375 441 1716 441 
Q 2309 441 2620 675 
Q 2931 909 2931 1356 
Q 2931 1769 2642 2001 
Q 2353 2234 1838 2234 
L 1294 2234 
L 1294 2753 
L 1863 2753 
Q 2328 2753 2575 2939 
Q 2822 3125 2822 3475 
Q 2822 3834 2567 4026 
Q 2313 4219 1838 4219 
Q 1578 4219 1281 4162 
Q 984 4106 628 3988 
L 628 4550 
Q 988 4650 1302 4700 
Q 1616 4750 1894 4750 
Q 2613 4750 3031 4423 
Q 3450 4097 3450 3541 
Q 3450 3153 3228 2886 
Q 3006 2619 2597 2516 
z
" transform="scale(0.015625)"/>
       </defs>
       <use xlink:href="#DejaVuSans-30"/>
       <use xlink:href="#DejaVuSans-2e" x="63.623047"/>
       <use xlink:href="#DejaVuSans-30" x="95.410156"/>
       <use xlink:href="#DejaVuSans-30" x="159.033203"/>
       <use xlink:href="#DejaVuSans-33" x="222.65625"/>
      </g>
     </g>
    </g>
    <g id="ytick_5">
     <g id="line2d_10">
      <g>
       <use xlink:href="#m6b47687318" x="56.50625" y="79.372719" style="stroke: #000000; stroke-width: 0.8"/>
      </g>
     </g>
     <g id="text_11">
      <!-- 0.004 -->
      <g transform="translate(20.878125 83.171937) scale(0.1 -0.1)">
       <use xlink:href="#DejaVuSans-30"/>
       <use xlink:href="#DejaVuSans-2e" x="63.623047"/>
       <use xlink:href="#DejaVuSans-30" x="95.410156"/>
       <use xlink:href="#DejaVuSans-30" x="159.033203"/>
       <use xlink:href="#DejaVuSans-34" x="222.65625"/>
      </g>
     </g>
    </g>
    <g id="ytick_6">
     <g id="line2d_11">
      <g>
       <use xlink:href="#m6b47687318" x="56.50625" y="33.911898" style="stroke: #000000; stroke-width: 0.8"/>
      </g>
     </g>
     <g id="text_12">
      <!-- 0.005 -->
      <g transform="translate(20.878125 37.711117) scale(0.1 -0.1)">
       <defs>
        <path id="DejaVuSans-35" d="M 691 4666 
L 3169 4666 
L 3169 4134 
L 1269 4134 
L 1269 2991 
Q 1406 3038 1543 3061 
Q 1681 3084 1819 3084 
Q 2600 3084 3056 2656 
Q 3513 2228 3513 1497 
Q 3513 744 3044 326 
Q 2575 -91 1722 -91 
Q 1428 -91 1123 -41 
Q 819 9 494 109 
L 494 744 
Q 775 591 1075 516 
Q 1375 441 1709 441 
Q 2250 441 2565 725 
Q 2881 1009 2881 1497 
Q 2881 1984 2565 2268 
Q 2250 2553 1709 2553 
Q 1456 2553 1204 2497 
Q 953 2441 691 2322 
L 691 4666 
z
" transform="scale(0.015625)"/>
       </defs>
       <use xlink:href="#DejaVuSans-30"/>
       <use xlink:href="#DejaVuSans-2e" x="63.623047"/>
       <use xlink:href="#DejaVuSans-30" x="95.410156"/>
       <use xlink:href="#DejaVuSans-30" x="159.033203"/>
       <use xlink:href="#DejaVuSans-35" x="222.65625"/>
      </g>
     </g>
    </g>
    <g id="text_13">
     <!-- Water (gallons) -->
     <g transform="translate(14.798437 178.377094) rotate(-90) scale(0.1 -0.1)">
      <defs>
       <path id="DejaVuSans-57" d="M 213 4666 
L 850 4666 
L 1831 722 
L 2809 4666 
L 3519 4666 
L 4500 722 
L 5478 4666 
L 6119 4666 
L 4947 0 
L 4153 0 
L 3169 4050 
L 2175 0 
L 1381 0 
L 213 4666 
z
" transform="scale(0.015625)"/>
       <path id="DejaVuSans-61" d="M 2194 1759 
Q 1497 1759 1228 1600 
Q 959 1441 959 1056 
Q 959 750 1161 570 
Q 1363 391 1709 391 
Q 2188 391 2477 730 
Q 2766 1069 2766 1631 
L 2766 1759 
L 2194 1759 
z
M 3341 1997 
L 3341 0 
L 2766 0 
L 2766 531 
Q 2569 213 2275 61 
Q 1981 -91 1556 -91 
Q 1019 -91 701 211 
Q 384 513 384 1019 
Q 384 1609 779 1909 
Q 1175 2209 1959 2209 
L 2766 2209 
L 2766 2266 
Q 2766 2663 2505 2880 
Q 2244 3097 1772 3097 
Q 1472 3097 1187 3025 
Q 903 2953 641 2809 
L 641 3341 
Q 956 3463 1253 3523 
Q 1550 3584 1831 3584 
Q 2591 3584 2966 3190 
Q 3341 2797 3341 1997 
z
" transform="scale(0.015625)"/>
       <path id="DejaVuSans-74" d="M 1172 4494 
L 1172 3500 
L 2356 3500 
L 2356 3053 
L 1172 3053 
L 1172 1153 
Q 1172 725 1289 603 
Q 1406 481 1766 481 
L 2356 481 
L 2356 0 
L 1766 0 
Q 1100 0 847 248 
Q 594 497 594 1153 
L 594 3053 
L 172 3053 
L 172 3500 
L 594 3500 
L 594 4494 
L 1172 4494 
z
" transform="scale(0.015625)"/>
       <path id="DejaVuSans-72" d="M 2631 2963 
Q 2534 3019 2420 3045 
Q 2306 3072 2169 3072 
Q 1681 3072 1420 2755 
Q 1159 2438 1159 1844 
L 1159 0 
L 581 0 
L 581 3500 
L 1159 3500 
L 1159 2956 
Q 1341 3275 1631 3429 
Q 1922 3584 2338 3584 
Q 2397 3584 2469 3576 
Q 2541 3569 2628 3553 
L 2631 2963 
z
" transform="scale(0.015625)"/>
       <path id="DejaVuSans-67" d="M 2906 1791 
Q 2906 2416 2648 2759 
Q 2391 3103 1925 3103 
Q 1463 3103 1205 2759 
Q 947 2416 947 1791 
Q 947 1169 1205 825 
Q 1463 481 1925 481 
Q 2391 481 2648 825 
Q 2906 1169 2906 1791 
z
M 3481 434 
Q 3481 -459 3084 -895 
Q 2688 -1331 1869 -1331 
Q 1566 -1331 1297 -1286 
Q 1028 -1241 775 -1147 
L 775 -588 
Q 1028 -725 1275 -790 
Q 1522 -856 1778 -856 
Q 2344 -856 2625 -561 
Q 2906 -266 2906 331 
L 2906 616 
Q 2728 306 2450 153 
Q 2172 0 1784 0 
Q 1141 0 747 490 
Q 353 981 353 1791 
Q 353 2603 747 3093 
Q 1141 3584 1784 3584 
Q 2172 3584 2450 3431 
Q 2728 3278 2906 2969 
L 2906 3500 
L 3481 3500 
L 3481 434 
z
" transform="scale(0.015625)"/>
       <path id="DejaVuSans-6c" d="M 603 4863 
L 1178 4863 
L 1178 0 
L 603 0 
L 603 4863 
z
" transform="scale(0.015625)"/>
      </defs>
      <use xlink:href="#DejaVuSans-57"/>
      <use xlink:href="#DejaVuSans-61" x="92.501953"/>
      <use xlink:href="#DejaVuSans-74" x="153.78125"/>
      <use xlink:href="#DejaVuSans-65" x="192.990234"/>
      <use xlink:href="#DejaVuSans-72" x="254.513672"/>
      <use xlink:href="#DejaVuSans-20" x="295.626953"/>
      <use xlink:href="#DejaVuSans-28" x="327.414062"/>
      <use xlink:href="#DejaVuSans-67" x="366.427734"/>
      <use xlink:href="#DejaVuSans-61" x="429.904297"/>
      <use xlink:href="#DejaVuSans-6c" x="491.183594"/>
      <use xlink:href="#DejaVuSans-6c" x="518.966797"/>
      <use xlink:href="#DejaVuSans-6f" x="546.75"/>
      <use xlink:href="#DejaVuSans-6e" x="607.931641"/>
      <use xlink:href="#DejaVuSans-73" x="671.310547"/>
      <use xlink:href="#DejaVuSans-29" x="723.410156"/>
     </g>
    </g>
   </g>
   <g id="line2d_12">
    <path d="M 72.738977 250.456939 
L 72.802857 250.456939 
L 72.896797 261.216 
L 72.900555 248.36069 
L 72.911828 248.36069 
L 72.938131 248.36069 
L 73.05086 261.216 
L 73.347712 261.216 
L 73.3665 236.919717 
L 73.456683 261.216 
L 73.77608 261.216 
L 73.888809 227.196153 
L 74.087963 227.196153 
L 74.200691 261.216 
L 75.016095 261.216 
L 75.034883 259.246031 
L 75.125065 261.216 
L 76.549203 261.216 
L 76.613083 223.306727 
L 76.658174 261.216 
L 80.381975 261.216 
L 80.494703 242.933907 
L 80.738949 242.933907 
L 80.810343 261.216 
L 80.851677 260.213907 
L 81.234954 260.213907 
L 81.261258 261.216 
L 81.373986 235.577075 
L 81.460412 235.577075 
L 81.57314 261.216 
L 81.689626 261.216 
L 81.753506 248.946467 
L 81.798597 261.216 
L 86.649684 261.216 
L 86.668472 253.932492 
L 86.758655 261.216 
L 87.078052 261.216 
L 87.09684 257.818659 
L 87.187023 261.216 
L 87.528967 261.216 
L 87.5703 230.762139 
L 87.637938 261.216 
L 87.957335 261.216 
L 88.04376 235.308221 
L 88.066306 261.216 
L 100.763302 261.216 
L 100.78209 252.75931 
L 100.872273 261.216 
L 103.919702 261.216 
L 104.006127 236.60361 
L 104.028673 261.216 
L 111.404879 261.216 
L 111.517608 251.952747 
L 111.536396 251.952747 
L 111.649125 261.216 
L 113.569268 261.216 
L 113.588056 251.854982 
L 113.678239 261.216 
L 113.997637 261.216 
L 114.110365 225.89832 
L 114.151699 225.89832 
L 114.264428 261.216 
L 114.426005 261.216 
L 114.538734 223.64972 
L 114.580068 223.64972 
L 114.692796 261.216 
L 114.87692 261.216 
L 114.989648 233.524006 
L 115.098619 233.524006 
L 115.211348 261.216 
L 115.305288 261.216 
L 115.324076 222.867598 
L 115.414259 261.216 
L 115.733657 261.216 
L 115.752445 234.061714 
L 115.842628 261.216 
L 121.144628 261.216 
L 121.257357 225.458376 
L 121.501602 225.458376 
L 121.614331 261.216 
L 123.579566 261.216 
L 123.688537 219.543581 
L 123.801265 261.216 
L 125.541043 261.216 
L 125.559831 249.679706 
L 125.650014 261.216 
L 125.991957 261.216 
L 126.104686 237.630144 
L 126.14602 237.630144 
L 126.258748 261.216 
L 126.420326 261.216 
L 126.533054 241.6874 
L 126.551843 241.6874 
L 126.664571 261.216 
L 126.848694 261.216 
L 126.867483 250.217414 
L 126.957665 261.216 
L 127.299609 261.216 
L 127.318397 239.389918 
L 127.40858 261.216 
L 127.727977 261.216 
L 127.814403 218.565929 
L 127.836948 261.216 
L 128.156346 261.216 
L 128.175134 257.598687 
L 128.265317 261.216 
L 136.430624 261.216 
L 136.543352 215.926269 
L 137.418877 215.926269 
L 137.531606 261.216 
L 140.827038 261.216 
L 140.939767 235.552634 
L 141.071283 235.552634 
L 141.184012 261.216 
L 141.255407 261.216 
L 141.368135 217.979338 
L 141.522198 217.979338 
L 141.634926 261.216 
L 141.706321 261.216 
L 141.81905 234.403893 
L 142.018203 234.403893 
L 142.130932 261.216 
L 143.307067 261.216 
L 143.419795 240.098716 
L 143.757981 240.098716 
L 143.821861 225.89832 
L 143.866952 240.098716 
L 144.18635 240.098716 
L 144.302836 191.582733 
L 144.340412 191.582733 
L 144.453141 211.795689 
L 144.498232 211.795689 
L 144.610961 240.098716 
L 144.614718 240.098716 
L 144.656052 231.715349 
L 144.723689 240.098716 
L 144.858964 240.098716 
L 144.971692 261.216 
L 144.997995 261.216 
L 145.106966 206.834105 
L 145.114482 222.843157 
L 145.13327 222.843157 
L 145.219695 202.727966 
L 145.223453 241.100809 
L 145.238483 241.100809 
L 145.44891 241.100809 
L 145.512789 200.259395 
L 145.539093 247.113369 
L 145.557881 247.113369 
L 145.584184 247.113369 
L 145.696913 235.454868 
L 145.715701 235.454868 
L 145.828429 247.113369 
L 145.873521 247.113369 
L 145.877278 261.216 
L 145.926127 206.858546 
L 145.978734 225.556141 
L 145.986249 225.556141 
L 146.012553 261.216 
L 146.098978 241.003044 
L 146.279344 241.003044 
L 146.392072 261.216 
L 146.440921 261.216 
L 146.459709 225.605024 
L 146.55365 235.137132 
L 146.685166 235.137132 
L 146.688924 261.216 
L 146.760319 224.627372 
L 146.794137 224.627372 
L 146.865532 224.627372 
L 146.978261 237.434614 
L 147.094747 237.434614 
L 147.113535 232.155293 
L 147.139838 261.216 
L 147.207476 233.401799 
L 147.226264 233.401799 
L 147.338992 261.216 
L 147.523116 261.216 
L 147.643359 213.70211 
L 147.767361 213.70211 
L 147.880089 229.637839 
L 148.015364 229.637839 
L 148.064213 261.216 
L 148.124335 238.143412 
L 148.492581 238.143412 
L 148.511369 219.152521 
L 148.515127 242.225109 
L 148.601552 242.225109 
L 148.650401 242.225109 
L 148.76313 185.594614 
L 149.075012 185.594614 
L 149.123861 204.585505 
L 149.127619 120.336339 
L 149.168953 164.184034 
L 149.281681 95.406212 
L 149.390652 95.406212 
L 149.503381 164.184034 
L 150.472847 164.184034 
L 150.585575 204.585505 
L 151.085339 204.585505 
L 151.198067 191.998235 
L 151.284492 191.998235 
L 151.397221 204.585505 
L 151.577587 204.585505 
L 151.690315 261.216 
L 151.784256 261.216 
L 151.803044 243.667146 
L 151.893227 261.216 
L 152.099896 261.216 
L 152.212624 237.850116 
L 152.23517 237.850116 
L 152.389232 220.594557 
L 152.509476 261.216 
L 152.663539 261.216 
L 152.776267 240.587542 
L 152.997967 240.587542 
L 153.091907 261.216 
L 153.110695 252.514897 
L 153.24597 252.514897 
L 153.358698 261.216 
L 153.903553 261.216 
L 154.016282 247.13781 
L 154.125253 247.13781 
L 154.237981 261.216 
L 155.301387 261.216 
L 155.414116 242.885024 
L 155.432904 242.885024 
L 155.545633 261.216 
L 155.684665 261.216 
L 155.797393 223.698603 
L 155.932667 223.698603 
L 155.951456 215.095264 
L 156.041638 222.745392 
L 156.08673 222.745392 
L 156.090487 223.698603 
L 156.094245 203.412322 
L 156.120548 203.412322 
L 156.176913 203.412322 
L 156.289641 223.698603 
L 156.473765 223.698603 
L 156.492553 222.232124 
L 156.582736 223.698603 
L 156.947225 223.698603 
L 157.059953 191.631615 
L 157.236561 191.631615 
L 157.34929 261.216 
L 158.07451 261.216 
L 158.187239 217.539395 
L 158.254876 217.539395 
L 158.363847 196.666523 
L 158.476576 217.539395 
L 158.795973 217.539395 
L 158.882399 172.640724 
L 158.904944 217.539395 
L 158.908702 217.539395 
L 159.02143 175.280385 
L 159.107856 175.280385 
L 159.220584 217.539395 
L 159.265676 217.539395 
L 159.378404 261.216 
L 159.427253 261.216 
L 159.536224 235.234897 
L 159.648953 261.216 
L 160.329082 261.216 
L 160.445568 193.709126 
L 160.779996 193.709126 
L 160.892725 170.660979 
L 161.069333 170.660979 
L 161.095636 193.709126 
L 161.099394 166.701488 
L 161.178304 166.701488 
L 161.230911 166.701488 
L 161.339882 136.540922 
L 161.460125 234.208362 
L 161.475156 234.208362 
L 161.587884 261.216 
L 162.583654 261.216 
L 162.696382 225.776113 
L 163.553119 225.776113 
L 163.571907 189.749635 
L 163.66209 225.776113 
L 163.81991 225.776113 
L 163.932639 261.216 
L 164.004034 261.216 
L 164.116762 250.804006 
L 164.270825 250.804006 
L 164.383553 261.216 
L 164.500039 261.216 
L 164.518827 257.720894 
L 164.60901 261.216 
L 164.680405 261.216 
L 164.793134 253.88361 
L 164.834467 253.88361 
L 164.883316 261.216 
L 164.887074 240.294246 
L 164.928408 240.294246 
L 165.041136 210.426976 
L 165.105016 210.426976 
L 165.217745 231.34873 
L 165.334231 231.34873 
L 165.454475 129.452945 
L 165.488293 129.452945 
L 165.608537 185.203553 
L 165.623567 185.203553 
L 165.736296 215.070823 
L 166.66067 215.070823 
L 166.773399 261.216 
L 167.092797 261.216 
L 167.205525 238.070088 
L 167.521165 238.070088 
L 167.539953 208.838291 
L 167.630136 231.984204 
L 167.633894 231.984204 
L 167.675228 230.98211 
L 167.787956 260.213907 
L 167.859351 260.213907 
L 167.968322 242.225109 
L 168.062262 260.213907 
L 168.06602 230.444402 
L 168.073535 230.444402 
L 168.08105 230.444402 
L 168.088566 218.223751 
L 168.193779 261.216 
L 168.310265 261.216 
L 168.422994 250.999536 
L 168.509419 250.999536 
L 168.535722 261.216 
L 168.53948 241.247457 
L 168.614632 241.247457 
L 168.757422 241.247457 
L 168.76118 261.216 
L 168.866393 243.716028 
L 168.892696 243.716028 
L 168.967849 226.264939 
L 169.005425 261.216 
L 169.189548 261.216 
L 169.302277 249.630823 
L 169.39246 249.630823 
L 169.433793 229.515632 
L 169.482642 261.216 
L 169.497673 261.216 
L 169.617917 261.216 
L 169.636705 197.204232 
L 169.730645 215.38856 
L 169.820828 215.38856 
L 169.839616 188.014303 
L 169.929799 215.38856 
L 170.068831 215.38856 
L 170.087619 123.440385 
L 170.177802 187.549918 
L 170.245439 187.549918 
L 170.316834 215.38856 
L 170.2755 175.9403 
L 170.358168 211.184656 
L 170.380713 211.184656 
L 170.493442 215.38856 
L 170.4972 215.38856 
L 170.632474 173.153992 
L 170.651262 173.153992 
L 170.767748 254.690173 
L 170.993205 254.690173 
L 171.057085 222.672068 
L 171.083388 261.216 
L 171.102176 261.216 
L 171.196117 261.216 
L 171.308845 207.836198 
L 171.353937 207.836198 
L 171.440362 202.459112 
L 171.462908 207.836198 
L 171.804851 207.836198 
L 171.823639 192.780356 
L 171.913822 207.836198 
L 172.030308 207.836198 
L 172.143037 185.056905 
L 172.23322 185.056905 
L 172.297099 92.766552 
L 172.349706 127.10658 
L 172.432374 127.10658 
L 172.545102 180.486382 
L 172.639043 180.486382 
L 172.755529 106.966948 
L 172.860742 106.966948 
L 172.977228 172.762931 
L 172.996016 172.762931 
L 173.067411 203.265675 
L 173.108745 188.869748 
L 173.112503 188.869748 
L 173.131291 156.387259 
L 173.202686 203.265675 
L 173.221474 203.265675 
L 173.428143 203.265675 
L 173.446931 177.602308 
L 173.537114 203.265675 
L 173.743783 203.265675 
L 173.762571 169.36559 
L 173.852754 203.265675 
L 173.856511 203.265675 
L 173.96924 134.683383 
L 174.010574 134.683383 
L 174.059423 157.609324 
L 174.06318 124.760215 
L 174.119545 124.760215 
L 174.145848 124.760215 
L 174.258577 157.609324 
L 174.397608 157.609324 
L 174.438942 137.396368 
L 174.506579 157.609324 
L 174.555428 157.609324 
L 174.686945 112.808419 
L 174.735794 152.330003 
L 174.739552 111.14641 
L 174.795916 111.14641 
L 174.844765 111.14641 
L 174.91616 116.425731 
L 174.919917 110.633143 
L 174.953736 110.633143 
L 175.07398 110.633143 
L 175.115314 65.758914 
L 175.141617 116.425731 
L 175.182951 116.425731 
L 175.502348 116.425731 
L 175.588774 49.358801 
L 175.615077 87.511672 
L 175.660168 87.511672 
L 175.724048 61.75054 
L 175.727806 90.6646 
L 175.769139 90.6646 
L 175.953263 90.6646 
L 176.065991 63.656962 
L 176.088537 63.656962 
L 176.152417 34.205194 
L 176.156174 89.418093 
L 176.19375 89.418093 
L 176.265145 89.418093 
L 176.377874 162.082082 
L 176.918971 162.082082 
L 177.0317 203.265675 
L 177.260914 203.265675 
L 177.279702 170.245477 
L 177.28346 228.195802 
L 177.366128 228.195802 
L 177.463826 228.195802 
L 177.527705 221.816622 
L 177.572797 228.195802 
L 178.54602 228.195802 
L 178.658749 186.401177 
L 178.794023 186.401177 
L 178.812811 178.555519 
L 178.902994 186.401177 
L 179.015722 186.401177 
L 179.128451 219.421375 
L 179.263725 219.421375 
L 179.312574 261.216 
L 179.376454 247.284458 
L 179.399 247.284458 
L 179.511728 261.216 
L 180.079129 261.216 
L 180.143008 258.698546 
L 180.1881 261.216 
L 180.327132 261.216 
L 180.34592 243.300526 
L 180.436103 261.216 
L 180.7555 261.216 
L 180.868229 178.433313 
L 181.026049 178.433313 
L 181.138777 156.827202 
L 181.315385 156.827202 
L 181.428114 195.884402 
L 181.495751 195.884402 
L 181.567146 217.490512 
L 181.570904 195.591106 
L 181.604722 195.591106 
L 181.631025 195.591106 
L 181.679875 217.490512 
L 181.739996 196.153256 
L 181.788845 196.153256 
L 181.815149 217.490512 
L 181.841452 137.787429 
L 181.894059 173.178433 
L 181.92412 173.178433 
L 182.036848 217.490512 
L 182.108243 217.490512 
L 182.217214 174.278291 
L 182.329943 218.003779 
L 182.375034 218.003779 
L 182.487763 261.216 
L 182.536612 261.216 
L 182.5554 246.966721 
L 182.645583 261.216 
L 182.829706 261.216 
L 182.953707 121.362874 
L 182.96498 121.362874 
L 183.006314 115.545844 
L 183.010072 159.686835 
L 183.047648 159.686835 
L 183.209226 159.686835 
L 183.325712 261.216 
L 183.844263 261.216 
L 184.020871 240.856396 
L 184.028387 233.915066 
L 184.1336 261.216 
L 184.137358 261.216 
L 184.250086 244.864769 
L 184.272632 244.864769 
L 184.38536 220.863412 
L 184.430452 220.863412 
L 184.54318 104.864996 
L 184.655909 104.864996 
L 184.697243 73.140187 
L 184.701 106.624769 
L 184.768638 84.945335 
L 184.881366 84.945335 
L 184.900154 47.061318 
L 184.926458 191.460526 
L 184.979064 191.460526 
L 184.990337 191.460526 
L 185.039186 223.185335 
L 185.103066 214.288702 
L 185.151915 214.288702 
L 185.264643 174.889324 
L 185.351069 174.889324 
L 185.445009 244.864769 
L 185.467555 230.199989 
L 185.576526 230.199989 
L 185.651678 222.818716 
L 185.693012 261.216 
L 185.783195 261.216 
L 185.892166 197.204232 
L 185.895923 207.371813 
L 185.918469 207.371813 
L 186.02744 100.44112 
L 186.031198 154.285307 
L 186.140169 154.285307 
L 186.260412 261.216 
L 186.301746 261.216 
L 186.429505 155.678461 
L 186.433263 155.678461 
L 186.504658 225.360611 
L 186.542234 182.563893 
L 186.545991 182.563893 
L 186.662478 261.216 
L 186.707569 261.216 
L 186.81654 167.068107 
L 186.820298 186.205646 
L 186.865389 186.205646 
L 186.951814 86.680668 
L 186.981875 151.352351 
L 186.996906 151.352351 
L 187.109634 250.87733 
L 187.13218 250.87733 
L 187.226121 261.216 
L 187.184787 232.546354 
L 187.241151 251.488362 
L 187.248666 251.488362 
L 187.361395 210.891361 
L 187.383941 210.891361 
L 187.402729 199.917216 
L 187.492912 210.891361 
L 187.515457 210.891361 
L 187.609398 223.112011 
L 187.613155 206.247513 
L 187.624428 206.247513 
L 187.628186 206.247513 
L 187.744672 246.624543 
L 187.786006 246.624543 
L 187.812309 261.216 
L 187.816067 222.32989 
L 187.887462 222.32989 
L 187.898734 222.32989 
L 187.973887 217.83269 
L 188.011463 261.216 
L 188.060312 261.216 
L 188.146737 200.039423 
L 188.173041 238.412266 
L 188.240678 238.412266 
L 188.259466 231.397612 
L 188.285769 261.216 
L 188.338376 261.216 
L 188.375952 261.216 
L 188.417286 230.004458 
L 188.484923 261.216 
L 188.488681 261.216 
L 188.55256 196.764289 
L 188.601409 219.665788 
L 188.620197 219.665788 
L 188.732926 250.437386 
L 188.845654 261.216 
L 188.917049 261.216 
L 189.056081 220.423468 
L 189.18384 220.423468 
L 189.322872 261.216 
L 189.367964 261.216 
L 189.480692 227.41368 
L 189.593421 227.41368 
L 189.6573 204.707711 
L 189.702392 227.41368 
L 189.728695 261.216 
L 189.80009 218.859225 
L 189.811363 218.859225 
L 189.97294 218.859225 
L 190.093184 261.216 
L 190.111972 261.216 
L 190.175852 223.063129 
L 190.220943 226.827089 
L 190.224701 261.216 
L 190.228458 202.141375 
L 190.329914 225.091757 
L 190.356217 225.091757 
L 190.468946 261.216 
L 190.585432 261.216 
L 190.701918 219.445816 
L 190.716949 219.445816 
L 190.829677 235.503751 
L 191.103984 235.503751 
L 191.122772 198.915123 
L 191.171621 261.216 
L 191.209197 261.216 
L 191.216712 261.216 
L 191.344471 143.408928 
L 191.483503 143.408928 
L 191.554898 165.99269 
L 191.596232 153.918687 
L 191.618777 153.918687 
L 191.667626 165.99269 
L 191.671384 104.645024 
L 191.712718 104.645024 
L 191.754052 104.645024 
L 191.86678 128.42641 
L 191.889326 128.42641 
L 191.983267 261.216 
L 192.002055 218.663694 
L 192.0246 218.663694 
L 192.095995 261.216 
L 192.137329 248.310993 
L 192.250057 261.216 
L 192.479272 261.216 
L 192.588243 216.781714 
L 192.592001 237.825675 
L 192.682184 237.825675 
L 192.794912 202.410229 
L 192.885095 202.410229 
L 192.97152 179.630936 
L 192.975278 215.046382 
L 192.994066 204.707711 
L 193.106795 215.046382 
L 193.151886 215.046382 
L 193.264615 237.825675 
L 193.313464 237.825675 
L 193.422435 205.758687 
L 193.535163 237.825675 
L 193.715529 237.825675 
L 193.741832 261.216 
L 193.828258 257.305392 
L 193.832015 257.305392 
L 193.91844 165.748277 
L 193.952259 188.991955 
L 193.963532 188.991955 
L 194.080018 257.305392 
L 194.170201 257.305392 
L 194.286687 199.355066 
L 194.301718 199.355066 
L 194.418204 261.216 
L 194.711298 261.216 
L 194.824027 237.507938 
L 195.090818 237.507938 
L 195.143424 183.785958 
L 195.203546 261.216 
L 195.365124 261.216 
L 195.477852 223.258659 
L 195.568035 223.258659 
L 195.586823 199.477273 
L 195.613127 252.514897 
L 195.673249 252.514897 
L 195.996404 252.514897 
L 196.015192 252.368249 
L 196.01895 252.514897 
L 196.082829 208.031728 
L 196.086587 261.216 
L 196.131678 224.358518 
L 196.443561 224.358518 
L 196.537501 261.216 
L 196.541259 221.327796 
L 196.552532 221.327796 
L 196.691563 221.327796 
L 196.804292 261.216 
L 197.010961 261.216 
L 197.119932 229.246778 
L 197.232661 253.88361 
L 197.345389 261.216 
L 197.506967 261.216 
L 197.623453 196.544317 
L 197.638483 196.544317 
L 197.687333 261.216 
L 197.751212 230.98211 
L 197.773758 230.98211 
L 197.886486 261.216 
L 197.91279 261.216 
L 198.021761 202.288023 
L 198.025518 230.493284 
L 198.134489 230.493284 
L 198.138247 261.216 
L 198.24346 237.776792 
L 198.247218 237.776792 
L 198.359946 261.216 
L 198.453887 261.216 
L 198.566615 240.880837 
L 198.607949 240.880837 
L 198.720678 261.216 
L 199.085167 261.216 
L 199.103955 225.311728 
L 199.197895 243.520498 
L 199.261775 243.520498 
L 199.355715 261.216 
L 199.359473 230.639932 
L 199.366988 230.639932 
L 199.378261 230.639932 
L 199.419595 198.255208 
L 199.468444 233.866184 
L 199.487232 233.866184 
L 199.738993 233.866184 
L 199.855479 192.707033 
L 199.919358 192.707033 
L 199.983238 153.258772 
L 200.032087 173.251757 
L 200.050875 173.251757 
L 200.12227 212.700017 
L 200.159846 178.775491 
L 200.276332 178.775491 
L 200.28009 199.941658 
L 200.389061 198.915123 
L 200.727246 261.216 
L 200.776096 261.216 
L 200.794884 260.751615 
L 200.885067 261.216 
L 201.204464 261.216 
L 201.317193 244.864769 
L 201.452467 244.864769 
L 201.565196 187.158857 
L 201.629075 187.158857 
L 201.745561 261.216 
L 201.880836 261.216 
L 201.993564 218.101545 
L 202.012352 218.101545 
L 202.125081 261.216 
L 202.33175 261.216 
L 202.444478 226.827089 
L 202.579753 226.827089 
L 202.692481 191.411644 
L 202.756361 191.411644 
L 202.869089 261.216 
L 202.940484 261.216 
L 203.060728 212.015661 
L 203.094547 212.015661 
L 203.21479 261.216 
L 203.368853 261.216 
L 203.477824 153.234331 
L 203.481581 241.858489 
L 203.526673 241.858489 
L 203.635644 208.838291 
L 203.748372 228.195802 
L 203.793464 228.195802 
L 203.842313 261.216 
L 203.84607 214.655321 
L 203.902435 214.655321 
L 204.045224 214.655321 
L 204.064012 201.090399 
L 204.154195 214.655321 
L 204.22559 214.655321 
L 204.266924 197.130908 
L 204.338319 209.033822 
L 204.424744 209.033822 
L 204.537472 214.655321 
L 204.54123 214.655321 
L 204.653959 182.001743 
L 204.830567 182.001743 
L 204.943295 214.655321 
L 205.127419 214.655321 
L 205.191298 203.950031 
L 205.23639 214.655321 
L 206.160764 214.655321 
L 206.273493 261.216 
L 206.547799 261.216 
L 206.660527 197.693058 
L 207.404536 197.693058 
L 207.468415 196.739847 
L 207.494719 260.262789 
L 207.581144 231.642025 
L 207.671327 231.642025 
L 207.896784 261.216 
L 207.923087 261.216 
L 207.964421 242.24955 
L 208.035816 243.007231 
L 208.054604 243.007231 
L 208.167333 261.216 
L 208.261273 261.216 
L 208.377759 219.348051 
L 208.482973 219.348051 
L 208.576913 238.583355 
L 208.595701 229.931134 
L 208.70843 238.583355 
L 208.730975 238.583355 
L 208.80237 261.216 
L 208.843704 249.997443 
L 208.933887 249.997443 
L 208.941402 228.684628 
L 209.046616 261.216 
L 209.952202 261.216 
L 210.038627 215.119706 
L 210.06493 227.41368 
L 210.173901 227.41368 
L 210.28663 261.216 
L 210.38057 261.216 
L 210.493299 250.657358 
L 210.515845 250.657358 
L 210.628573 205.147655 
L 210.692453 205.147655 
L 210.805181 215.706297 
L 211.034396 215.706297 
L 211.147125 214.753086 
L 211.16967 214.753086 
L 211.23355 191.973793 
L 211.282399 192.927004 
L 211.413916 192.927004 
L 211.440219 215.706297 
L 211.466522 135.269975 
L 211.515371 135.269975 
L 211.54919 135.269975 
L 211.665676 180.999649 
L 211.684464 62.777075 
L 211.710768 215.706297 
L 211.774647 215.706297 
L 212.026408 215.706297 
L 212.067741 211.331304 
L 212.135379 215.706297 
L 212.161682 215.706297 
L 212.27441 182.417245 
L 212.293199 182.417245 
L 212.409685 261.216 
L 212.477322 261.216 
L 212.59005 243.618263 
L 212.770416 243.618263 
L 212.81175 179.948673 
L 212.815508 261.216 
L 212.879387 261.216 
L 212.883145 261.216 
L 213.007146 230.835463 
L 213.014661 230.835463 
L 213.12739 261.216 
L 213.243876 261.216 
L 213.371635 191.90047 
L 213.44303 191.90047 
L 213.555759 210.255887 
L 213.578304 210.255887 
L 213.691033 246.966721 
L 214.055522 246.966721 
L 214.119401 192.144883 
L 214.168251 206.394161 
L 214.326071 206.394161 
L 214.446314 116.987881 
L 214.480133 116.987881 
L 214.528982 173.765024 
L 214.592862 146.757386 
L 214.683044 146.757386 
L 214.795773 179.386523 
L 214.885956 179.386523 
L 214.889713 206.394161 
L 214.998684 198.035236 
L 215.02123 198.035236 
L 215.024988 206.394161 
L 215.118928 186.352294 
L 215.126443 186.352294 
L 215.133959 186.352294 
L 215.17905 187.061092 
L 215.291779 261.216 
L 215.475902 261.216 
L 215.588631 220.227938 
L 215.720147 220.227938 
L 215.832876 261.216 
L 216.558096 261.216 
L 216.670825 223.991898 
L 216.738462 223.991898 
L 216.851191 186.107881 
L 216.892525 186.107881 
L 217.005253 223.331983 
L 217.050345 223.331983 
L 217.163073 261.216 
L 217.527562 261.216 
L 217.591442 248.06658 
L 217.636533 261.216 
L 217.662836 261.216 
L 217.775565 213.433256 
L 217.929627 213.433256 
L 218.046114 261.216 
L 218.113751 261.216 
L 218.132539 242.005137 
L 218.222722 261.216 
L 218.316662 261.216 
L 218.429391 227.291474 
L 218.673636 227.291474 
L 218.767577 261.216 
L 218.782607 234.306127 
L 218.947942 234.306127 
L 219.060671 205.758687 
L 219.150854 205.758687 
L 219.192187 170.807627 
L 219.259825 197.717499 
L 219.28237 197.717499 
L 219.398857 261.216 
L 219.534131 261.216 
L 219.643102 181.879536 
L 219.646859 219.543581 
L 219.75583 219.543581 
L 219.868559 261.216 
L 219.872317 261.216 
L 219.985045 234.452775 
L 220.026379 234.452775 
L 220.139108 261.216 
L 221.157422 261.216 
L 221.270151 184.910257 
L 221.514396 184.910257 
L 221.627125 223.185335 
L 221.739853 223.185335 
L 221.852582 261.216 
L 222.081797 261.216 
L 222.194525 230.22443 
L 222.438771 230.22443 
L 222.551499 261.216 
L 223.524722 261.216 
L 223.637451 228.709069 
L 223.772725 228.709069 
L 223.791513 191.289437 
L 223.881696 223.796368 
L 224.039516 223.796368 
L 224.152245 261.216 
L 224.178548 261.216 
L 224.264973 226.484911 
L 224.287519 261.216 
L 224.674554 261.216 
L 224.715888 236.383638 
L 224.787283 248.604289 
L 224.828616 248.604289 
L 224.941345 261.216 
L 225.193105 261.216 
L 225.211894 248.06658 
L 225.302076 261.216 
L 225.32838 261.216 
L 225.441108 238.876651 
L 225.730445 238.876651 
L 225.760506 223.84525 
L 225.843174 261.216 
L 226.207663 261.216 
L 226.226451 259.602874 
L 226.316634 261.216 
L 226.365483 261.216 
L 226.481969 187.549918 
L 226.587182 187.549918 
L 226.636031 222.769833 
L 226.639789 177.62675 
L 226.696153 177.62675 
L 226.726214 177.62675 
L 226.745002 170.343242 
L 226.793851 216.072917 
L 226.816397 216.072917 
L 226.902822 216.072917 
L 226.974217 261.216 
L 227.011793 225.458376 
L 227.038096 225.458376 
L 227.0644 261.216 
L 227.150825 243.520498 
L 227.154583 243.520498 
L 227.195916 210.598065 
L 227.22222 261.216 
L 227.263554 261.216 
L 227.334948 261.216 
L 227.376282 224.162987 
L 227.443919 245.769098 
L 227.492768 261.216 
L 227.496526 245.133624 
L 227.55289 245.133624 
L 227.579194 245.133624 
L 227.691922 261.216 
L 227.808408 261.216 
L 227.921137 216.170682 
L 227.939925 216.170682 
L 227.94744 208.422789 
L 228.052654 240.611983 
L 228.101503 240.611983 
L 228.214231 206.076424 
L 228.278111 206.076424 
L 228.372051 240.611983 
L 228.387082 209.351559 
L 228.458477 209.351559 
L 228.57872 261.216 
L 228.6426 261.216 
L 228.759086 196.544317 
L 228.977028 196.544317 
L 229.093514 261.216 
L 229.161151 261.216 
L 229.292668 194.466806 
L 229.450488 194.466806 
L 229.563217 206.614133 
L 229.724794 206.614133 
L 229.837523 177.797839 
L 229.878857 177.797839 
L 229.991585 206.614133 
L 230.06298 206.614133 
L 230.171951 133.216905 
L 230.175709 170.660979 
L 230.374862 170.660979 
L 230.487591 206.614133 
L 230.558986 206.614133 
L 230.675472 159.809041 
L 230.713048 159.809041 
L 230.825777 184.910257 
L 230.85208 184.910257 
L 230.91596 141.673595 
L 230.919717 196.275463 
L 230.961051 196.275463 
L 231.0099 196.275463 
L 231.028688 177.015717 
L 231.032446 217.979338 
L 231.118871 178.335547 
L 231.122629 192.022676 
L 231.126386 163.646325 
L 231.224084 163.646325 
L 231.254145 163.646325 
L 231.348086 261.216 
L 231.374389 251.07286 
L 231.38942 251.07286 
L 231.438269 261.216 
L 231.464572 213.750993 
L 231.48336 213.750993 
L 231.573543 213.750993 
L 231.592331 211.111332 
L 231.618634 235.11269 
L 231.652453 235.11269 
L 231.795242 235.11269 
L 231.889183 261.216 
L 231.907971 250.975095 
L 232.0207 261.216 
L 232.11464 261.216 
L 232.201065 240.269805 
L 232.223611 261.216 
L 232.340097 261.216 
L 232.403977 215.584091 
L 232.449068 261.216 
L 232.74592 261.216 
L 232.862406 172.811813 
L 232.945074 172.811813 
L 233.06156 234.819395 
L 233.080348 203.681177 
L 233.170531 230.077782 
L 233.196834 230.077782 
L 233.215623 169.658885 
L 233.309563 200.797103 
L 233.350897 200.797103 
L 233.467383 261.216 
L 233.647749 261.216 
L 233.760477 233.279593 
L 233.85066 233.279593 
L 233.869448 181.830653 
L 233.963389 209.767061 
L 234.049814 209.767061 
L 234.076117 261.216 
L 234.158785 220.08129 
L 234.162543 220.08129 
L 234.275271 261.216 
L 234.504486 261.216 
L 234.54582 225.311728 
L 234.613457 261.216 
L 234.9554 261.216 
L 235.132008 215.021941 
L 235.244737 215.021941 
L 235.248495 261.216 
L 235.353708 225.556141 
L 235.383769 225.556141 
L 235.496497 201.823638 
L 235.515286 201.823638 
L 235.631772 261.216 
L 235.947412 261.216 
L 236.033837 244.13153 
L 236.056383 261.216 
L 236.127777 261.216 
L 236.240506 128.768588 
L 236.601237 128.768588 
L 236.642571 123.024883 
L 236.710208 128.768588 
L 237.183668 128.768588 
L 237.296397 176.111389 
L 237.457975 176.111389 
L 237.570703 136.712011 
L 237.792403 136.712011 
L 237.905131 176.111389 
L 238.040406 176.111389 
L 238.153134 261.216 
L 238.9009 261.216 
L 239.013629 240.245364 
L 239.100054 240.245364 
L 239.212783 261.216 
L 240.591829 261.216 
L 240.719588 218.590371 
L 240.813529 218.590371 
L 240.941288 261.216 
L 241.020198 261.216 
L 241.038986 258.038631 
L 241.129169 261.216 
L 241.471112 261.216 
L 241.557537 255.325646 
L 241.580083 261.216 
L 242.666035 261.216 
L 242.684823 245.158065 
L 242.775006 247.284458 
L 242.887734 261.216 
L 243.094404 261.216 
L 243.207132 232.521912 
L 243.271012 232.521912 
L 243.38374 261.216 
L 244.672604 261.216 
L 244.785332 211.991219 
L 244.826666 211.991219 
L 244.939395 261.216 
L 245.326429 261.216 
L 245.439158 235.283779 
L 245.480492 235.283779 
L 245.59322 261.216 
L 246.002801 261.216 
L 246.089226 246.917839 
L 246.111772 261.216 
L 246.431169 261.216 
L 246.543898 206.56525 
L 246.656627 206.56525 
L 246.675415 196.22658 
L 246.679172 250.87733 
L 246.750567 250.87733 
L 246.765598 250.87733 
L 246.836992 261.216 
L 246.84075 215.657414 
L 246.859538 215.657414 
L 246.878326 158.073709 
L 246.927175 261.216 
L 246.964751 261.216 
L 247.039904 261.216 
L 247.152632 221.498885 
L 247.265361 221.498885 
L 247.378089 202.43467 
L 247.396878 202.43467 
L 247.517121 261.216 
L 247.648638 261.216 
L 247.761367 238.998857 
L 247.8027 238.998857 
L 247.915429 261.216 
L 248.257372 261.216 
L 248.370101 234.012832 
L 248.5918 234.012832 
L 248.685741 261.216 
L 248.689499 233.352917 
L 248.700771 233.352917 
L 248.74962 233.352917 
L 248.775924 261.216 
L 248.858591 239.561007 
L 248.907441 239.561007 
L 248.978835 261.216 
L 249.020169 258.454133 
L 249.065261 258.454133 
L 249.136655 261.216 
L 249.249384 227.560328 
L 249.407204 227.560328 
L 249.519932 195.053397 
L 249.561266 195.053397 
L 249.677752 261.216 
L 249.813027 261.216 
L 249.929513 207.005194 
L 249.993392 207.005194 
L 250.012181 180.901884 
L 250.083575 261.216 
L 250.094848 261.216 
L 250.151212 261.216 
L 250.260183 241.394105 
L 250.372912 261.216 
L 250.53449 261.216 
L 250.620915 243.276085 
L 250.643461 261.216 
L 250.962858 261.216 
L 251.075587 245.329154 
L 251.252195 245.329154 
L 251.364923 261.216 
L 251.774504 261.216 
L 251.887233 237.801233 
L 251.928566 237.801233 
L 252.041295 261.216 
L 252.045053 261.216 
L 252.157781 226.778207 
L 252.202873 226.778207 
L 252.289298 191.582733 
L 252.311844 226.778207 
L 252.334389 226.778207 
L 252.447118 261.216 
L 252.631241 261.216 
L 252.747727 162.253171 
L 252.898032 162.253171 
L 252.924335 206.125307 
L 253.007003 173.251757 
L 253.082155 173.251757 
L 253.146035 125.908956 
L 253.191126 173.251757 
L 253.371492 173.251757 
L 253.484221 206.125307 
L 253.510524 206.125307 
L 253.596949 171.149805 
L 253.619495 206.125307 
L 253.826164 206.125307 
L 253.871256 205.074331 
L 253.912589 159.100243 
L 253.983984 160.151219 
L 254.070409 160.151219 
L 254.183138 206.125307 
L 254.186896 206.125307 
L 254.310897 164.599536 
L 254.434898 164.599536 
L 254.476232 141.649154 
L 254.543869 164.599536 
L 254.566415 164.599536 
L 254.679144 206.125307 
L 254.705447 206.125307 
L 254.814418 200.968192 
L 254.927147 261.216 
L 255.133816 261.216 
L 255.250302 210.891361 
L 255.265332 210.891361 
L 255.295393 175.158178 
L 255.378061 228.953482 
L 255.535881 228.953482 
L 255.648609 261.216 
L 256.464013 261.216 
L 256.576741 224.920668 
L 256.843532 224.920668 
L 256.956261 261.216 
L 257.253113 261.216 
L 257.369599 237.16576 
L 257.632632 237.16576 
L 257.745361 261.216 
L 258.154941 261.216 
L 258.26767 220.765646 
L 258.376641 220.765646 
L 258.48937 261.216 
L 258.515673 261.216 
L 258.628401 238.827768 
L 258.673493 238.827768 
L 258.786222 196.715406 
L 258.850101 196.715406 
L 258.944042 261.216 
L 258.966587 247.064487 
L 259.210832 247.064487 
L 259.323561 261.216 
L 259.394956 261.216 
L 259.413744 228.9046 
L 259.503927 261.216 
L 259.53023 261.216 
L 259.657989 160.420074 
L 259.729384 160.420074 
L 259.823324 201.628107 
L 259.838355 167.068107 
L 260.06757 167.068107 
L 260.187813 222.305448 
L 260.229147 222.305448 
L 260.341876 191.045024 
L 260.54103 191.045024 
L 260.653758 222.305448 
L 260.657516 222.305448 
L 260.774002 153.478744 
L 260.789033 153.478744 
L 260.909276 222.305448 
L 260.928064 222.305448 
L 261.040793 196.348786 
L 261.217401 196.348786 
L 261.33013 235.259338 
L 261.42407 235.259338 
L 261.442858 231.030993 
L 261.533041 235.259338 
L 261.604436 235.259338 
L 261.64577 202.019168 
L 261.717165 202.850173 
L 261.73971 202.850173 
L 261.80359 164.843949 
L 261.848681 197.253115 
L 262.077896 197.253115 
L 262.096684 174.987089 
L 262.100442 212.993313 
L 262.183109 212.993313 
L 262.209413 212.993313 
L 262.322141 235.259338 
L 262.506265 235.259338 
L 262.618993 228.635745 
L 262.637781 228.635745 
L 262.75051 235.259338 
L 262.934633 235.259338 
L 263.021058 234.379451 
L 263.043604 235.259338 
L 263.182636 235.259338 
L 263.295365 191.436085 
L 263.53961 191.436085 
L 263.652338 235.259338 
L 263.79137 235.259338 
L 263.810158 171.369777 
L 263.900341 235.259338 
L 263.94919 235.259338 
L 264.061919 193.904656 
L 264.261073 193.904656 
L 264.373801 235.259338 
L 264.554167 235.259338 
L 264.666896 261.216 
L 265.978305 261.216 
L 266.091033 235.332662 
L 266.154913 235.332662 
L 266.267641 261.216 
L 266.406673 261.216 
L 266.515644 245.549126 
L 266.628373 261.216 
L 266.835042 261.216 
L 266.898921 219.372492 
L 266.944013 261.216 
L 267.285956 261.216 
L 267.304744 249.875236 
L 267.394927 261.216 
L 267.601596 261.216 
L 267.714325 231.715349 
L 268.007419 231.715349 
L 268.071299 218.737018 
L 268.120148 227.829182 
L 268.184027 227.829182 
L 268.296756 231.715349 
L 268.435788 231.715349 
L 268.563547 132.117047 
L 268.725124 132.117047 
L 268.856641 238.363383 
L 268.860399 238.363383 
L 268.973127 261.216 
L 268.976885 261.216 
L 269.085856 227.706976 
L 269.198584 261.216 
L 269.224888 261.216 
L 269.382708 176.673539 
L 269.675802 176.673539 
L 269.788531 166.530399 
L 269.811076 166.530399 
L 269.829864 155.65402 
L 269.920047 165.79716 
L 269.946351 165.79716 
L 270.01023 163.255264 
L 270.013988 174.131644 
L 270.044049 174.131644 
L 270.077867 174.131644 
L 270.107928 172.738489 
L 270.314597 261.216 
L 270.487448 261.216 
L 270.551327 200.234953 
L 270.600176 238.925533 
L 270.780542 238.925533 
L 270.866967 223.600837 
L 270.870725 245.891304 
L 270.889513 245.891304 
L 270.912059 245.891304 
L 270.983454 261.216 
L 270.987211 237.434614 
L 271.02103 237.434614 
L 271.208911 237.434614 
L 271.227699 222.745392 
L 271.231456 246.526778 
L 271.314124 246.526778 
L 271.362973 246.526778 
L 271.411822 261.216 
L 271.41558 238.290059 
L 271.471944 238.290059 
L 271.74625 238.290059 
L 271.840191 261.216 
L 271.858979 250.950653 
L 271.881525 250.950653 
L 271.994253 261.216 
L 272.291105 261.216 
L 272.400076 237.654586 
L 272.512805 261.216 
L 272.719474 261.216 
L 272.832202 260.287231 
L 272.85099 260.287231 
L 272.944931 261.216 
L 272.963719 232.839649 
L 273.053902 261.216 
L 273.373299 261.216 
L 273.486028 225.89832 
L 273.775365 225.89832 
L 273.824214 261.216 
L 273.884336 237.239083 
L 274.136096 237.239083 
L 274.248825 261.216 
L 274.568222 261.216 
L 274.58701 243.544939 
L 274.677193 261.216 
L 274.703497 261.216 
L 274.816225 248.408758 
L 274.970288 248.408758 
L 275.083016 261.216 
L 276.462062 261.216 
L 276.574791 238.241177 
L 276.593579 238.241177 
L 276.706308 261.216 
L 276.890431 261.216 
L 277.00316 224.627372 
L 277.021948 224.627372 
L 277.134676 261.216 
L 277.16098 261.216 
L 277.269951 258.478574 
L 277.3188 261.216 
L 277.322557 250.168532 
L 277.367649 250.168532 
L 277.408983 250.168532 
L 277.517953 167.459168 
L 277.521711 178.555519 
L 277.653228 178.555519 
L 277.679531 235.67484 
L 277.777229 217.563836 
L 277.788502 217.563836 
L 277.882443 235.67484 
L 277.995171 202.019168 
L 278.013959 202.019168 
L 278.130445 261.216 
L 278.288265 261.216 
L 278.374691 209.082704 
L 278.400994 236.261431 
L 278.442328 236.261431 
L 278.555056 261.216 
L 278.761725 261.216 
L 278.848151 228.562421 
L 278.874454 234.428334 
L 278.893242 234.428334 
L 279.005971 261.216 
L 279.167548 261.216 
L 279.186336 253.003723 
L 279.276519 261.216 
L 279.52828 261.216 
L 279.652281 208.105052 
L 279.727434 208.105052 
L 279.776283 261.216 
L 279.78004 197.375321 
L 279.832647 197.375321 
L 280.542837 197.375321 
L 280.655566 123.122648 
L 280.719445 123.122648 
L 280.835931 261.216 
L 281.692668 261.216 
L 281.756548 236.554727 
L 281.801639 261.216 
L 282.030854 261.216 
L 282.196189 234.990484 
L 282.838742 234.990484 
L 282.951471 261.216 
L 283.022866 261.216 
L 283.041654 259.847287 
L 283.131837 261.216 
L 283.293414 261.216 
L 283.4099 180.437499 
L 283.424931 180.437499 
L 283.537659 219.225844 
L 283.541417 219.225844 
L 283.605297 204.68327 
L 283.650388 219.225844 
L 283.672934 219.225844 
L 283.721783 261.216 
L 283.785662 246.893397 
L 283.808208 246.893397 
L 283.920937 261.216 
L 283.969786 261.216 
L 284.16894 205.636481 
L 284.24785 217.979338 
L 284.281668 217.979338 
L 284.394397 261.216 
L 284.4207 261.216 
L 284.533429 249.093115 
L 284.668703 249.093115 
L 284.781431 206.687457 
L 284.80022 206.687457 
L 284.916706 226.46047 
L 285.093314 226.46047 
L 285.206042 261.216 
L 285.299983 261.216 
L 285.412712 199.281743 
L 285.52544 199.281743 
L 285.58932 170.441007 
L 285.593077 232.375264 
L 285.630653 232.375264 
L 285.795989 232.375264 
L 285.90496 126.006721 
L 285.908717 154.847457 
L 285.927505 154.847457 
L 286.040234 167.11699 
L 286.179266 167.11699 
L 286.2206 158.391446 
L 286.288237 167.11699 
L 286.31454 167.11699 
L 286.355874 150.008079 
L 286.423511 167.11699 
L 286.607634 167.11699 
L 286.626423 140.573737 
L 286.716605 167.11699 
L 286.742909 167.11699 
L 286.855637 137.787429 
L 286.896971 137.787429 
L 287.0097 167.11699 
L 287.122428 167.11699 
L 287.235157 261.216 
L 287.73492 261.216 
L 287.7988 208.276141 
L 287.847649 228.220243 
L 287.979165 228.220243 
L 287.982923 261.216 
L 288.091894 253.785844 
L 288.136985 253.785844 
L 288.20838 261.216 
L 288.212138 233.108504 
L 288.234684 233.108504 
L 288.407534 233.108504 
L 288.520263 261.216 
L 288.636749 261.216 
L 288.74572 229.980017 
L 288.858448 261.216 
L 289.31312 261.216 
L 289.425849 225.458376 
L 289.467183 225.458376 
L 289.579911 261.216 
L 289.764035 261.216 
L 289.876763 234.623864 
L 289.9444 234.623864 
L 290.00828 205.343185 
L 290.053371 232.546354 
L 290.188646 232.546354 
L 290.301374 261.216 
L 290.350223 261.216 
L 290.391557 230.933228 
L 290.462952 233.352917 
L 290.729743 233.352917 
L 290.842471 261.216 
L 290.846229 261.216 
L 290.910108 232.350823 
L 290.9552 261.216 
L 291.229506 261.216 
L 291.315931 250.608475 
L 291.338477 261.216 
L 291.657875 261.216 
L 291.766846 231.764232 
L 291.774361 242.420639 
L 291.879574 242.420639 
L 291.992303 261.216 
L 292.086243 261.216 
L 292.195214 221.254472 
L 292.198972 246.624543 
L 292.443217 246.624543 
L 292.537158 261.216 
L 292.540915 241.760724 
L 292.552188 241.760724 
L 292.559703 241.760724 
L 292.578491 240.831955 
L 292.601037 241.760724 
L 292.713766 261.216 
L 292.897889 261.216 
L 292.939223 213.50658 
L 293.010618 217.441629 
L 293.033163 217.441629 
L 293.097043 195.811078 
L 293.1008 239.585448 
L 293.138377 239.585448 
L 293.145892 239.585448 
L 293.187226 220.570116 
L 293.254863 239.585448 
L 293.326258 261.216 
L 293.330015 210.769154 
L 293.360076 210.769154 
L 293.416441 210.769154 
L 293.435229 209.00938 
L 293.457774 210.769154 
L 293.570503 252.099395 
L 293.593049 252.099395 
L 293.705777 261.216 
L 293.754626 261.216 
L 293.773414 245.304713 
L 293.863597 261.216 
L 293.867355 261.216 
L 293.886143 246.673426 
L 293.976326 261.216 
L 294.295723 261.216 
L 294.404694 241.418546 
L 294.517423 261.216 
L 294.701546 261.216 
L 294.74288 237.532379 
L 294.810517 261.216 
L 295.129915 261.216 
L 295.148703 237.067994 
L 295.238886 261.216 
L 295.468101 261.216 
L 295.577072 217.661601 
L 295.580829 233.181827 
L 295.622163 233.181827 
L 295.734892 261.216 
L 295.896469 261.216 
L 295.915257 253.51699 
L 296.00544 261.216 
L 296.144472 261.216 
L 296.185806 220.521233 
L 296.253443 261.216 
L 296.572841 261.216 
L 296.681812 226.167174 
L 296.79454 261.216 
L 297.294304 261.216 
L 297.358183 187.76989 
L 297.407032 221.523327 
L 297.561095 221.523327 
L 297.673823 261.216 
L 297.745218 261.216 
L 297.786552 237.947881 
L 297.854189 261.216 
L 297.948129 261.216 
L 297.966917 249.924119 
L 298.0571 261.216 
L 298.376498 261.216 
L 298.485469 250.241856 
L 298.579409 261.216 
L 298.598197 260.678291 
L 298.710926 261.216 
L 298.804867 261.216 
L 298.8462 242.958348 
L 298.913837 261.216 
L 299.255781 261.216 
L 299.274569 246.453454 
L 299.364752 261.216 
L 300.969255 261.216 
L 301.010589 253.639197 
L 301.078226 261.216 
L 302.028904 261.216 
L 302.141632 200.479366 
L 302.205512 200.479366 
L 302.299452 261.216 
L 302.318241 252.563779 
L 302.430969 261.216 
L 302.750367 261.216 
L 302.836792 213.970965 
L 302.859338 244.449267 
L 302.972066 261.216 
L 303.178735 261.216 
L 303.197523 238.705562 
L 303.287706 257.965307 
L 303.828803 257.965307 
L 303.941532 261.216 
L 303.967835 261.216 
L 303.986623 253.077047 
L 304.076806 261.216 
L 304.10311 261.216 
L 304.144443 250.461827 
L 304.212081 261.216 
L 304.396204 261.216 
L 304.437538 246.453454 
L 304.505175 261.216 
L 304.508933 261.216 
L 304.617903 238.241177 
L 304.621661 249.484175 
L 304.644207 249.484175 
L 304.708086 210.989126 
L 304.756935 222.72095 
L 304.937301 222.72095 
L 304.956089 196.78873 
L 305.004938 261.216 
L 305.042514 261.216 
L 305.388215 261.216 
L 305.500944 235.845929 
L 305.655006 235.845929 
L 305.767735 261.216 
L 306.199861 261.216 
L 306.218649 239.341035 
L 306.308832 261.216 
L 306.538047 261.216 
L 306.654533 206.0031 
L 306.669564 206.0031 
L 306.763504 261.216 
L 306.782292 235.601516 
L 306.853687 235.601516 
L 306.970173 173.471728 
L 306.988961 173.471728 
L 307.030295 146.781827 
L 307.034053 197.570851 
L 307.094175 197.570851 
L 307.143024 197.570851 
L 307.255752 224.260752 
L 307.327147 224.260752 
L 307.436118 203.119027 
L 307.439876 208.862733 
L 307.458664 208.862733 
L 307.578907 261.216 
L 307.823153 261.216 
L 307.864487 239.389918 
L 307.939639 248.26211 
L 307.954669 248.26211 
L 307.962185 238.290059 
L 308.067398 261.216 
L 308.251521 261.216 
L 308.270309 241.540752 
L 308.360492 246.429013 
L 308.473221 261.216 
L 308.724981 261.216 
L 308.766315 231.202082 
L 308.83771 249.410851 
L 308.924135 249.410851 
L 309.018076 261.216 
L 309.021833 231.715349 
L 309.029348 231.715349 
L 309.063167 231.715349 
L 309.175896 199.746127 
L 309.329958 199.746127 
L 309.442687 229.246778 
L 309.446444 229.246778 
L 309.487778 224.847344 
L 309.555415 229.246778 
L 309.62681 261.216 
L 309.668144 245.524685 
L 309.803418 245.524685 
L 309.897359 261.216 
L 309.901116 235.210455 
L 309.908631 235.210455 
L 310.051421 235.210455 
L 310.055179 261.216 
L 310.104028 207.176283 
L 310.156634 207.176283 
L 310.212999 207.176283 
L 310.32197 143.311163 
L 310.325727 214.704204 
L 310.434698 208.569437 
L 310.483547 214.704204 
L 310.50985 171.027598 
L 310.521123 171.027598 
L 310.547427 171.027598 
L 310.66767 241.149692 
L 310.727792 241.149692 
L 310.73155 261.216 
L 310.780399 230.957669 
L 310.836763 230.957669 
L 310.911916 230.957669 
L 311.002099 240.489777 
L 311.020887 190.140696 
L 311.069736 240.489777 
L 311.073493 175.500356 
L 311.129858 175.500356 
L 311.159919 175.500356 
L 311.246344 107.113595 
L 311.250101 180.999649 
L 311.26889 180.999649 
L 311.272647 185.227994 
L 311.276405 150.228051 
L 311.359072 157.829296 
L 311.36283 157.829296 
L 311.404164 138.789522 
L 311.430467 190.556198 
L 311.464286 190.556198 
L 311.471801 190.556198 
L 311.58453 240.074274 
L 311.588287 240.074274 
L 311.629621 225.996085 
L 311.67847 249.313086 
L 311.693501 249.313086 
L 311.791199 249.313086 
L 311.809987 191.509409 
L 311.881381 261.216 
L 311.90017 261.216 
L 312.039201 261.216 
L 312.15193 221.034501 
L 312.174476 221.034501 
L 312.260901 122.096113 
L 312.29472 125.664543 
L 312.30975 125.664543 
L 312.328538 91.275632 
L 312.377387 196.006608 
L 312.411206 196.006608 
L 312.46757 196.006608 
L 312.486358 192.85368 
L 312.490116 233.890625 
L 312.53145 233.890625 
L 312.557753 233.890625 
L 312.621632 219.934642 
L 312.62539 247.260017 
L 312.662966 243.887117 
L 312.666724 243.887117 
L 312.670482 261.216 
L 312.741876 236.310314 
L 312.775695 236.310314 
L 312.779452 236.310314 
L 312.895939 261.216 
L 313.008667 260.018376 
L 313.09885 260.018376 
L 313.140184 213.579904 
L 313.211579 226.09385 
L 313.230367 226.09385 
L 313.279216 261.216 
L 313.305519 212.455604 
L 313.33558 213.408815 
L 313.437036 213.408815 
L 313.500915 151.450116 
L 313.546007 199.257301 
L 313.549764 199.257301 
L 313.63619 159.246891 
L 313.662493 170.905392 
L 313.681281 170.905392 
L 313.801525 261.216 
L 313.910496 261.216 
L 313.929284 242.322874 
L 314.019467 261.216 
L 314.04577 261.216 
L 314.158499 225.238405 
L 314.312561 225.238405 
L 314.338864 261.216 
L 314.42529 251.854982 
L 314.429047 251.854982 
L 314.515473 167.239197 
L 314.541776 216.170682 
L 314.673293 216.170682 
L 314.703354 210.989126 
L 314.786021 261.216 
L 314.789779 261.216 
L 314.853658 225.702789 
L 314.89875 249.215321 
L 315.011478 261.216 
L 315.218147 261.216 
L 315.330876 240.025392 
L 315.511242 240.025392 
L 315.53003 237.459055 
L 315.620213 240.025392 
L 315.646516 261.216 
L 315.650274 200.748221 
L 315.721668 200.748221 
L 315.823124 200.748221 
L 315.871973 233.866184 
L 315.932095 205.367627 
L 315.93961 205.367627 
L 316.026036 168.119083 
L 316.029793 223.967457 
L 316.052339 187.745448 
L 316.09743 187.745448 
L 316.16131 156.21617 
L 316.165067 192.438178 
L 316.206401 192.438178 
L 316.25525 192.438178 
L 316.364221 181.610682 
L 316.47695 223.967457 
L 316.544587 223.967457 
L 316.638527 261.216 
L 316.653558 225.947202 
L 316.683619 225.947202 
L 316.702407 206.051983 
L 316.79259 225.947202 
L 317.021805 225.947202 
L 317.063138 212.993313 
L 317.066896 261.216 
L 317.119503 261.216 
L 317.405082 261.216 
L 317.51781 260.238348 
L 317.671873 260.238348 
L 317.765813 261.216 
L 317.893572 202.336905 
L 317.919876 202.336905 
L 318.032604 261.216 
L 318.126545 261.216 
L 318.235516 228.782393 
L 318.250546 231.422054 
L 318.258061 231.422054 
L 318.352002 253.565873 
L 318.37079 243.789352 
L 318.415881 243.789352 
L 318.52861 261.216 
L 318.554913 261.216 
L 318.663884 231.935321 
L 318.667642 247.919932 
L 318.754067 247.919932 
L 318.78037 261.216 
L 318.784128 241.662959 
L 318.863038 241.662959 
L 319.092253 241.662959 
L 319.204981 261.216 
L 319.231285 261.216 
L 319.272619 218.370399 
L 319.340256 261.216 
L 319.56947 261.216 
L 319.678441 194.026863 
L 319.682199 227.487004 
L 319.926444 227.487004 
L 320.039173 261.216 
L 320.200751 261.216 
L 320.313479 211.184656 
L 320.358571 211.184656 
L 320.377359 210.084798 
L 320.467541 211.184656 
L 320.493845 211.184656 
L 320.621604 190.360668 
L 320.692999 190.360668 
L 320.786939 211.184656 
L 320.80197 197.228673 
L 320.850819 197.228673 
L 320.963547 211.184656 
L 321.192762 211.184656 
L 321.256642 150.839083 
L 321.282945 237.850116 
L 321.301733 214.288702 
L 321.414462 237.850116 
L 321.437007 237.850116 
L 321.549736 261.216 
L 321.553493 261.216 
L 321.572282 258.503016 
L 321.662464 261.216 
L 322.026953 261.216 
L 322.135924 238.363383 
L 322.229865 261.216 
L 322.233623 237.190201 
L 322.244895 237.190201 
L 322.293744 237.190201 
L 322.406473 261.216 
L 323.199331 261.216 
L 323.218119 215.95071 
L 323.308302 261.216 
L 323.312059 261.216 
L 323.428545 185.032464 
L 323.488667 185.032464 
L 323.492425 198.157443 
L 323.601396 193.78245 
L 323.691579 193.78245 
L 323.695336 233.548447 
L 323.804307 231.275406 
L 323.808065 237.92344 
L 323.856914 187.76989 
L 323.890733 187.76989 
L 323.920794 187.76989 
L 323.939582 156.876085 
L 323.988431 209.913709 
L 324.026007 209.913709 
L 324.05231 209.913709 
L 324.168796 261.216 
L 324.258979 261.216 
L 324.322859 254.494642 
L 324.36795 260.238348 
L 324.416799 260.238348 
L 324.458133 252.539338 
L 324.506982 261.216 
L 324.52577 261.216 
L 325.002988 261.216 
L 325.044322 240.685307 
L 325.111959 261.216 
L 325.476448 261.216 
L 325.562873 205.734246 
L 325.589177 231.568702 
L 325.743239 231.568702 
L 325.855967 261.216 
L 326.062637 261.216 
L 326.175365 210.818037 
L 326.220457 210.818037 
L 326.333185 184.714727 
L 326.400822 184.714727 
L 326.464702 154.065335 
L 326.509793 184.714727 
L 326.513551 184.714727 
L 326.554885 150.008079 
L 326.581188 210.818037 
L 326.618764 210.818037 
L 326.739008 210.818037 
L 326.847979 183.394897 
L 326.960708 210.818037 
L 326.964465 210.818037 
L 327.028345 168.510144 
L 327.073436 210.818037 
L 327.392834 210.818037 
L 327.505562 166.530399 
L 327.731019 166.530399 
L 327.851263 47.183525 
L 327.99781 47.183525 
L 328.118054 132.55699 
L 328.200722 132.55699 
L 328.317208 191.167231 
L 328.47127 191.167231 
L 328.583999 210.818037 
L 328.723031 210.818037 
L 328.83576 168.510144 
L 328.899639 168.510144 
L 328.925942 203.803383 
L 328.9297 61.506127 
L 328.997337 61.506127 
L 329.016125 61.506127 
L 329.128854 19.296 
L 329.147642 19.296 
L 329.271643 207.396255 
L 329.534677 207.396255 
L 329.658678 166.432634 
L 329.805225 166.432634 
L 329.914196 159.760158 
L 329.917954 189.431898 
L 329.989349 106.844741 
L 330.01941 133.241347 
L 330.053228 133.241347 
L 330.094562 73.555689 
L 330.162199 120.189692 
L 330.25614 207.396255 
L 330.274928 184.054812 
L 330.320019 184.054812 
L 330.391414 207.396255 
L 330.395172 181.610682 
L 330.42899 181.610682 
L 330.590568 181.610682 
L 330.703296 207.396255 
L 331.000148 207.396255 
L 331.112877 172.078574 
L 331.180514 172.078574 
L 331.199302 105.32938 
L 331.293243 140.647061 
L 331.36088 140.647061 
L 331.424759 133.607966 
L 331.469851 140.647061 
L 331.492396 140.647061 
L 331.541245 207.396255 
L 331.605125 182.979395 
L 331.717854 182.979395 
L 331.830582 207.396255 
L 332.349134 207.396255 
L 332.397983 261.216 
L 332.461862 245.402478 
L 332.574591 261.216 
L 332.826351 261.216 
L 332.890231 210.793595 
L 332.935322 228.513539 
L 333.048051 261.216 
L 333.277265 261.216 
L 333.341145 240.220922 
L 333.386236 261.216 
L 333.660543 261.216 
L 333.777029 198.450738 
L 333.859696 198.450738 
L 333.972425 228.757952 
L 334.111457 228.757952 
L 334.130245 204.927683 
L 334.224186 204.976566 
L 334.269277 204.976566 
L 334.385763 155.165194 
L 334.468431 155.165194 
L 334.562371 181.415151 
L 334.566129 113.981601 
L 334.573644 113.981601 
L 334.603705 113.981601 
L 334.723949 187.012209 
L 334.874254 187.012209 
L 334.986982 228.757952 
L 334.99074 228.757952 
L 335.107226 175.769211 
L 335.212439 175.769211 
L 335.2425 171.858603 
L 335.325168 194.491248 
L 335.441654 194.491248 
L 335.55814 129.672917 
L 335.595717 129.672917 
L 335.712203 200.039423 
L 335.730991 200.039423 
L 335.824931 261.216 
L 335.843719 235.797047 
L 335.888811 235.797047 
L 336.001539 261.216 
L 336.366029 261.216 
L 336.478757 236.432521 
L 336.497545 236.432521 
L 336.610274 261.216 
L 337.245311 261.216 
L 337.354282 241.638518 
L 337.467011 261.216 
L 338.417689 261.216 
L 338.459022 241.100809 
L 338.530417 251.806099 
L 338.846057 251.806099 
L 338.864845 242.371757 
L 338.868603 261.216 
L 338.951271 261.216 
L 339.09406 261.216 
L 339.206789 197.766382 
L 339.274426 197.766382 
L 339.31576 156.045081 
L 339.342063 244.278178 
L 339.379639 244.278178 
L 339.405942 244.278178 
L 339.518671 261.216 
L 339.522429 261.216 
L 339.635157 246.673426 
L 339.744128 246.673426 
L 339.856857 261.216 
L 339.88316 261.216 
L 339.999646 192.609267 
L 340.014677 192.609267 
L 340.127405 229.735604 
L 340.176254 229.735604 
L 340.285225 134.952238 
L 340.292741 163.255264 
L 340.311529 163.255264 
L 340.330317 158.904713 
L 340.334074 194.735661 
L 340.394196 194.735661 
L 340.536986 194.735661 
L 340.649714 146.855151 
L 340.739897 146.855151 
L 340.848868 109.606608 
L 340.965354 213.335491 
L 341.055537 213.335491 
L 341.164508 184.421431 
L 341.168266 204.585505 
L 341.190812 204.585505 
L 341.254691 191.704939 
L 341.280994 213.335491 
L 341.296025 213.335491 
L 341.348632 213.335491 
L 341.46136 159.540187 
L 341.709363 159.540187 
L 341.728151 125.444571 
L 341.822092 126.617754 
L 341.885971 126.617754 
L 341.938578 115.179225 
L 341.9987 159.540187 
L 342.002457 159.540187 
L 342.115186 131.945958 
L 342.179065 131.945958 
L 342.227915 159.540187 
L 342.231672 126.519989 
L 342.288036 126.519989 
L 342.291794 126.519989 
L 342.363189 213.335491 
L 342.40828 186.034557 
L 342.449614 152.036707 
L 342.517251 167.11699 
L 342.641253 261.216 
L 342.746466 261.216 
L 342.859195 211.111332 
L 342.88174 211.111332 
L 342.994469 178.311106 
L 343.084652 178.311106 
L 343.125986 117.867768 
L 343.174835 228.415774 
L 343.189865 228.415774 
L 343.67084 228.415774 
L 343.783569 189.334133 
L 343.806115 189.334133 
L 343.937631 148.859338 
L 344.05036 192.707033 
L 344.121755 192.707033 
L 344.140543 188.258716 
L 344.230726 192.707033 
L 344.234483 192.707033 
L 344.275817 176.820187 
L 344.30212 228.415774 
L 344.335939 228.415774 
L 344.347212 228.415774 
L 344.388546 222.183242 
L 344.456183 228.415774 
L 344.45994 228.415774 
L 344.568911 192.487061 
L 344.572669 217.246099 
L 344.614003 217.246099 
L 344.726731 228.415774 
L 344.798126 228.415774 
L 344.816914 223.063129 
L 344.907097 228.415774 
L 345.226495 228.415774 
L 345.335466 178.971021 
L 345.451952 228.415774 
L 345.677409 228.415774 
L 345.78638 161.691021 
L 345.857775 261.216 
L 345.899109 225.33617 
L 346.327477 225.33617 
L 346.440206 261.216 
L 346.534146 261.216 
L 346.646875 215.535208 
L 346.782149 215.535208 
L 346.894878 160.029013 
L 347.030152 160.029013 
L 347.04894 155.262959 
L 347.116577 160.029013 
L 347.229306 215.535208 
L 347.481066 215.535208 
L 347.593795 178.971021 
L 347.702766 178.971021 
L 347.815494 224.651813 
L 347.909435 224.651813 
L 347.928223 170.147711 
L 348.018406 207.591785 
L 348.022163 207.591785 
L 348.086043 156.289494 
L 348.089801 209.913709 
L 348.131134 209.913709 
L 348.266409 209.913709 
L 348.337803 261.216 
L 348.379137 226.656 
L 348.446774 226.656 
L 348.559503 261.216 
L 348.608352 261.216 
L 348.62714 232.204175 
L 348.717323 261.216 
L 349.036721 261.216 
L 349.149449 225.727231 
L 349.168237 225.727231 
L 349.262178 261.216 
L 349.280966 251.854982 
L 349.461332 251.854982 
L 349.465089 261.216 
L 349.468847 198.67071 
L 349.547757 198.67071 
L 349.57406 198.67071 
L 349.690546 261.216 
L 349.776972 230.78658 
L 349.799517 261.216 
L 349.893458 261.216 
L 349.979883 231.324289 
L 350.002429 261.216 
L 350.073824 261.216 
L 350.19031 196.446552 
L 350.250432 196.446552 
L 350.276735 220.887853 
L 350.34813 137.665222 
L 350.351887 137.665222 
L 350.430797 137.665222 
L 350.547284 223.2831 
L 350.569829 223.2831 
L 350.712619 179.777584 
L 350.746437 179.777584 
L 350.859166 217.710484 
L 350.998198 217.710484 
L 351.016986 194.784543 
L 351.043289 261.216 
L 351.099654 256.938772 
L 351.377717 256.938772 
L 351.430324 241.736283 
L 351.490446 261.216 
L 351.516749 261.216 
L 351.693357 200.283836 
L 351.791056 210.13368 
L 351.806086 210.13368 
L 351.809844 261.216 
L 351.881238 173.325081 
L 351.911299 173.325081 
L 351.967664 173.325081 
L 352.087907 114.445986 
L 352.144272 114.445986 
L 352.260758 191.289437 
L 352.324637 160.468956 
L 352.373487 160.884458 
L 352.396032 160.884458 
L 352.482457 121.118461 
L 352.505003 160.884458 
L 352.57264 160.884458 
L 352.685369 191.289437 
L 352.734218 191.289437 
L 352.798097 169.585562 
L 352.801855 239.512124 
L 352.835674 231.959762 
L 352.88828 231.959762 
L 352.959675 253.663638 
L 352.997251 240.440894 
L 353.185132 240.440894 
L 353.294103 169.878857 
L 353.301618 195.786636 
L 353.36174 195.786636 
L 353.433135 224.77402 
L 353.436893 160.420074 
L 353.451923 160.420074 
L 353.51956 160.420074 
L 353.613501 196.862054 
L 353.617258 159.735717 
L 353.628531 159.735717 
L 353.632289 159.735717 
L 353.681138 196.862054 
L 353.745018 181.879536 
L 353.857746 196.862054 
L 354.15084 196.862054 
L 354.263569 261.216 
L 354.312418 261.216 
L 354.331206 257.720894 
L 354.421389 261.216 
L 354.447692 261.216 
L 354.534118 209.522648 
L 354.564179 230.59105 
L 354.628058 230.59105 
L 354.744544 157.951502 
L 354.804666 157.951502 
L 354.898607 221.254472 
L 354.917395 196.78873 
L 355.052669 196.78873 
L 355.165398 221.254472 
L 355.187943 221.254472 
L 355.300672 261.216 
L 355.326975 261.216 
L 355.439704 239.756537 
L 355.526129 239.756537 
L 355.529887 249.019791 
L 355.601281 204.878801 
L 355.62007 204.878801 
L 355.642615 204.878801 
L 355.683949 191.924911 
L 355.751586 204.878801 
L 355.868072 261.216 
L 356.070984 261.216 
L 356.18747 251.561686 
L 356.386624 251.561686 
L 356.514383 207.298489 
L 356.521898 207.298489 
L 356.612081 206.345279 
L 356.72481 142.040215 
L 356.743598 142.040215 
L 356.856326 186.303412 
L 356.860084 186.303412 
L 356.972812 144.728758 
L 357.014146 144.728758 
L 357.130632 187.867655 
L 357.149421 187.867655 
L 357.220815 223.600837 
L 357.262149 210.451417 
L 357.374878 223.600837 
L 357.378635 223.600837 
L 357.397423 214.313143 
L 357.487606 223.600837 
L 357.600335 261.216 
L 357.649184 261.216 
L 357.713063 238.314501 
L 357.758155 261.216 
L 358.122644 261.216 
L 358.163978 241.760724 
L 358.231615 261.216 
L 358.528467 261.216 
L 358.569801 238.021205 
L 358.637438 261.216 
L 358.844107 261.216 
L 358.960593 190.067372 
L 359.043261 190.067372 
L 359.069564 223.894133 
L 359.073322 170.392124 
L 359.155989 207.713992 
L 359.317567 207.713992 
L 359.426538 206.760781 
L 359.497933 207.713992 
L 359.606904 160.786693 
L 359.719632 207.713992 
L 359.768481 207.713992 
L 359.787269 188.454246 
L 359.877452 207.713992 
L 360.084121 207.713992 
L 360.125455 173.618376 
L 360.193092 207.713992 
L 360.19685 207.713992 
L 360.260729 179.386523 
L 360.305821 207.713992 
L 360.422307 207.713992 
L 360.508732 181.488475 
L 360.531278 207.713992 
L 360.535036 207.713992 
L 360.644006 144.826523 
L 360.655279 156.093963 
L 360.824372 156.093963 
L 360.937101 175.353709 
L 360.963404 175.353709 
L 361.117467 132.36146 
L 361.230195 150.716877 
L 361.365469 150.716877 
L 361.478198 175.353709 
L 361.504501 175.353709 
L 361.61723 134.267881 
L 361.639776 134.267881 
L 361.681109 130.015095 
L 361.684867 171.100922 
L 361.714928 171.100922 
L 361.771292 171.100922 
L 361.884021 228.855717 
L 362.225964 228.855717 
L 362.338693 184.005929 
L 362.357481 184.005929 
L 362.470209 216.366212 
L 362.582938 216.366212 
L 362.695667 261.216 
L 362.72197 261.216 
L 362.834698 246.84533 
L 363.101489 246.84533 
L 363.154096 238.334054 
L 363.214218 261.216 
L 363.240521 261.216 
L 363.35325 228.812537 
L 363.465979 228.812537 
L 363.484767 192.620673 
L 363.574949 225.024136 
L 363.578707 225.024136 
L 363.620041 216.8917 
L 363.687678 225.024136 
L 363.868044 225.024136 
L 363.980772 261.216 
L 364.345261 261.216 
L 364.409141 230.12585 
L 364.454232 261.216 
L 364.503081 261.216 
L 364.566961 241.213239 
L 364.612052 261.216 
L 364.77363 261.216 
L 364.792418 243.73884 
L 364.882601 261.216 
L 365.495093 261.216 
L 365.607822 245.228945 
L 365.649155 245.228945 
L 365.761884 261.216 
L 365.923462 261.216 
L 366.043705 214.113539 
L 366.19401 214.113539 
L 366.306739 213.078042 
L 366.41571 213.078042 
L 366.528438 214.113539 
L 366.690016 214.113539 
L 366.802744 184.185165 
L 366.956807 184.185165 
L 367.069535 214.113539 
L 367.095839 214.113539 
L 367.208567 197.949692 
L 367.294993 197.949692 
L 367.29875 245.052153 
L 367.407721 228.282161 
L 367.411479 228.282161 
L 367.475358 208.885545 
L 367.52045 225.049392 
L 367.682027 225.049392 
L 367.700815 209.516945 
L 367.790998 225.049392 
L 367.839847 225.049392 
L 367.858635 200.500549 
L 367.862393 244.446008 
L 367.952576 211.688962 
L 368.132942 211.688962 
L 368.24567 179.083451 
L 368.30955 179.083451 
L 368.422278 228.610489 
L 368.46737 228.610489 
L 368.580098 261.216 
L 368.922042 261.216 
L 368.963375 248.310178 
L 369.031013 261.216 
L 369.440593 261.216 
L 369.527018 240.657607 
L 369.549564 261.216 
L 369.688596 261.216 
L 369.707384 244.976385 
L 369.797567 261.216 
L 369.914053 261.216 
L 370.000478 229.519706 
L 370.023024 261.216 
L 370.116965 261.216 
L 370.135753 223.028911 
L 370.225936 261.216 
L 370.319876 261.216 
L 370.406301 229.090354 
L 370.432605 260.129992 
L 370.451393 260.129992 
L 370.564121 261.216 
L 370.567879 261.216 
L 370.67685 240.859655 
L 370.748245 261.216 
L 370.785821 242.198223 
L 371.037581 242.198223 
L 371.063885 261.216 
L 371.067642 221.412526 
L 371.142795 221.412526 
L 371.15031 221.412526 
L 371.202917 218.533341 
L 371.263038 261.216 
L 371.311888 261.216 
L 371.424616 239.87467 
L 371.514799 239.87467 
L 371.556133 222.801607 
L 371.62377 239.87467 
L 371.627528 239.87467 
L 371.646316 235.808453 
L 371.736498 239.87467 
L 371.916864 239.87467 
L 371.946925 234.091044 
L 372.029593 261.216 
L 372.03335 261.216 
L 372.146079 232.196843 
L 372.461719 232.196843 
L 372.57069 211.562682 
L 372.619539 232.196843 
L 372.679661 216.664396 
L 372.683419 216.664396 
L 372.796147 232.196843 
L 372.999059 232.196843 
L 373.111787 261.216 
L 373.341002 261.216 
L 373.382336 226.691033 
L 373.449973 261.216 
L 375.212296 261.216 
L 375.231084 249.345675 
L 375.321267 261.216 
L 375.843576 261.216 
L 375.956305 253.765477 
L 376.091579 253.765477 
L 376.132913 243.10744 
L 376.20055 250.557963 
L 376.204308 261.216 
L 376.208065 227.676017 
L 376.302006 227.676017 
L 376.632676 227.676017 
L 376.651464 216.083508 
L 376.700314 261.216 
L 376.730374 261.216 
L 377.782508 261.216 
L 377.891479 244.37024 
L 377.895236 252.704724 
L 378.139482 252.704724 
L 378.25221 261.216 
L 378.278514 261.216 
L 378.391242 214.896475 
L 378.413788 214.896475 
L 378.500213 200.045941 
L 378.503971 246.365465 
L 378.515244 246.365465 
L 378.635487 246.365465 
L 378.748216 261.216 
L 378.977431 261.216 
L 379.018765 222.852119 
L 379.086402 261.216 
L 379.135251 261.216 
L 379.247979 230.024826 
L 379.405799 230.024826 
L 379.51477 221.00843 
L 379.627499 230.024826 
L 379.650045 230.024826 
L 379.762773 261.216 
L 379.856714 261.216 
L 379.969442 236.162037 
L 379.98823 236.162037 
L 380.100959 261.216 
L 380.285082 261.216 
L 380.371508 228.181137 
L 380.394053 261.216 
L 381.367277 261.216 
L 381.386065 242.375016 
L 381.476248 261.216 
L 381.93092 261.216 
L 381.949708 256.291078 
L 382.03989 261.216 
L 382.359288 261.216 
L 382.378076 225.983864 
L 382.472017 231.615955 
L 382.693716 231.615955 
L 382.787657 261.216 
L 382.791414 211.057562 
L 382.79893 211.057562 
L 382.810202 211.057562 
L 382.851536 184.816566 
L 382.87784 234.975004 
L 382.915416 234.975004 
L 382.968022 234.975004 
L 383.080751 211.158586 
L 383.122085 211.158586 
L 383.216025 234.975004 
L 383.231056 211.183842 
L 383.238571 211.183842 
L 383.358815 137.461545 
L 383.415179 137.461545 
L 383.531665 187.822031 
L 383.621848 187.822031 
L 383.663182 147.033573 
L 383.730819 184.488238 
L 383.734577 184.488238 
L 383.847305 163.727796 
L 384.001368 163.727796 
L 384.114096 184.488238 
L 384.117854 184.488238 
L 384.159188 154.686144 
L 384.162945 187.822031 
L 384.226825 183.351717 
L 384.339553 187.822031 
L 384.362099 187.822031 
L 384.474828 261.216 
L 384.61386 261.216 
L 384.726588 234.065788 
L 385.042228 234.065788 
L 385.151199 222.776351 
L 385.263928 234.065788 
L 385.470597 234.065788 
L 385.557022 232.070563 
L 385.579568 234.065788 
L 385.650963 234.065788 
L 385.692296 125.515451 
L 385.763691 129.202829 
L 385.898965 129.202829 
L 385.985391 104.426682 
L 386.007936 129.202829 
L 386.346122 129.202829 
L 386.458851 234.065788 
L 387.702623 234.065788 
L 387.789048 197.823412 
L 387.811594 234.065788 
L 388.082142 234.065788 
L 388.194871 261.216 
L 388.221174 261.216 
L 388.333903 215.224803 
L 388.533057 215.224803 
L 388.645785 261.216 
L 388.739726 261.216 
L 388.852454 171.329856 
L 389.303368 171.329856 
L 389.457431 126.879276 
L 389.528826 126.879276 
L 389.592705 106.118835 
L 389.637797 126.879276 
L 389.731737 171.329856 
L 389.750525 153.019248 
L 389.840708 153.019248 
L 389.953437 171.329856 
L 389.957194 171.329856 
L 389.975982 155.595361 
L 389.97974 245.481505 
L 390.047377 245.481505 
L 390.160106 245.481505 
L 390.201439 230.428922 
L 390.250289 261.216 
L 390.265319 261.216 
L 390.317926 261.216 
L 390.426897 260.155248 
L 390.539625 261.216 
L 391.422666 261.216 
L 391.535394 222.094438 
L 391.580486 222.094438 
L 391.666911 172.18856 
L 391.689457 211.310122 
L 392.88438 211.310122 
L 392.997108 261.216 
L 393.023412 261.216 
L 393.0422 260.534088 
L 393.132382 261.216 
L 393.632146 261.216 
L 393.650934 256.745686 
L 393.741117 261.216 
L 395.052526 261.216 
L 395.165255 223.483519 
L 395.319317 223.483519 
L 395.390712 261.216 
L 395.428288 234.924492 
L 395.81908 234.924492 
L 395.837868 230.984554 
L 395.864172 261.216 
L 395.901748 261.216 
L 396.179812 261.216 
L 396.296298 204.238438 
L 396.333874 204.238438 
L 396.454118 261.216 
L 396.698363 261.216 
L 396.784788 248.562738 
L 396.807334 261.216 
L 397.126732 261.216 
L 397.213157 257.427598 
L 397.235703 258.134767 
L 397.307097 261.216 
L 397.325886 220.654846 
L 397.393523 250.456939 
" clip-path="url(#pac5f8b0791)" style="fill: none; stroke: #014636; stroke-width: 1.5; stroke-linecap: square"/>
   </g>
   <g id="patch_3">
    <path d="M 56.50625 273.312 
L 56.50625 7.2 
" style="fill: none; stroke: #000000; stroke-width: 0.8; stroke-linejoin: miter; stroke-linecap: square"/>
   </g>
   <g id="patch_4">
    <path d="M 413.62625 273.312 
L 413.62625 7.2 
" style="fill: none; stroke: #000000; stroke-width: 0.8; stroke-linejoin: miter; stroke-linecap: square"/>
   </g>
   <g id="patch_5">
    <path d="M 56.50625 273.312 
L 413.62625 273.312 
" style="fill: none; stroke: #000000; stroke-width: 0.8; stroke-linejoin: miter; stroke-linecap: square"/>
   </g>
   <g id="patch_6">
    <path d="M 56.50625 7.2 
L 413.62625 7.2 
" style="fill: none; stroke: #000000; stroke-width: 0.8; stroke-linejoin: miter; stroke-linecap: square"/>
   </g>
  </g>
 </g>
 <defs>
  <clipPath id="pac5f8b0791">
   <rect x="56.50625" y="7.2" width="357.12" height="266.112"/>
  </clipPath>
 </defs>
</svg>
